  0
SECTION
  2
HEADER
  9
$ACADVER
  1
AC1009
  9
$FILLMODE
 70
0
  9
$EXTMIN
 10
-0.2287
 20
-0.2287
 30
0.0000
  9
$EXTMAX
 10
105.8287
 20
105.8287
 30
0.0000
  0
ENDSEC
  0
SECTION
  2
TABLES
  0
TABLE
  2
LTYPE
 70
1
  0
LTYPE
  2
CONTINUOUS
 70
64
  3
Solid line
 72
65
 73
0
 40
0
  0
ENDTAB
  0
TABLE
  2
LAYER
 70
255
  0
LAYER
  2
20
 70
64
 62
31
  6
CONTINUOUS
  0
LAYER
  2
30
 70
64
 62
7
  6
CONTINUOUS
  0
ENDTAB
  0
ENDSEC
  0
SECTION
  2
BLOCKS
  0
BLOCK
  8
0
  2
RECT
 70
64
 10
0.0000
 20
0.0000
 30
0.0000
  3
RECT
  0
SOLID
  8
0
 10
-0.5000
 20
-0.5000
 30
0.0000
 11
0.5000
 21
-0.5000
 31
0.0000
 12
-0.5000
 22
0.5000
 32
0.0000
 13
0.5000
 23
0.5000
 33
0.0000
  0
ENDBLK
  8
0
  0
BLOCK
  8
0
  2
PIE
 70
64
 10
0.0000
 20
0.0000
 30
0.0000
  3
PIE
  0
CIRCLE
  8
0
 10
0.0000
 20
0.0000
 30
0.0000
 40
0.5000
  0
ENDBLK
  8
0
  0
BLOCK
  8
0
  2
OCTAGONP
 70
64
 10
0.0000
 20
0.0000
 30
0.0000
  3
OCTAGONP
  0
POLYLINE
  8
0
 66
1
 10
0.0000
 20
0.0000
 30
0.0000
 40
0.0000
 41
0.0000
 70
1
  0
VERTEX
  8
0
 10
-0.5000
 20
-0.2071
 30
0.0000
  0
VERTEX
  8
0
 10
-0.5000
 20
0.2071
 30
0.0000
  0
VERTEX
  8
0
 10
-0.2071
 20
0.5000
 30
0.0000
  0
VERTEX
  8
0
 10
0.2071
 20
0.5000
 30
0.0000
  0
VERTEX
  8
0
 10
0.5000
 20
0.2071
 30
0.0000
  0
VERTEX
  8
0
 10
0.5000
 20
-0.2071
 30
0.0000
  0
VERTEX
  8
0
 10
0.2071
 20
-0.5000
 30
0.0000
  0
VERTEX
  8
0
 10
-0.2071
 20
-0.5000
 30
0.0000
  0
SEQEND
  8
0
  0
ENDBLK
  8
0
  0
BLOCK
  8
0
  2
SQUAREP
 70
64
 10
0.0000
 20
0.0000
 30
0.0000
  3
SQUAREP
  0
SOLID
  8
0
 10
-0.5000
 20
-0.5000
 30
0.0000
 11
0.5000
 21
-0.5000
 31
0.0000
 12
-0.5000
 22
0.5000
 32
0.0000
 13
0.5000
 23
0.5000
 33
0.0000
  0
ENDBLK
  8
0
  0
BLOCK
  8
0
  2
ROUNDP
 70
64
 10
0.0000
 20
0.0000
 30
0.0000
  3
ROUNDP
  0
CIRCLE
  8
0
 10
0.0000
 20
0.0000
 30
0.0000
 40
0.5000
  0
ENDBLK
  8
0
  0
BLOCK
  8
0
  2
ANNULUSP
 70
64
 10
0.0000
 20
0.0000
 30
0.0000
  3
ANNULUSP
  0
CIRCLE
  8
0
 10
0.0000
 20
0.0000
 30
0.0000
 40
0.5000
  0
ENDBLK
  8
0
  0
BLOCK
  8
0
  2
THERMALP
 70
64
 10
0.0000
 20
0.0000
 30
0.0000
  3
THERMALP
  0
POLYLINE
  8
0
 66
1
 10
0.0000
 20
0.0000
 30
0.0000
 40
0.0000
 41
0.0000
 70
1
  0
VERTEX
  8
0
 10
-0.2379
 20
0.4000
 30
0.0000
  0
VERTEX
  8
0
 10
0.2379
 20
0.4000
 30
0.0000
 42
1.0000
  0
VERTEX
  8
0
 10
0.2379
 20
0.5000
 30
0.0000
  0
VERTEX
  8
0
 10
-0.2379
 20
0.5000
 30
0.0000
 42
1.0000
  0
SEQEND
  8
0
  0
POLYLINE
  8
0
 66
1
 10
0.0000
 20
0.0000
 30
0.0000
 40
0.0000
 41
0.0000
 70
1
  0
VERTEX
  8
0
 10
0.4000
 20
0.2379
 30
0.0000
  0
VERTEX
  8
0
 10
0.4000
 20
-0.2379
 30
0.0000
 42
1.0000
  0
VERTEX
  8
0
 10
0.5000
 20
-0.2379
 30
0.0000
  0
VERTEX
  8
0
 10
0.5000
 20
0.2379
 30
0.0000
 42
1.0000
  0
SEQEND
  8
0
  0
POLYLINE
  8
0
 66
1
 10
0.0000
 20
0.0000
 30
0.0000
 40
0.0000
 41
0.0000
 70
1
  0
VERTEX
  8
0
 10
0.2379
 20
-0.4000
 30
0.0000
  0
VERTEX
  8
0
 10
-0.2379
 20
-0.4000
 30
0.0000
 42
1.0000
  0
VERTEX
  8
0
 10
-0.2379
 20
-0.5000
 30
0.0000
  0
VERTEX
  8
0
 10
0.2379
 20
-0.5000
 30
0.0000
 42
1.0000
  0
SEQEND
  8
0
  0
POLYLINE
  8
0
 66
1
 10
0.0000
 20
0.0000
 30
0.0000
 40
0.0000
 41
0.0000
 70
1
  0
VERTEX
  8
0
 10
-0.4000
 20
-0.2379
 30
0.0000
  0
VERTEX
  8
0
 10
-0.4000
 20
0.2379
 30
0.0000
 42
1.0000
  0
VERTEX
  8
0
 10
-0.5000
 20
0.2379
 30
0.0000
  0
VERTEX
  8
0
 10
-0.5000
 20
-0.2379
 30
0.0000
 42
1.0000
  0
SEQEND
  8
0
  0
ENDBLK
  8
0
  0
BLOCK
  8
0
  2
OCTAGONV
 70
64
 10
0.0000
 20
0.0000
 30
0.0000
  3
OCTAGONV
  0
POLYLINE
  8
0
 66
1
 10
0.0000
 20
0.0000
 30
0.0000
 40
0.0000
 41
0.0000
 70
1
  0
VERTEX
  8
0
 10
-0.5000
 20
-0.2071
 30
0.0000
  0
VERTEX
  8
0
 10
-0.5000
 20
0.2071
 30
0.0000
  0
VERTEX
  8
0
 10
-0.2071
 20
0.5000
 30
0.0000
  0
VERTEX
  8
0
 10
0.2071
 20
0.5000
 30
0.0000
  0
VERTEX
  8
0
 10
0.5000
 20
0.2071
 30
0.0000
  0
VERTEX
  8
0
 10
0.5000
 20
-0.2071
 30
0.0000
  0
VERTEX
  8
0
 10
0.2071
 20
-0.5000
 30
0.0000
  0
VERTEX
  8
0
 10
-0.2071
 20
-0.5000
 30
0.0000
  0
SEQEND
  8
0
  0
ENDBLK
  8
0
  0
BLOCK
  8
0
  2
SQUAREV
 70
64
 10
0.0000
 20
0.0000
 30
0.0000
  3
SQUAREV
  0
SOLID
  8
0
 10
-0.5000
 20
-0.5000
 30
0.0000
 11
0.5000
 21
-0.5000
 31
0.0000
 12
-0.5000
 22
0.5000
 32
0.0000
 13
0.5000
 23
0.5000
 33
0.0000
  0
ENDBLK
  8
0
  0
BLOCK
  8
0
  2
ROUNDV
 70
64
 10
0.0000
 20
0.0000
 30
0.0000
  3
ROUNDV
  0
CIRCLE
  8
0
 10
0.0000
 20
0.0000
 30
0.0000
 40
0.5000
  0
ENDBLK
  8
0
  0
BLOCK
  8
0
  2
ANNULUSV
 70
64
 10
0.0000
 20
0.0000
 30
0.0000
  3
ANNULUSV
  0
CIRCLE
  8
0
 10
0.0000
 20
0.0000
 30
0.0000
 40
0.5000
  0
ENDBLK
  8
0
  0
BLOCK
  8
0
  2
THERMALV
 70
64
 10
0.0000
 20
0.0000
 30
0.0000
  3
THERMALV
  0
POLYLINE
  8
0
 66
1
 10
0.0000
 20
0.0000
 30
0.0000
 40
0.0000
 41
0.0000
 70
1
  0
VERTEX
  8
0
 10
-0.2379
 20
0.4000
 30
0.0000
  0
VERTEX
  8
0
 10
0.2379
 20
0.4000
 30
0.0000
 42
1.0000
  0
VERTEX
  8
0
 10
0.2379
 20
0.5000
 30
0.0000
  0
VERTEX
  8
0
 10
-0.2379
 20
0.5000
 30
0.0000
 42
1.0000
  0
SEQEND
  8
0
  0
POLYLINE
  8
0
 66
1
 10
0.0000
 20
0.0000
 30
0.0000
 40
0.0000
 41
0.0000
 70
1
  0
VERTEX
  8
0
 10
0.4000
 20
0.2379
 30
0.0000
  0
VERTEX
  8
0
 10
0.4000
 20
-0.2379
 30
0.0000
 42
1.0000
  0
VERTEX
  8
0
 10
0.5000
 20
-0.2379
 30
0.0000
  0
VERTEX
  8
0
 10
0.5000
 20
0.2379
 30
0.0000
 42
1.0000
  0
SEQEND
  8
0
  0
POLYLINE
  8
0
 66
1
 10
0.0000
 20
0.0000
 30
0.0000
 40
0.0000
 41
0.0000
 70
1
  0
VERTEX
  8
0
 10
0.2379
 20
-0.4000
 30
0.0000
  0
VERTEX
  8
0
 10
-0.2379
 20
-0.4000
 30
0.0000
 42
1.0000
  0
VERTEX
  8
0
 10
-0.2379
 20
-0.5000
 30
0.0000
  0
VERTEX
  8
0
 10
0.2379
 20
-0.5000
 30
0.0000
 42
1.0000
  0
SEQEND
  8
0
  0
POLYLINE
  8
0
 66
1
 10
0.0000
 20
0.0000
 30
0.0000
 40
0.0000
 41
0.0000
 70
1
  0
VERTEX
  8
0
 10
-0.4000
 20
-0.2379
 30
0.0000
  0
VERTEX
  8
0
 10
-0.4000
 20
0.2379
 30
0.0000
 42
1.0000
  0
VERTEX
  8
0
 10
-0.5000
 20
0.2379
 30
0.0000
  0
VERTEX
  8
0
 10
-0.5000
 20
-0.2379
 30
0.0000
 42
1.0000
  0
SEQEND
  8
0
  0
ENDBLK
  8
0
  0
BLOCK
  8
0
  2
RECT0X0R50
 70
64
 10
0.0000
 20
0.0000
 30
0.0000
  3
RECT0X0R50
  0
POLYLINE
  8
0
 66
1
 10
0.0000
 20
0.0000
 30
0.0000
 40
0.0000
 41
0.0000
 70
1
  0
VERTEX
  8
0
 10
0.0000
 20
0.0000
 30
0.0000
  0
VERTEX
  8
0
 10
0.0000
 20
0.0000
 30
0.0000
 42
0.4142
  0
VERTEX
  8
0
 10
0.0000
 20
0.0000
 30
0.0000
  0
VERTEX
  8
0
 10
0.0000
 20
0.0000
 30
0.0000
 42
0.4142
  0
VERTEX
  8
0
 10
0.0000
 20
0.0000
 30
0.0000
  0
VERTEX
  8
0
 10
0.0000
 20
0.0000
 30
0.0000
 42
0.4142
  0
VERTEX
  8
0
 10
0.0000
 20
0.0000
 30
0.0000
  0
VERTEX
  8
0
 10
0.0000
 20
0.0000
 30
0.0000
 42
0.4142
  0
SEQEND
  8
0
  0
ENDBLK
  8
0
  0
ENDSEC
  0
SECTION
  2
ENTITIES
  0
POLYLINE
  8
20
 66
1
 10
0.0000
 20
0.0000
 30
0.0000
 40
0.0000
 41
0.0000
 70
1
  0
VERTEX
  8
20
 10
91.8270
 20
105.1000
 30
0.0000
 42
1.0000
  0
VERTEX
  8
20
 10
91.8290
 20
105.1000
 30
0.0000
 42
0.4142
  0
VERTEX
  8
20
 10
91.3280
 20
105.6010
 30
0.0000
 42
1.0000
  0
VERTEX
  8
20
 10
91.3280
 20
105.5990
 30
0.0000
 42
-0.4142
  0
SEQEND
  8
0
  0
POLYLINE
  8
20
 66
1
 10
0.0000
 20
0.0000
 30
0.0000
 40
0.0000
 41
0.0000
 70
1
  0
VERTEX
  8
20
 10
91.8290
 20
100.9980
 30
0.0000
 42
1.0000
  0
VERTEX
  8
20
 10
91.8270
 20
100.9980
 30
0.0000
 42
0.4142
  0
VERTEX
  8
20
 10
93.0980
 20
99.7270
 30
0.0000
 42
1.0000
  0
VERTEX
  8
20
 10
93.0980
 20
99.7290
 30
0.0000
 42
-0.4142
  0
SEQEND
  8
0
  0
POLYLINE
  8
20
 66
1
 10
0.0000
 20
0.0000
 30
0.0000
 40
0.0000
 41
0.0000
 70
1
  0
VERTEX
  8
20
 10
93.7270
 20
99.2280
 30
0.0000
 42
1.0000
  0
VERTEX
  8
20
 10
93.7290
 20
99.2280
 30
0.0000
 42
0.4142
  0
VERTEX
  8
20
 10
93.2280
 20
99.7290
 30
0.0000
 42
1.0000
  0
VERTEX
  8
20
 10
93.2280
 20
99.7270
 30
0.0000
 42
-0.4142
  0
SEQEND
  8
0
  0
POLYLINE
  8
20
 66
1
 10
0.0000
 20
0.0000
 30
0.0000
 40
0.0000
 41
0.0000
 70
1
  0
VERTEX
  8
20
 10
93.7290
 20
94.9980
 30
0.0000
 42
1.0000
  0
VERTEX
  8
20
 10
93.7270
 20
94.9980
 30
0.0000
 42
0.4142
  0
VERTEX
  8
20
 10
94.9980
 20
93.7270
 30
0.0000
 42
1.0000
  0
VERTEX
  8
20
 10
94.9980
 20
93.7290
 30
0.0000
 42
-0.4142
  0
SEQEND
  8
0
  0
POLYLINE
  8
20
 66
1
 10
0.0000
 20
0.0000
 30
0.0000
 40
0.0000
 41
0.0000
 70
1
  0
VERTEX
  8
20
 10
102.4270
 20
93.2280
 30
0.0000
 42
1.0000
  0
VERTEX
  8
20
 10
102.4290
 20
93.2280
 30
0.0000
 42
0.4142
  0
VERTEX
  8
20
 10
101.9280
 20
93.7290
 30
0.0000
 42
1.0000
  0
VERTEX
  8
20
 10
101.9280
 20
93.7270
 30
0.0000
 42
-0.4142
  0
SEQEND
  8
0
  0
POLYLINE
  8
20
 66
1
 10
0.0000
 20
0.0000
 30
0.0000
 40
0.0000
 41
0.0000
 70
1
  0
VERTEX
  8
20
 10
102.4290
 20
93.1980
 30
0.0000
 42
1.0000
  0
VERTEX
  8
20
 10
102.4270
 20
93.1980
 30
0.0000
 42
0.4142
  0
VERTEX
  8
20
 10
103.6980
 20
91.9270
 30
0.0000
 42
1.0000
  0
VERTEX
  8
20
 10
103.6980
 20
91.9290
 30
0.0000
 42
-0.4142
  0
SEQEND
  8
0
  0
POLYLINE
  8
20
 66
1
 10
0.0000
 20
0.0000
 30
0.0000
 40
0.0000
 41
0.0000
 70
1
  0
VERTEX
  8
20
 10
105.5990
 20
91.4280
 30
0.0000
 42
1.0000
  0
VERTEX
  8
20
 10
105.6010
 20
91.4280
 30
0.0000
 42
0.4142
  0
VERTEX
  8
20
 10
105.1000
 20
91.9290
 30
0.0000
 42
1.0000
  0
VERTEX
  8
20
 10
105.1000
 20
91.9270
 30
0.0000
 42
-0.4142
  0
SEQEND
  8
0
  0
POLYLINE
  8
20
 66
1
 10
0.0000
 20
0.0000
 30
0.0000
 40
0.0000
 41
0.0000
 70
1
  0
VERTEX
  8
20
 10
105.1000
 20
13.6730
 30
0.0000
 42
1.0000
  0
VERTEX
  8
20
 10
105.1000
 20
13.6710
 30
0.0000
 42
0.4142
  0
VERTEX
  8
20
 10
105.6010
 20
14.1720
 30
0.0000
 42
1.0000
  0
VERTEX
  8
20
 10
105.5990
 20
14.1720
 30
0.0000
 42
-0.4142
  0
SEQEND
  8
0
  0
POLYLINE
  8
20
 66
1
 10
0.0000
 20
0.0000
 30
0.0000
 40
0.0000
 41
0.0000
 70
1
  0
VERTEX
  8
20
 10
103.6980
 20
13.6710
 30
0.0000
 42
1.0000
  0
VERTEX
  8
20
 10
103.6980
 20
13.6730
 30
0.0000
 42
0.4142
  0
VERTEX
  8
20
 10
102.4270
 20
12.4020
 30
0.0000
 42
1.0000
  0
VERTEX
  8
20
 10
102.4290
 20
12.4020
 30
0.0000
 42
-0.4142
  0
SEQEND
  8
0
  0
POLYLINE
  8
20
 66
1
 10
0.0000
 20
0.0000
 30
0.0000
 40
0.0000
 41
0.0000
 70
1
  0
VERTEX
  8
20
 10
101.9280
 20
11.8730
 30
0.0000
 42
1.0000
  0
VERTEX
  8
20
 10
101.9280
 20
11.8710
 30
0.0000
 42
0.4142
  0
VERTEX
  8
20
 10
102.4290
 20
12.3720
 30
0.0000
 42
1.0000
  0
VERTEX
  8
20
 10
102.4270
 20
12.3720
 30
0.0000
 42
-0.4142
  0
SEQEND
  8
0
  0
POLYLINE
  8
20
 66
1
 10
0.0000
 20
0.0000
 30
0.0000
 40
0.0000
 41
0.0000
 70
1
  0
VERTEX
  8
20
 10
94.9980
 20
11.8710
 30
0.0000
 42
1.0000
  0
VERTEX
  8
20
 10
94.9980
 20
11.8730
 30
0.0000
 42
0.4142
  0
VERTEX
  8
20
 10
93.7270
 20
10.6020
 30
0.0000
 42
1.0000
  0
VERTEX
  8
20
 10
93.7290
 20
10.6020
 30
0.0000
 42
-0.4142
  0
SEQEND
  8
0
  0
POLYLINE
  8
20
 66
1
 10
0.0000
 20
0.0000
 30
0.0000
 40
0.0000
 41
0.0000
 70
1
  0
VERTEX
  8
20
 10
93.2280
 20
5.8730
 30
0.0000
 42
1.0000
  0
VERTEX
  8
20
 10
93.2280
 20
5.8710
 30
0.0000
 42
0.4142
  0
VERTEX
  8
20
 10
93.7290
 20
6.3720
 30
0.0000
 42
1.0000
  0
VERTEX
  8
20
 10
93.7270
 20
6.3720
 30
0.0000
 42
-0.4142
  0
SEQEND
  8
0
  0
POLYLINE
  8
20
 66
1
 10
0.0000
 20
0.0000
 30
0.0000
 40
0.0000
 41
0.0000
 70
1
  0
VERTEX
  8
20
 10
93.0980
 20
5.8710
 30
0.0000
 42
1.0000
  0
VERTEX
  8
20
 10
93.0980
 20
5.8730
 30
0.0000
 42
0.4142
  0
VERTEX
  8
20
 10
91.8270
 20
4.6020
 30
0.0000
 42
1.0000
  0
VERTEX
  8
20
 10
91.8290
 20
4.6020
 30
0.0000
 42
-0.4142
  0
SEQEND
  8
0
  0
POLYLINE
  8
20
 66
1
 10
0.0000
 20
0.0000
 30
0.0000
 40
0.0000
 41
0.0000
 70
1
  0
VERTEX
  8
20
 10
91.3280
 20
0.0010
 30
0.0000
 42
1.0000
  0
VERTEX
  8
20
 10
91.3280
 20
-0.0010
 30
0.0000
 42
0.4142
  0
VERTEX
  8
20
 10
91.8290
 20
0.5000
 30
0.0000
 42
1.0000
  0
VERTEX
  8
20
 10
91.8270
 20
0.5000
 30
0.0000
 42
-0.4142
  0
SEQEND
  8
0
  0
POLYLINE
  8
20
 66
1
 10
0.0000
 20
0.0000
 30
0.0000
 40
0.0000
 41
0.0000
 70
1
  0
VERTEX
  8
20
 10
13.7730
 20
0.5000
 30
0.0000
 42
1.0000
  0
VERTEX
  8
20
 10
13.7710
 20
0.5000
 30
0.0000
 42
0.4142
  0
VERTEX
  8
20
 10
14.2720
 20
-0.0010
 30
0.0000
 42
1.0000
  0
VERTEX
  8
20
 10
14.2720
 20
0.0010
 30
0.0000
 42
-0.4142
  0
SEQEND
  8
0
  0
POLYLINE
  8
20
 66
1
 10
0.0000
 20
0.0000
 30
0.0000
 40
0.0000
 41
0.0000
 70
1
  0
VERTEX
  8
20
 10
13.7710
 20
4.6020
 30
0.0000
 42
1.0000
  0
VERTEX
  8
20
 10
13.7730
 20
4.6020
 30
0.0000
 42
0.4142
  0
VERTEX
  8
20
 10
12.5020
 20
5.8730
 30
0.0000
 42
1.0000
  0
VERTEX
  8
20
 10
12.5020
 20
5.8710
 30
0.0000
 42
-0.4142
  0
SEQEND
  8
0
  0
POLYLINE
  8
20
 66
1
 10
0.0000
 20
0.0000
 30
0.0000
 40
0.0000
 41
0.0000
 70
1
  0
VERTEX
  8
20
 10
11.8730
 20
6.3720
 30
0.0000
 42
1.0000
  0
VERTEX
  8
20
 10
11.8710
 20
6.3720
 30
0.0000
 42
0.4142
  0
VERTEX
  8
20
 10
12.3720
 20
5.8710
 30
0.0000
 42
1.0000
  0
VERTEX
  8
20
 10
12.3720
 20
5.8730
 30
0.0000
 42
-0.4142
  0
SEQEND
  8
0
  0
POLYLINE
  8
20
 66
1
 10
0.0000
 20
0.0000
 30
0.0000
 40
0.0000
 41
0.0000
 70
1
  0
VERTEX
  8
20
 10
11.8710
 20
10.6020
 30
0.0000
 42
1.0000
  0
VERTEX
  8
20
 10
11.8730
 20
10.6020
 30
0.0000
 42
0.4142
  0
VERTEX
  8
20
 10
10.6020
 20
11.8730
 30
0.0000
 42
1.0000
  0
VERTEX
  8
20
 10
10.6020
 20
11.8710
 30
0.0000
 42
-0.4142
  0
SEQEND
  8
0
  0
POLYLINE
  8
20
 66
1
 10
0.0000
 20
0.0000
 30
0.0000
 40
0.0000
 41
0.0000
 70
1
  0
VERTEX
  8
20
 10
3.1730
 20
12.3720
 30
0.0000
 42
1.0000
  0
VERTEX
  8
20
 10
3.1710
 20
12.3720
 30
0.0000
 42
0.4142
  0
VERTEX
  8
20
 10
3.6720
 20
11.8710
 30
0.0000
 42
1.0000
  0
VERTEX
  8
20
 10
3.6720
 20
11.8730
 30
0.0000
 42
-0.4142
  0
SEQEND
  8
0
  0
POLYLINE
  8
20
 66
1
 10
0.0000
 20
0.0000
 30
0.0000
 40
0.0000
 41
0.0000
 70
1
  0
VERTEX
  8
20
 10
3.1710
 20
12.4020
 30
0.0000
 42
1.0000
  0
VERTEX
  8
20
 10
3.1730
 20
12.4020
 30
0.0000
 42
0.4142
  0
VERTEX
  8
20
 10
1.9020
 20
13.6730
 30
0.0000
 42
1.0000
  0
VERTEX
  8
20
 10
1.9020
 20
13.6710
 30
0.0000
 42
-0.4142
  0
SEQEND
  8
0
  0
POLYLINE
  8
20
 66
1
 10
0.0000
 20
0.0000
 30
0.0000
 40
0.0000
 41
0.0000
 70
1
  0
VERTEX
  8
20
 10
0.0010
 20
14.1720
 30
0.0000
 42
1.0000
  0
VERTEX
  8
20
 10
-0.0010
 20
14.1720
 30
0.0000
 42
0.4142
  0
VERTEX
  8
20
 10
0.5000
 20
13.6710
 30
0.0000
 42
1.0000
  0
VERTEX
  8
20
 10
0.5000
 20
13.6730
 30
0.0000
 42
-0.4142
  0
SEQEND
  8
0
  0
POLYLINE
  8
20
 66
1
 10
0.0000
 20
0.0000
 30
0.0000
 40
0.0000
 41
0.0000
 70
1
  0
VERTEX
  8
20
 10
0.5000
 20
91.9270
 30
0.0000
 42
1.0000
  0
VERTEX
  8
20
 10
0.5000
 20
91.9290
 30
0.0000
 42
0.4142
  0
VERTEX
  8
20
 10
-0.0010
 20
91.4280
 30
0.0000
 42
1.0000
  0
VERTEX
  8
20
 10
0.0010
 20
91.4280
 30
0.0000
 42
-0.4142
  0
SEQEND
  8
0
  0
POLYLINE
  8
20
 66
1
 10
0.0000
 20
0.0000
 30
0.0000
 40
0.0000
 41
0.0000
 70
1
  0
VERTEX
  8
20
 10
1.9020
 20
91.9290
 30
0.0000
 42
1.0000
  0
VERTEX
  8
20
 10
1.9020
 20
91.9270
 30
0.0000
 42
0.4142
  0
VERTEX
  8
20
 10
3.1730
 20
93.1980
 30
0.0000
 42
1.0000
  0
VERTEX
  8
20
 10
3.1710
 20
93.1980
 30
0.0000
 42
-0.4142
  0
SEQEND
  8
0
  0
POLYLINE
  8
20
 66
1
 10
0.0000
 20
0.0000
 30
0.0000
 40
0.0000
 41
0.0000
 70
1
  0
VERTEX
  8
20
 10
3.6720
 20
93.7270
 30
0.0000
 42
1.0000
  0
VERTEX
  8
20
 10
3.6720
 20
93.7290
 30
0.0000
 42
0.4142
  0
VERTEX
  8
20
 10
3.1710
 20
93.2280
 30
0.0000
 42
1.0000
  0
VERTEX
  8
20
 10
3.1730
 20
93.2280
 30
0.0000
 42
-0.4142
  0
SEQEND
  8
0
  0
POLYLINE
  8
20
 66
1
 10
0.0000
 20
0.0000
 30
0.0000
 40
0.0000
 41
0.0000
 70
1
  0
VERTEX
  8
20
 10
10.6020
 20
93.7290
 30
0.0000
 42
1.0000
  0
VERTEX
  8
20
 10
10.6020
 20
93.7270
 30
0.0000
 42
0.4142
  0
VERTEX
  8
20
 10
11.8730
 20
94.9980
 30
0.0000
 42
1.0000
  0
VERTEX
  8
20
 10
11.8710
 20
94.9980
 30
0.0000
 42
-0.4142
  0
SEQEND
  8
0
  0
POLYLINE
  8
20
 66
1
 10
0.0000
 20
0.0000
 30
0.0000
 40
0.0000
 41
0.0000
 70
1
  0
VERTEX
  8
20
 10
12.3720
 20
99.7270
 30
0.0000
 42
1.0000
  0
VERTEX
  8
20
 10
12.3720
 20
99.7290
 30
0.0000
 42
0.4142
  0
VERTEX
  8
20
 10
11.8710
 20
99.2280
 30
0.0000
 42
1.0000
  0
VERTEX
  8
20
 10
11.8730
 20
99.2280
 30
0.0000
 42
-0.4142
  0
SEQEND
  8
0
  0
POLYLINE
  8
20
 66
1
 10
0.0000
 20
0.0000
 30
0.0000
 40
0.0000
 41
0.0000
 70
1
  0
VERTEX
  8
20
 10
12.5020
 20
99.7290
 30
0.0000
 42
1.0000
  0
VERTEX
  8
20
 10
12.5020
 20
99.7270
 30
0.0000
 42
0.4142
  0
VERTEX
  8
20
 10
13.7730
 20
100.9980
 30
0.0000
 42
1.0000
  0
VERTEX
  8
20
 10
13.7710
 20
100.9980
 30
0.0000
 42
-0.4142
  0
SEQEND
  8
0
  0
POLYLINE
  8
20
 66
1
 10
0.0000
 20
0.0000
 30
0.0000
 40
0.0000
 41
0.0000
 70
1
  0
VERTEX
  8
20
 10
14.2720
 20
105.5990
 30
0.0000
 42
1.0000
  0
VERTEX
  8
20
 10
14.2720
 20
105.6010
 30
0.0000
 42
0.4142
  0
VERTEX
  8
20
 10
13.7710
 20
105.1000
 30
0.0000
 42
1.0000
  0
VERTEX
  8
20
 10
13.7730
 20
105.1000
 30
0.0000
 42
-0.4142
  0
SEQEND
  8
0
  0
POLYLINE
  8
20
 66
1
 10
0.0000
 20
0.0000
 30
0.0000
 40
0.0000
 41
0.0000
 70
1
  0
VERTEX
  8
20
 10
71.8764
 20
13.3245
 30
0.0000
 42
1.0000
  0
VERTEX
  8
20
 10
71.8765
 20
13.3225
 30
0.0000
 42
0.3780
  0
VERTEX
  8
20
 10
92.2775
 20
33.7235
 30
0.0000
 42
1.0000
  0
VERTEX
  8
20
 10
92.2755
 20
33.7236
 30
0.0000
 42
-0.3780
  0
SEQEND
  8
0
  0
POLYLINE
  8
20
 66
1
 10
0.0000
 20
0.0000
 30
0.0000
 40
0.0000
 41
0.0000
 70
1
  0
VERTEX
  8
20
 10
75.9510
 20
50.2571
 30
0.0000
 42
1.0000
  0
VERTEX
  8
20
 10
75.9490
 20
50.2571
 30
0.0000
 42
0.1989
  0
VERTEX
  8
20
 10
76.0958
 20
49.9028
 30
0.0000
 42
1.0000
  0
VERTEX
  8
20
 10
76.0972
 20
49.9043
 30
0.0000
 42
-0.1989
  0
SEQEND
  8
0
  0
POLYLINE
  8
20
 66
1
 10
0.0000
 20
0.0000
 30
0.0000
 40
0.0000
 41
0.0000
 70
1
  0
VERTEX
  8
20
 10
76.0972
 20
55.6957
 30
0.0000
 42
1.0000
  0
VERTEX
  8
20
 10
76.0958
 20
55.6972
 30
0.0000
 42
0.1989
  0
VERTEX
  8
20
 10
75.9490
 20
55.3400
 30
0.0000
 42
1.0000
  0
VERTEX
  8
20
 10
75.9510
 20
55.3400
 30
0.0000
 42
-0.1989
  0
SEQEND
  8
0
  0
POLYLINE
  8
20
 66
1
 10
0.0000
 20
0.0000
 30
0.0000
 40
0.0000
 41
0.0000
 70
1
  0
VERTEX
  8
20
 10
92.2755
 20
71.8764
 30
0.0000
 42
1.0000
  0
VERTEX
  8
20
 10
92.2775
 20
71.8765
 30
0.0000
 42
0.3780
  0
VERTEX
  8
20
 10
71.8801
 20
92.2710
 30
0.0000
 42
1.0000
  0
VERTEX
  8
20
 10
71.8799
 20
92.2690
 30
0.0000
 42
-0.3780
  0
SEQEND
  8
0
  0
POLYLINE
  8
20
 66
1
 10
0.0000
 20
0.0000
 30
0.0000
 40
0.0000
 41
0.0000
 70
1
  0
VERTEX
  8
20
 10
55.3429
 20
75.9510
 30
0.0000
 42
1.0000
  0
VERTEX
  8
20
 10
55.3429
 20
75.9490
 30
0.0000
 42
0.1989
  0
VERTEX
  8
20
 10
55.6972
 20
76.0958
 30
0.0000
 42
1.0000
  0
VERTEX
  8
20
 10
55.6957
 20
76.0972
 30
0.0000
 42
-0.1989
  0
SEQEND
  8
0
  0
POLYLINE
  8
20
 66
1
 10
0.0000
 20
0.0000
 30
0.0000
 40
0.0000
 41
0.0000
 70
1
  0
VERTEX
  8
20
 10
49.9043
 20
76.0972
 30
0.0000
 42
1.0000
  0
VERTEX
  8
20
 10
49.9028
 20
76.0958
 30
0.0000
 42
0.1989
  0
VERTEX
  8
20
 10
50.2500
 20
75.9490
 30
0.0000
 42
1.0000
  0
VERTEX
  8
20
 10
50.2500
 20
75.9510
 30
0.0000
 42
-0.1989
  0
SEQEND
  8
0
  0
POLYLINE
  8
20
 66
1
 10
0.0000
 20
0.0000
 30
0.0000
 40
0.0000
 41
0.0000
 70
1
  0
VERTEX
  8
20
 10
33.7236
 20
92.2755
 30
0.0000
 42
1.0000
  0
VERTEX
  8
20
 10
33.7235
 20
92.2775
 30
0.0000
 42
0.3780
  0
VERTEX
  8
20
 10
13.3190
 20
71.8701
 30
0.0000
 42
1.0000
  0
VERTEX
  8
20
 10
13.3210
 20
71.8699
 30
0.0000
 42
-0.3780
  0
SEQEND
  8
0
  0
POLYLINE
  8
20
 66
1
 10
0.0000
 20
0.0000
 30
0.0000
 40
0.0000
 41
0.0000
 70
1
  0
VERTEX
  8
20
 10
29.6390
 20
55.4129
 30
0.0000
 42
1.0000
  0
VERTEX
  8
20
 10
29.6410
 20
55.4129
 30
0.0000
 42
0.1989
  0
VERTEX
  8
20
 10
29.4942
 20
55.7672
 30
0.0000
 42
1.0000
  0
VERTEX
  8
20
 10
29.4928
 20
55.7657
 30
0.0000
 42
-0.1989
  0
SEQEND
  8
0
  0
POLYLINE
  8
20
 66
1
 10
0.0000
 20
0.0000
 30
0.0000
 40
0.0000
 41
0.0000
 70
1
  0
VERTEX
  8
20
 10
29.5028
 20
49.9043
 30
0.0000
 42
1.0000
  0
VERTEX
  8
20
 10
29.5042
 20
49.9028
 30
0.0000
 42
0.1989
  0
VERTEX
  8
20
 10
29.6510
 20
50.2571
 30
0.0000
 42
1.0000
  0
VERTEX
  8
20
 10
29.6490
 20
50.2571
 30
0.0000
 42
-0.1989
  0
SEQEND
  8
0
  0
POLYLINE
  8
20
 66
1
 10
0.0000
 20
0.0000
 30
0.0000
 40
0.0000
 41
0.0000
 70
1
  0
VERTEX
  8
20
 10
13.3245
 20
33.7236
 30
0.0000
 42
1.0000
  0
VERTEX
  8
20
 10
13.3225
 20
33.7235
 30
0.0000
 42
0.3780
  0
VERTEX
  8
20
 10
33.7235
 20
13.3225
 30
0.0000
 42
1.0000
  0
VERTEX
  8
20
 10
33.7236
 20
13.3245
 30
0.0000
 42
-0.3780
  0
SEQEND
  8
0
  0
POLYLINE
  8
20
 66
1
 10
0.0000
 20
0.0000
 30
0.0000
 40
0.0000
 41
0.0000
 70
1
  0
VERTEX
  8
20
 10
50.2571
 20
29.6490
 30
0.0000
 42
1.0000
  0
VERTEX
  8
20
 10
50.2571
 20
29.6510
 30
0.0000
 42
0.1989
  0
VERTEX
  8
20
 10
49.9028
 20
29.5042
 30
0.0000
 42
1.0000
  0
VERTEX
  8
20
 10
49.9043
 20
29.5028
 30
0.0000
 42
-0.1989
  0
SEQEND
  8
0
  0
POLYLINE
  8
20
 66
1
 10
0.0000
 20
0.0000
 30
0.0000
 40
0.0000
 41
0.0000
 70
1
  0
VERTEX
  8
20
 10
55.6957
 20
29.5028
 30
0.0000
 42
1.0000
  0
VERTEX
  8
20
 10
55.6972
 20
29.5042
 30
0.0000
 42
0.1989
  0
VERTEX
  8
20
 10
55.3429
 20
29.6510
 30
0.0000
 42
1.0000
  0
VERTEX
  8
20
 10
55.3429
 20
29.6490
 30
0.0000
 42
-0.1989
  0
SEQEND
  8
0
  0
POLYLINE
  8
20
 66
1
 10
0.0000
 20
0.0000
 30
0.0000
 40
0.0000
 41
0.0000
 70
1
  0
VERTEX
  8
20
 10
91.8270
 20
105.1000
 30
0.0000
  0
VERTEX
  8
20
 10
91.8270
 20
100.9980
 30
0.0000
 42
1.0000
  0
VERTEX
  8
20
 10
91.8290
 20
100.9980
 30
0.0000
  0
VERTEX
  8
20
 10
91.8290
 20
105.1000
 30
0.0000
 42
1.0000
  0
SEQEND
  8
0
  0
POLYLINE
  8
20
 66
1
 10
0.0000
 20
0.0000
 30
0.0000
 40
0.0000
 41
0.0000
 70
1
  0
VERTEX
  8
20
 10
93.0980
 20
99.7270
 30
0.0000
  0
VERTEX
  8
20
 10
93.2280
 20
99.7270
 30
0.0000
 42
1.0000
  0
VERTEX
  8
20
 10
93.2280
 20
99.7290
 30
0.0000
  0
VERTEX
  8
20
 10
93.0980
 20
99.7290
 30
0.0000
 42
1.0000
  0
SEQEND
  8
0
  0
POLYLINE
  8
20
 66
1
 10
0.0000
 20
0.0000
 30
0.0000
 40
0.0000
 41
0.0000
 70
1
  0
VERTEX
  8
20
 10
93.7270
 20
99.2280
 30
0.0000
  0
VERTEX
  8
20
 10
93.7270
 20
94.9980
 30
0.0000
 42
1.0000
  0
VERTEX
  8
20
 10
93.7290
 20
94.9980
 30
0.0000
  0
VERTEX
  8
20
 10
93.7290
 20
99.2280
 30
0.0000
 42
1.0000
  0
SEQEND
  8
0
  0
POLYLINE
  8
20
 66
1
 10
0.0000
 20
0.0000
 30
0.0000
 40
0.0000
 41
0.0000
 70
1
  0
VERTEX
  8
20
 10
94.9980
 20
93.7270
 30
0.0000
  0
VERTEX
  8
20
 10
101.9280
 20
93.7270
 30
0.0000
 42
1.0000
  0
VERTEX
  8
20
 10
101.9280
 20
93.7290
 30
0.0000
  0
VERTEX
  8
20
 10
94.9980
 20
93.7290
 30
0.0000
 42
1.0000
  0
SEQEND
  8
0
  0
POLYLINE
  8
20
 66
1
 10
0.0000
 20
0.0000
 30
0.0000
 40
0.0000
 41
0.0000
 70
1
  0
VERTEX
  8
20
 10
102.4270
 20
93.2280
 30
0.0000
  0
VERTEX
  8
20
 10
102.4270
 20
93.1980
 30
0.0000
 42
1.0000
  0
VERTEX
  8
20
 10
102.4290
 20
93.1980
 30
0.0000
  0
VERTEX
  8
20
 10
102.4290
 20
93.2280
 30
0.0000
 42
1.0000
  0
SEQEND
  8
0
  0
POLYLINE
  8
20
 66
1
 10
0.0000
 20
0.0000
 30
0.0000
 40
0.0000
 41
0.0000
 70
1
  0
VERTEX
  8
20
 10
103.6980
 20
91.9270
 30
0.0000
  0
VERTEX
  8
20
 10
105.1000
 20
91.9270
 30
0.0000
 42
1.0000
  0
VERTEX
  8
20
 10
105.1000
 20
91.9290
 30
0.0000
  0
VERTEX
  8
20
 10
103.6980
 20
91.9290
 30
0.0000
 42
1.0000
  0
SEQEND
  8
0
  0
POLYLINE
  8
20
 66
1
 10
0.0000
 20
0.0000
 30
0.0000
 40
0.0000
 41
0.0000
 70
1
  0
VERTEX
  8
20
 10
105.6010
 20
14.1720
 30
0.0000
  0
VERTEX
  8
20
 10
105.6010
 20
91.4280
 30
0.0000
 42
1.0000
  0
VERTEX
  8
20
 10
105.5990
 20
91.4280
 30
0.0000
  0
VERTEX
  8
20
 10
105.5990
 20
14.1720
 30
0.0000
 42
1.0000
  0
SEQEND
  8
0
  0
POLYLINE
  8
20
 66
1
 10
0.0000
 20
0.0000
 30
0.0000
 40
0.0000
 41
0.0000
 70
1
  0
VERTEX
  8
20
 10
103.6980
 20
13.6710
 30
0.0000
  0
VERTEX
  8
20
 10
105.1000
 20
13.6710
 30
0.0000
 42
1.0000
  0
VERTEX
  8
20
 10
105.1000
 20
13.6730
 30
0.0000
  0
VERTEX
  8
20
 10
103.6980
 20
13.6730
 30
0.0000
 42
1.0000
  0
SEQEND
  8
0
  0
POLYLINE
  8
20
 66
1
 10
0.0000
 20
0.0000
 30
0.0000
 40
0.0000
 41
0.0000
 70
1
  0
VERTEX
  8
20
 10
102.4290
 20
12.3720
 30
0.0000
  0
VERTEX
  8
20
 10
102.4290
 20
12.4020
 30
0.0000
 42
1.0000
  0
VERTEX
  8
20
 10
102.4270
 20
12.4020
 30
0.0000
  0
VERTEX
  8
20
 10
102.4270
 20
12.3720
 30
0.0000
 42
1.0000
  0
SEQEND
  8
0
  0
POLYLINE
  8
20
 66
1
 10
0.0000
 20
0.0000
 30
0.0000
 40
0.0000
 41
0.0000
 70
1
  0
VERTEX
  8
20
 10
94.9980
 20
11.8710
 30
0.0000
  0
VERTEX
  8
20
 10
101.9280
 20
11.8710
 30
0.0000
 42
1.0000
  0
VERTEX
  8
20
 10
101.9280
 20
11.8730
 30
0.0000
  0
VERTEX
  8
20
 10
94.9980
 20
11.8730
 30
0.0000
 42
1.0000
  0
SEQEND
  8
0
  0
POLYLINE
  8
20
 66
1
 10
0.0000
 20
0.0000
 30
0.0000
 40
0.0000
 41
0.0000
 70
1
  0
VERTEX
  8
20
 10
93.7290
 20
6.3720
 30
0.0000
  0
VERTEX
  8
20
 10
93.7290
 20
10.6020
 30
0.0000
 42
1.0000
  0
VERTEX
  8
20
 10
93.7270
 20
10.6020
 30
0.0000
  0
VERTEX
  8
20
 10
93.7270
 20
6.3720
 30
0.0000
 42
1.0000
  0
SEQEND
  8
0
  0
POLYLINE
  8
20
 66
1
 10
0.0000
 20
0.0000
 30
0.0000
 40
0.0000
 41
0.0000
 70
1
  0
VERTEX
  8
20
 10
93.0980
 20
5.8710
 30
0.0000
  0
VERTEX
  8
20
 10
93.2280
 20
5.8710
 30
0.0000
 42
1.0000
  0
VERTEX
  8
20
 10
93.2280
 20
5.8730
 30
0.0000
  0
VERTEX
  8
20
 10
93.0980
 20
5.8730
 30
0.0000
 42
1.0000
  0
SEQEND
  8
0
  0
POLYLINE
  8
20
 66
1
 10
0.0000
 20
0.0000
 30
0.0000
 40
0.0000
 41
0.0000
 70
1
  0
VERTEX
  8
20
 10
14.2720
 20
-0.0010
 30
0.0000
  0
VERTEX
  8
20
 10
91.3280
 20
-0.0010
 30
0.0000
 42
1.0000
  0
VERTEX
  8
20
 10
91.3280
 20
0.0010
 30
0.0000
  0
VERTEX
  8
20
 10
14.2720
 20
0.0010
 30
0.0000
 42
1.0000
  0
SEQEND
  8
0
  0
POLYLINE
  8
20
 66
1
 10
0.0000
 20
0.0000
 30
0.0000
 40
0.0000
 41
0.0000
 70
1
  0
VERTEX
  8
20
 10
12.5020
 20
5.8730
 30
0.0000
  0
VERTEX
  8
20
 10
12.3720
 20
5.8730
 30
0.0000
 42
1.0000
  0
VERTEX
  8
20
 10
12.3720
 20
5.8710
 30
0.0000
  0
VERTEX
  8
20
 10
12.5020
 20
5.8710
 30
0.0000
 42
1.0000
  0
SEQEND
  8
0
  0
POLYLINE
  8
20
 66
1
 10
0.0000
 20
0.0000
 30
0.0000
 40
0.0000
 41
0.0000
 70
1
  0
VERTEX
  8
20
 10
11.8730
 20
6.3720
 30
0.0000
  0
VERTEX
  8
20
 10
11.8730
 20
10.6020
 30
0.0000
 42
1.0000
  0
VERTEX
  8
20
 10
11.8710
 20
10.6020
 30
0.0000
  0
VERTEX
  8
20
 10
11.8710
 20
6.3720
 30
0.0000
 42
1.0000
  0
SEQEND
  8
0
  0
POLYLINE
  8
20
 66
1
 10
0.0000
 20
0.0000
 30
0.0000
 40
0.0000
 41
0.0000
 70
1
  0
VERTEX
  8
20
 10
10.6020
 20
11.8730
 30
0.0000
  0
VERTEX
  8
20
 10
3.6720
 20
11.8730
 30
0.0000
 42
1.0000
  0
VERTEX
  8
20
 10
3.6720
 20
11.8710
 30
0.0000
  0
VERTEX
  8
20
 10
10.6020
 20
11.8710
 30
0.0000
 42
1.0000
  0
SEQEND
  8
0
  0
POLYLINE
  8
20
 66
1
 10
0.0000
 20
0.0000
 30
0.0000
 40
0.0000
 41
0.0000
 70
1
  0
VERTEX
  8
20
 10
3.1730
 20
12.3720
 30
0.0000
  0
VERTEX
  8
20
 10
3.1730
 20
12.4020
 30
0.0000
 42
1.0000
  0
VERTEX
  8
20
 10
3.1710
 20
12.4020
 30
0.0000
  0
VERTEX
  8
20
 10
3.1710
 20
12.3720
 30
0.0000
 42
1.0000
  0
SEQEND
  8
0
  0
POLYLINE
  8
20
 66
1
 10
0.0000
 20
0.0000
 30
0.0000
 40
0.0000
 41
0.0000
 70
1
  0
VERTEX
  8
20
 10
-0.0010
 20
91.4280
 30
0.0000
  0
VERTEX
  8
20
 10
-0.0010
 20
14.1720
 30
0.0000
 42
1.0000
  0
VERTEX
  8
20
 10
0.0010
 20
14.1720
 30
0.0000
  0
VERTEX
  8
20
 10
0.0010
 20
91.4280
 30
0.0000
 42
1.0000
  0
SEQEND
  8
0
  0
POLYLINE
  8
20
 66
1
 10
0.0000
 20
0.0000
 30
0.0000
 40
0.0000
 41
0.0000
 70
1
  0
VERTEX
  8
20
 10
3.1710
 20
93.2280
 30
0.0000
  0
VERTEX
  8
20
 10
3.1710
 20
93.1980
 30
0.0000
 42
1.0000
  0
VERTEX
  8
20
 10
3.1730
 20
93.1980
 30
0.0000
  0
VERTEX
  8
20
 10
3.1730
 20
93.2280
 30
0.0000
 42
1.0000
  0
SEQEND
  8
0
  0
POLYLINE
  8
20
 66
1
 10
0.0000
 20
0.0000
 30
0.0000
 40
0.0000
 41
0.0000
 70
1
  0
VERTEX
  8
20
 10
10.6020
 20
93.7290
 30
0.0000
  0
VERTEX
  8
20
 10
3.6720
 20
93.7290
 30
0.0000
 42
1.0000
  0
VERTEX
  8
20
 10
3.6720
 20
93.7270
 30
0.0000
  0
VERTEX
  8
20
 10
10.6020
 20
93.7270
 30
0.0000
 42
1.0000
  0
SEQEND
  8
0
  0
POLYLINE
  8
20
 66
1
 10
0.0000
 20
0.0000
 30
0.0000
 40
0.0000
 41
0.0000
 70
1
  0
VERTEX
  8
20
 10
11.8710
 20
99.2280
 30
0.0000
  0
VERTEX
  8
20
 10
11.8710
 20
94.9980
 30
0.0000
 42
1.0000
  0
VERTEX
  8
20
 10
11.8730
 20
94.9980
 30
0.0000
  0
VERTEX
  8
20
 10
11.8730
 20
99.2280
 30
0.0000
 42
1.0000
  0
SEQEND
  8
0
  0
POLYLINE
  8
20
 66
1
 10
0.0000
 20
0.0000
 30
0.0000
 40
0.0000
 41
0.0000
 70
1
  0
VERTEX
  8
20
 10
12.5020
 20
99.7290
 30
0.0000
  0
VERTEX
  8
20
 10
12.3720
 20
99.7290
 30
0.0000
 42
1.0000
  0
VERTEX
  8
20
 10
12.3720
 20
99.7270
 30
0.0000
  0
VERTEX
  8
20
 10
12.5020
 20
99.7270
 30
0.0000
 42
1.0000
  0
SEQEND
  8
0
  0
POLYLINE
  8
20
 66
1
 10
0.0000
 20
0.0000
 30
0.0000
 40
0.0000
 41
0.0000
 70
1
  0
VERTEX
  8
20
 10
13.7710
 20
105.1000
 30
0.0000
  0
VERTEX
  8
20
 10
13.7710
 20
100.9980
 30
0.0000
 42
1.0000
  0
VERTEX
  8
20
 10
13.7730
 20
100.9980
 30
0.0000
  0
VERTEX
  8
20
 10
13.7730
 20
105.1000
 30
0.0000
 42
1.0000
  0
SEQEND
  8
0
  0
POLYLINE
  8
20
 66
1
 10
0.0000
 20
0.0000
 30
0.0000
 40
0.0000
 41
0.0000
 70
1
  0
VERTEX
  8
20
 10
91.3280
 20
105.6010
 30
0.0000
  0
VERTEX
  8
20
 10
14.2720
 20
105.6010
 30
0.0000
 42
1.0000
  0
VERTEX
  8
20
 10
14.2720
 20
105.5990
 30
0.0000
  0
VERTEX
  8
20
 10
91.3280
 20
105.5990
 30
0.0000
 42
1.0000
  0
SEQEND
  8
0
  0
POLYLINE
  8
20
 66
1
 10
0.0000
 20
0.0000
 30
0.0000
 40
0.0000
 41
0.0000
 70
1
  0
VERTEX
  8
20
 10
92.2772
 20
33.7243
 30
0.0000
  0
VERTEX
  8
20
 10
76.0972
 20
49.9043
 30
0.0000
 42
1.0000
  0
VERTEX
  8
20
 10
76.0958
 20
49.9028
 30
0.0000
  0
VERTEX
  8
20
 10
92.2758
 20
33.7229
 30
0.0000
 42
1.0000
  0
SEQEND
  8
0
  0
POLYLINE
  8
20
 66
1
 10
0.0000
 20
0.0000
 30
0.0000
 40
0.0000
 41
0.0000
 70
1
  0
VERTEX
  8
20
 10
75.9510
 20
50.2571
 30
0.0000
  0
VERTEX
  8
20
 10
75.9510
 20
55.3400
 30
0.0000
 42
1.0000
  0
VERTEX
  8
20
 10
75.9490
 20
55.3400
 30
0.0000
  0
VERTEX
  8
20
 10
75.9490
 20
50.2571
 30
0.0000
 42
1.0000
  0
SEQEND
  8
0
  0
POLYLINE
  8
20
 66
1
 10
0.0000
 20
0.0000
 30
0.0000
 40
0.0000
 41
0.0000
 70
1
  0
VERTEX
  8
20
 10
76.0972
 20
55.6957
 30
0.0000
  0
VERTEX
  8
20
 10
92.2772
 20
71.8757
 30
0.0000
 42
1.0000
  0
VERTEX
  8
20
 10
92.2758
 20
71.8771
 30
0.0000
  0
VERTEX
  8
20
 10
76.0958
 20
55.6972
 30
0.0000
 42
1.0000
  0
SEQEND
  8
0
  0
POLYLINE
  8
20
 66
1
 10
0.0000
 20
0.0000
 30
0.0000
 40
0.0000
 41
0.0000
 70
1
  0
VERTEX
  8
20
 10
71.8793
 20
92.2707
 30
0.0000
  0
VERTEX
  8
20
 10
55.6957
 20
76.0972
 30
0.0000
 42
1.0000
  0
VERTEX
  8
20
 10
55.6972
 20
76.0958
 30
0.0000
  0
VERTEX
  8
20
 10
71.8807
 20
92.2693
 30
0.0000
 42
1.0000
  0
SEQEND
  8
0
  0
POLYLINE
  8
20
 66
1
 10
0.0000
 20
0.0000
 30
0.0000
 40
0.0000
 41
0.0000
 70
1
  0
VERTEX
  8
20
 10
55.3429
 20
75.9510
 30
0.0000
  0
VERTEX
  8
20
 10
50.2500
 20
75.9510
 30
0.0000
 42
1.0000
  0
VERTEX
  8
20
 10
50.2500
 20
75.9490
 30
0.0000
  0
VERTEX
  8
20
 10
55.3429
 20
75.9490
 30
0.0000
 42
1.0000
  0
SEQEND
  8
0
  0
POLYLINE
  8
20
 66
1
 10
0.0000
 20
0.0000
 30
0.0000
 40
0.0000
 41
0.0000
 70
1
  0
VERTEX
  8
20
 10
49.9043
 20
76.0972
 30
0.0000
  0
VERTEX
  8
20
 10
33.7243
 20
92.2772
 30
0.0000
 42
1.0000
  0
VERTEX
  8
20
 10
33.7229
 20
92.2758
 30
0.0000
  0
VERTEX
  8
20
 10
49.9028
 20
76.0958
 30
0.0000
 42
1.0000
  0
SEQEND
  8
0
  0
POLYLINE
  8
20
 66
1
 10
0.0000
 20
0.0000
 30
0.0000
 40
0.0000
 41
0.0000
 70
1
  0
VERTEX
  8
20
 10
13.3193
 20
71.8693
 30
0.0000
  0
VERTEX
  8
20
 10
29.4928
 20
55.7657
 30
0.0000
 42
1.0000
  0
VERTEX
  8
20
 10
29.4942
 20
55.7672
 30
0.0000
  0
VERTEX
  8
20
 10
13.3207
 20
71.8707
 30
0.0000
 42
1.0000
  0
SEQEND
  8
0
  0
POLYLINE
  8
20
 66
1
 10
0.0000
 20
0.0000
 30
0.0000
 40
0.0000
 41
0.0000
 70
1
  0
VERTEX
  8
20
 10
29.6390
 20
55.4129
 30
0.0000
  0
VERTEX
  8
20
 10
29.6490
 20
50.2571
 30
0.0000
 42
1.0000
  0
VERTEX
  8
20
 10
29.6510
 20
50.2571
 30
0.0000
  0
VERTEX
  8
20
 10
29.6410
 20
55.4129
 30
0.0000
 42
1.0000
  0
SEQEND
  8
0
  0
POLYLINE
  8
20
 66
1
 10
0.0000
 20
0.0000
 30
0.0000
 40
0.0000
 41
0.0000
 70
1
  0
VERTEX
  8
20
 10
29.5028
 20
49.9043
 30
0.0000
  0
VERTEX
  8
20
 10
13.3228
 20
33.7243
 30
0.0000
 42
1.0000
  0
VERTEX
  8
20
 10
13.3242
 20
33.7229
 30
0.0000
  0
VERTEX
  8
20
 10
29.5042
 20
49.9028
 30
0.0000
 42
1.0000
  0
SEQEND
  8
0
  0
POLYLINE
  8
20
 66
1
 10
0.0000
 20
0.0000
 30
0.0000
 40
0.0000
 41
0.0000
 70
1
  0
VERTEX
  8
20
 10
33.7243
 20
13.3228
 30
0.0000
  0
VERTEX
  8
20
 10
49.9043
 20
29.5028
 30
0.0000
 42
1.0000
  0
VERTEX
  8
20
 10
49.9028
 20
29.5042
 30
0.0000
  0
VERTEX
  8
20
 10
33.7229
 20
13.3242
 30
0.0000
 42
1.0000
  0
SEQEND
  8
0
  0
POLYLINE
  8
20
 66
1
 10
0.0000
 20
0.0000
 30
0.0000
 40
0.0000
 41
0.0000
 70
1
  0
VERTEX
  8
20
 10
50.2571
 20
29.6490
 30
0.0000
  0
VERTEX
  8
20
 10
55.3429
 20
29.6490
 30
0.0000
 42
1.0000
  0
VERTEX
  8
20
 10
55.3429
 20
29.6510
 30
0.0000
  0
VERTEX
  8
20
 10
50.2571
 20
29.6510
 30
0.0000
 42
1.0000
  0
SEQEND
  8
0
  0
POLYLINE
  8
20
 66
1
 10
0.0000
 20
0.0000
 30
0.0000
 40
0.0000
 41
0.0000
 70
1
  0
VERTEX
  8
20
 10
55.6957
 20
29.5028
 30
0.0000
  0
VERTEX
  8
20
 10
71.8757
 20
13.3228
 30
0.0000
 42
1.0000
  0
VERTEX
  8
20
 10
71.8771
 20
13.3242
 30
0.0000
  0
VERTEX
  8
20
 10
55.6972
 20
29.5042
 30
0.0000
 42
1.0000
  0
SEQEND
  8
0
  0
POLYLINE
  8
20
 66
1
 10
0.0000
 20
0.0000
 30
0.0000
 40
0.0000
 41
0.0000
 70
1
  0
VERTEX
  8
20
 10
1.9020
 20
91.9290
 30
0.0000
  0
VERTEX
  8
20
 10
0.5000
 20
91.9290
 30
0.0000
 42
1.0000
  0
VERTEX
  8
20
 10
0.5000
 20
91.9270
 30
0.0000
  0
VERTEX
  8
20
 10
1.9020
 20
91.9270
 30
0.0000
 42
1.0000
  0
SEQEND
  8
0
  0
POLYLINE
  8
20
 66
1
 10
0.0000
 20
0.0000
 30
0.0000
 40
0.0000
 41
0.0000
 70
1
  0
VERTEX
  8
20
 10
1.9020
 20
13.6730
 30
0.0000
  0
VERTEX
  8
20
 10
0.5000
 20
13.6730
 30
0.0000
 42
1.0000
  0
VERTEX
  8
20
 10
0.5000
 20
13.6710
 30
0.0000
  0
VERTEX
  8
20
 10
1.9020
 20
13.6710
 30
0.0000
 42
1.0000
  0
SEQEND
  8
0
  0
POLYLINE
  8
20
 66
1
 10
0.0000
 20
0.0000
 30
0.0000
 40
0.0000
 41
0.0000
 70
1
  0
VERTEX
  8
20
 10
13.7730
 20
0.5000
 30
0.0000
  0
VERTEX
  8
20
 10
13.7730
 20
4.6020
 30
0.0000
 42
1.0000
  0
VERTEX
  8
20
 10
13.7710
 20
4.6020
 30
0.0000
  0
VERTEX
  8
20
 10
13.7710
 20
0.5000
 30
0.0000
 42
1.0000
  0
SEQEND
  8
0
  0
POLYLINE
  8
20
 66
1
 10
0.0000
 20
0.0000
 30
0.0000
 40
0.0000
 41
0.0000
 70
1
  0
VERTEX
  8
20
 10
91.8290
 20
0.5000
 30
0.0000
  0
VERTEX
  8
20
 10
91.8290
 20
4.6020
 30
0.0000
 42
1.0000
  0
VERTEX
  8
20
 10
91.8270
 20
4.6020
 30
0.0000
  0
VERTEX
  8
20
 10
91.8270
 20
0.5000
 30
0.0000
 42
1.0000
  0
SEQEND
  8
0
  0
POLYLINE
  8
20
 66
1
 10
0.0000
 20
0.0000
 30
0.0000
 40
0.0000
 41
0.0000
 70
1
  0
VERTEX
  8
20
 10
91.8270
 20
105.1000
 30
0.0000
 42
1.0000
  0
VERTEX
  8
20
 10
91.8290
 20
105.1000
 30
0.0000
 42
0.4142
  0
VERTEX
  8
20
 10
91.3280
 20
105.6010
 30
0.0000
 42
1.0000
  0
VERTEX
  8
20
 10
91.3280
 20
105.5990
 30
0.0000
 42
-0.4142
  0
SEQEND
  8
0
  0
POLYLINE
  8
20
 66
1
 10
0.0000
 20
0.0000
 30
0.0000
 40
0.0000
 41
0.0000
 70
1
  0
VERTEX
  8
20
 10
91.8290
 20
100.9980
 30
0.0000
 42
1.0000
  0
VERTEX
  8
20
 10
91.8270
 20
100.9980
 30
0.0000
 42
0.4142
  0
VERTEX
  8
20
 10
93.0980
 20
99.7270
 30
0.0000
 42
1.0000
  0
VERTEX
  8
20
 10
93.0980
 20
99.7290
 30
0.0000
 42
-0.4142
  0
SEQEND
  8
0
  0
POLYLINE
  8
20
 66
1
 10
0.0000
 20
0.0000
 30
0.0000
 40
0.0000
 41
0.0000
 70
1
  0
VERTEX
  8
20
 10
93.7270
 20
99.2280
 30
0.0000
 42
1.0000
  0
VERTEX
  8
20
 10
93.7290
 20
99.2280
 30
0.0000
 42
0.4142
  0
VERTEX
  8
20
 10
93.2280
 20
99.7290
 30
0.0000
 42
1.0000
  0
VERTEX
  8
20
 10
93.2280
 20
99.7270
 30
0.0000
 42
-0.4142
  0
SEQEND
  8
0
  0
POLYLINE
  8
20
 66
1
 10
0.0000
 20
0.0000
 30
0.0000
 40
0.0000
 41
0.0000
 70
1
  0
VERTEX
  8
20
 10
93.7290
 20
94.9980
 30
0.0000
 42
1.0000
  0
VERTEX
  8
20
 10
93.7270
 20
94.9980
 30
0.0000
 42
0.4142
  0
VERTEX
  8
20
 10
94.9980
 20
93.7270
 30
0.0000
 42
1.0000
  0
VERTEX
  8
20
 10
94.9980
 20
93.7290
 30
0.0000
 42
-0.4142
  0
SEQEND
  8
0
  0
POLYLINE
  8
20
 66
1
 10
0.0000
 20
0.0000
 30
0.0000
 40
0.0000
 41
0.0000
 70
1
  0
VERTEX
  8
20
 10
102.4270
 20
93.2280
 30
0.0000
 42
1.0000
  0
VERTEX
  8
20
 10
102.4290
 20
93.2280
 30
0.0000
 42
0.4142
  0
VERTEX
  8
20
 10
101.9280
 20
93.7290
 30
0.0000
 42
1.0000
  0
VERTEX
  8
20
 10
101.9280
 20
93.7270
 30
0.0000
 42
-0.4142
  0
SEQEND
  8
0
  0
POLYLINE
  8
20
 66
1
 10
0.0000
 20
0.0000
 30
0.0000
 40
0.0000
 41
0.0000
 70
1
  0
VERTEX
  8
20
 10
102.4290
 20
93.1980
 30
0.0000
 42
1.0000
  0
VERTEX
  8
20
 10
102.4270
 20
93.1980
 30
0.0000
 42
0.4142
  0
VERTEX
  8
20
 10
103.6980
 20
91.9270
 30
0.0000
 42
1.0000
  0
VERTEX
  8
20
 10
103.6980
 20
91.9290
 30
0.0000
 42
-0.4142
  0
SEQEND
  8
0
  0
POLYLINE
  8
20
 66
1
 10
0.0000
 20
0.0000
 30
0.0000
 40
0.0000
 41
0.0000
 70
1
  0
VERTEX
  8
20
 10
105.5990
 20
91.4280
 30
0.0000
 42
1.0000
  0
VERTEX
  8
20
 10
105.6010
 20
91.4280
 30
0.0000
 42
0.4142
  0
VERTEX
  8
20
 10
105.1000
 20
91.9290
 30
0.0000
 42
1.0000
  0
VERTEX
  8
20
 10
105.1000
 20
91.9270
 30
0.0000
 42
-0.4142
  0
SEQEND
  8
0
  0
POLYLINE
  8
20
 66
1
 10
0.0000
 20
0.0000
 30
0.0000
 40
0.0000
 41
0.0000
 70
1
  0
VERTEX
  8
20
 10
105.1000
 20
13.6730
 30
0.0000
 42
1.0000
  0
VERTEX
  8
20
 10
105.1000
 20
13.6710
 30
0.0000
 42
0.4142
  0
VERTEX
  8
20
 10
105.6010
 20
14.1720
 30
0.0000
 42
1.0000
  0
VERTEX
  8
20
 10
105.5990
 20
14.1720
 30
0.0000
 42
-0.4142
  0
SEQEND
  8
0
  0
POLYLINE
  8
20
 66
1
 10
0.0000
 20
0.0000
 30
0.0000
 40
0.0000
 41
0.0000
 70
1
  0
VERTEX
  8
20
 10
103.6980
 20
13.6710
 30
0.0000
 42
1.0000
  0
VERTEX
  8
20
 10
103.6980
 20
13.6730
 30
0.0000
 42
0.4142
  0
VERTEX
  8
20
 10
102.4270
 20
12.4020
 30
0.0000
 42
1.0000
  0
VERTEX
  8
20
 10
102.4290
 20
12.4020
 30
0.0000
 42
-0.4142
  0
SEQEND
  8
0
  0
POLYLINE
  8
20
 66
1
 10
0.0000
 20
0.0000
 30
0.0000
 40
0.0000
 41
0.0000
 70
1
  0
VERTEX
  8
20
 10
101.9280
 20
11.8730
 30
0.0000
 42
1.0000
  0
VERTEX
  8
20
 10
101.9280
 20
11.8710
 30
0.0000
 42
0.4142
  0
VERTEX
  8
20
 10
102.4290
 20
12.3720
 30
0.0000
 42
1.0000
  0
VERTEX
  8
20
 10
102.4270
 20
12.3720
 30
0.0000
 42
-0.4142
  0
SEQEND
  8
0
  0
POLYLINE
  8
20
 66
1
 10
0.0000
 20
0.0000
 30
0.0000
 40
0.0000
 41
0.0000
 70
1
  0
VERTEX
  8
20
 10
94.9980
 20
11.8710
 30
0.0000
 42
1.0000
  0
VERTEX
  8
20
 10
94.9980
 20
11.8730
 30
0.0000
 42
0.4142
  0
VERTEX
  8
20
 10
93.7270
 20
10.6020
 30
0.0000
 42
1.0000
  0
VERTEX
  8
20
 10
93.7290
 20
10.6020
 30
0.0000
 42
-0.4142
  0
SEQEND
  8
0
  0
POLYLINE
  8
20
 66
1
 10
0.0000
 20
0.0000
 30
0.0000
 40
0.0000
 41
0.0000
 70
1
  0
VERTEX
  8
20
 10
93.2280
 20
5.8730
 30
0.0000
 42
1.0000
  0
VERTEX
  8
20
 10
93.2280
 20
5.8710
 30
0.0000
 42
0.4142
  0
VERTEX
  8
20
 10
93.7290
 20
6.3720
 30
0.0000
 42
1.0000
  0
VERTEX
  8
20
 10
93.7270
 20
6.3720
 30
0.0000
 42
-0.4142
  0
SEQEND
  8
0
  0
POLYLINE
  8
20
 66
1
 10
0.0000
 20
0.0000
 30
0.0000
 40
0.0000
 41
0.0000
 70
1
  0
VERTEX
  8
20
 10
93.0980
 20
5.8710
 30
0.0000
 42
1.0000
  0
VERTEX
  8
20
 10
93.0980
 20
5.8730
 30
0.0000
 42
0.4142
  0
VERTEX
  8
20
 10
91.8270
 20
4.6020
 30
0.0000
 42
1.0000
  0
VERTEX
  8
20
 10
91.8290
 20
4.6020
 30
0.0000
 42
-0.4142
  0
SEQEND
  8
0
  0
POLYLINE
  8
20
 66
1
 10
0.0000
 20
0.0000
 30
0.0000
 40
0.0000
 41
0.0000
 70
1
  0
VERTEX
  8
20
 10
91.3280
 20
0.0010
 30
0.0000
 42
1.0000
  0
VERTEX
  8
20
 10
91.3280
 20
-0.0010
 30
0.0000
 42
0.4142
  0
VERTEX
  8
20
 10
91.8290
 20
0.5000
 30
0.0000
 42
1.0000
  0
VERTEX
  8
20
 10
91.8270
 20
0.5000
 30
0.0000
 42
-0.4142
  0
SEQEND
  8
0
  0
POLYLINE
  8
20
 66
1
 10
0.0000
 20
0.0000
 30
0.0000
 40
0.0000
 41
0.0000
 70
1
  0
VERTEX
  8
20
 10
13.7730
 20
0.5000
 30
0.0000
 42
1.0000
  0
VERTEX
  8
20
 10
13.7710
 20
0.5000
 30
0.0000
 42
0.4142
  0
VERTEX
  8
20
 10
14.2720
 20
-0.0010
 30
0.0000
 42
1.0000
  0
VERTEX
  8
20
 10
14.2720
 20
0.0010
 30
0.0000
 42
-0.4142
  0
SEQEND
  8
0
  0
POLYLINE
  8
20
 66
1
 10
0.0000
 20
0.0000
 30
0.0000
 40
0.0000
 41
0.0000
 70
1
  0
VERTEX
  8
20
 10
13.7710
 20
4.6020
 30
0.0000
 42
1.0000
  0
VERTEX
  8
20
 10
13.7730
 20
4.6020
 30
0.0000
 42
0.4142
  0
VERTEX
  8
20
 10
12.5020
 20
5.8730
 30
0.0000
 42
1.0000
  0
VERTEX
  8
20
 10
12.5020
 20
5.8710
 30
0.0000
 42
-0.4142
  0
SEQEND
  8
0
  0
POLYLINE
  8
20
 66
1
 10
0.0000
 20
0.0000
 30
0.0000
 40
0.0000
 41
0.0000
 70
1
  0
VERTEX
  8
20
 10
11.8730
 20
6.3720
 30
0.0000
 42
1.0000
  0
VERTEX
  8
20
 10
11.8710
 20
6.3720
 30
0.0000
 42
0.4142
  0
VERTEX
  8
20
 10
12.3720
 20
5.8710
 30
0.0000
 42
1.0000
  0
VERTEX
  8
20
 10
12.3720
 20
5.8730
 30
0.0000
 42
-0.4142
  0
SEQEND
  8
0
  0
POLYLINE
  8
20
 66
1
 10
0.0000
 20
0.0000
 30
0.0000
 40
0.0000
 41
0.0000
 70
1
  0
VERTEX
  8
20
 10
11.8710
 20
10.6020
 30
0.0000
 42
1.0000
  0
VERTEX
  8
20
 10
11.8730
 20
10.6020
 30
0.0000
 42
0.4142
  0
VERTEX
  8
20
 10
10.6020
 20
11.8730
 30
0.0000
 42
1.0000
  0
VERTEX
  8
20
 10
10.6020
 20
11.8710
 30
0.0000
 42
-0.4142
  0
SEQEND
  8
0
  0
POLYLINE
  8
20
 66
1
 10
0.0000
 20
0.0000
 30
0.0000
 40
0.0000
 41
0.0000
 70
1
  0
VERTEX
  8
20
 10
3.1730
 20
12.3720
 30
0.0000
 42
1.0000
  0
VERTEX
  8
20
 10
3.1710
 20
12.3720
 30
0.0000
 42
0.4142
  0
VERTEX
  8
20
 10
3.6720
 20
11.8710
 30
0.0000
 42
1.0000
  0
VERTEX
  8
20
 10
3.6720
 20
11.8730
 30
0.0000
 42
-0.4142
  0
SEQEND
  8
0
  0
POLYLINE
  8
20
 66
1
 10
0.0000
 20
0.0000
 30
0.0000
 40
0.0000
 41
0.0000
 70
1
  0
VERTEX
  8
20
 10
3.1710
 20
12.4020
 30
0.0000
 42
1.0000
  0
VERTEX
  8
20
 10
3.1730
 20
12.4020
 30
0.0000
 42
0.4142
  0
VERTEX
  8
20
 10
1.9020
 20
13.6730
 30
0.0000
 42
1.0000
  0
VERTEX
  8
20
 10
1.9020
 20
13.6710
 30
0.0000
 42
-0.4142
  0
SEQEND
  8
0
  0
POLYLINE
  8
20
 66
1
 10
0.0000
 20
0.0000
 30
0.0000
 40
0.0000
 41
0.0000
 70
1
  0
VERTEX
  8
20
 10
0.0010
 20
14.1720
 30
0.0000
 42
1.0000
  0
VERTEX
  8
20
 10
-0.0010
 20
14.1720
 30
0.0000
 42
0.4142
  0
VERTEX
  8
20
 10
0.5000
 20
13.6710
 30
0.0000
 42
1.0000
  0
VERTEX
  8
20
 10
0.5000
 20
13.6730
 30
0.0000
 42
-0.4142
  0
SEQEND
  8
0
  0
POLYLINE
  8
20
 66
1
 10
0.0000
 20
0.0000
 30
0.0000
 40
0.0000
 41
0.0000
 70
1
  0
VERTEX
  8
20
 10
0.5000
 20
91.9270
 30
0.0000
 42
1.0000
  0
VERTEX
  8
20
 10
0.5000
 20
91.9290
 30
0.0000
 42
0.4142
  0
VERTEX
  8
20
 10
-0.0010
 20
91.4280
 30
0.0000
 42
1.0000
  0
VERTEX
  8
20
 10
0.0010
 20
91.4280
 30
0.0000
 42
-0.4142
  0
SEQEND
  8
0
  0
POLYLINE
  8
20
 66
1
 10
0.0000
 20
0.0000
 30
0.0000
 40
0.0000
 41
0.0000
 70
1
  0
VERTEX
  8
20
 10
1.9020
 20
91.9290
 30
0.0000
 42
1.0000
  0
VERTEX
  8
20
 10
1.9020
 20
91.9270
 30
0.0000
 42
0.4142
  0
VERTEX
  8
20
 10
3.1730
 20
93.1980
 30
0.0000
 42
1.0000
  0
VERTEX
  8
20
 10
3.1710
 20
93.1980
 30
0.0000
 42
-0.4142
  0
SEQEND
  8
0
  0
POLYLINE
  8
20
 66
1
 10
0.0000
 20
0.0000
 30
0.0000
 40
0.0000
 41
0.0000
 70
1
  0
VERTEX
  8
20
 10
3.6720
 20
93.7270
 30
0.0000
 42
1.0000
  0
VERTEX
  8
20
 10
3.6720
 20
93.7290
 30
0.0000
 42
0.4142
  0
VERTEX
  8
20
 10
3.1710
 20
93.2280
 30
0.0000
 42
1.0000
  0
VERTEX
  8
20
 10
3.1730
 20
93.2280
 30
0.0000
 42
-0.4142
  0
SEQEND
  8
0
  0
POLYLINE
  8
20
 66
1
 10
0.0000
 20
0.0000
 30
0.0000
 40
0.0000
 41
0.0000
 70
1
  0
VERTEX
  8
20
 10
10.6020
 20
93.7290
 30
0.0000
 42
1.0000
  0
VERTEX
  8
20
 10
10.6020
 20
93.7270
 30
0.0000
 42
0.4142
  0
VERTEX
  8
20
 10
11.8730
 20
94.9980
 30
0.0000
 42
1.0000
  0
VERTEX
  8
20
 10
11.8710
 20
94.9980
 30
0.0000
 42
-0.4142
  0
SEQEND
  8
0
  0
POLYLINE
  8
20
 66
1
 10
0.0000
 20
0.0000
 30
0.0000
 40
0.0000
 41
0.0000
 70
1
  0
VERTEX
  8
20
 10
12.3720
 20
99.7270
 30
0.0000
 42
1.0000
  0
VERTEX
  8
20
 10
12.3720
 20
99.7290
 30
0.0000
 42
0.4142
  0
VERTEX
  8
20
 10
11.8710
 20
99.2280
 30
0.0000
 42
1.0000
  0
VERTEX
  8
20
 10
11.8730
 20
99.2280
 30
0.0000
 42
-0.4142
  0
SEQEND
  8
0
  0
POLYLINE
  8
20
 66
1
 10
0.0000
 20
0.0000
 30
0.0000
 40
0.0000
 41
0.0000
 70
1
  0
VERTEX
  8
20
 10
12.5020
 20
99.7290
 30
0.0000
 42
1.0000
  0
VERTEX
  8
20
 10
12.5020
 20
99.7270
 30
0.0000
 42
0.4142
  0
VERTEX
  8
20
 10
13.7730
 20
100.9980
 30
0.0000
 42
1.0000
  0
VERTEX
  8
20
 10
13.7710
 20
100.9980
 30
0.0000
 42
-0.4142
  0
SEQEND
  8
0
  0
POLYLINE
  8
20
 66
1
 10
0.0000
 20
0.0000
 30
0.0000
 40
0.0000
 41
0.0000
 70
1
  0
VERTEX
  8
20
 10
14.2720
 20
105.5990
 30
0.0000
 42
1.0000
  0
VERTEX
  8
20
 10
14.2720
 20
105.6010
 30
0.0000
 42
0.4142
  0
VERTEX
  8
20
 10
13.7710
 20
105.1000
 30
0.0000
 42
1.0000
  0
VERTEX
  8
20
 10
13.7730
 20
105.1000
 30
0.0000
 42
-0.4142
  0
SEQEND
  8
0
  0
POLYLINE
  8
20
 66
1
 10
0.0000
 20
0.0000
 30
0.0000
 40
0.0000
 41
0.0000
 70
1
  0
VERTEX
  8
20
 10
71.8764
 20
13.3245
 30
0.0000
 42
1.0000
  0
VERTEX
  8
20
 10
71.8765
 20
13.3225
 30
0.0000
 42
0.3780
  0
VERTEX
  8
20
 10
92.2775
 20
33.7235
 30
0.0000
 42
1.0000
  0
VERTEX
  8
20
 10
92.2755
 20
33.7236
 30
0.0000
 42
-0.3780
  0
SEQEND
  8
0
  0
POLYLINE
  8
20
 66
1
 10
0.0000
 20
0.0000
 30
0.0000
 40
0.0000
 41
0.0000
 70
1
  0
VERTEX
  8
20
 10
75.9510
 20
50.2571
 30
0.0000
 42
1.0000
  0
VERTEX
  8
20
 10
75.9490
 20
50.2571
 30
0.0000
 42
0.1989
  0
VERTEX
  8
20
 10
76.0958
 20
49.9028
 30
0.0000
 42
1.0000
  0
VERTEX
  8
20
 10
76.0972
 20
49.9043
 30
0.0000
 42
-0.1989
  0
SEQEND
  8
0
  0
POLYLINE
  8
20
 66
1
 10
0.0000
 20
0.0000
 30
0.0000
 40
0.0000
 41
0.0000
 70
1
  0
VERTEX
  8
20
 10
76.0972
 20
55.6957
 30
0.0000
 42
1.0000
  0
VERTEX
  8
20
 10
76.0958
 20
55.6972
 30
0.0000
 42
0.1989
  0
VERTEX
  8
20
 10
75.9490
 20
55.3400
 30
0.0000
 42
1.0000
  0
VERTEX
  8
20
 10
75.9510
 20
55.3400
 30
0.0000
 42
-0.1989
  0
SEQEND
  8
0
  0
POLYLINE
  8
20
 66
1
 10
0.0000
 20
0.0000
 30
0.0000
 40
0.0000
 41
0.0000
 70
1
  0
VERTEX
  8
20
 10
92.2755
 20
71.8764
 30
0.0000
 42
1.0000
  0
VERTEX
  8
20
 10
92.2775
 20
71.8765
 30
0.0000
 42
0.3780
  0
VERTEX
  8
20
 10
71.8801
 20
92.2710
 30
0.0000
 42
1.0000
  0
VERTEX
  8
20
 10
71.8799
 20
92.2690
 30
0.0000
 42
-0.3780
  0
SEQEND
  8
0
  0
POLYLINE
  8
20
 66
1
 10
0.0000
 20
0.0000
 30
0.0000
 40
0.0000
 41
0.0000
 70
1
  0
VERTEX
  8
20
 10
55.3429
 20
75.9510
 30
0.0000
 42
1.0000
  0
VERTEX
  8
20
 10
55.3429
 20
75.9490
 30
0.0000
 42
0.1989
  0
VERTEX
  8
20
 10
55.6972
 20
76.0958
 30
0.0000
 42
1.0000
  0
VERTEX
  8
20
 10
55.6957
 20
76.0972
 30
0.0000
 42
-0.1989
  0
SEQEND
  8
0
  0
POLYLINE
  8
20
 66
1
 10
0.0000
 20
0.0000
 30
0.0000
 40
0.0000
 41
0.0000
 70
1
  0
VERTEX
  8
20
 10
49.9043
 20
76.0972
 30
0.0000
 42
1.0000
  0
VERTEX
  8
20
 10
49.9028
 20
76.0958
 30
0.0000
 42
0.1989
  0
VERTEX
  8
20
 10
50.2500
 20
75.9490
 30
0.0000
 42
1.0000
  0
VERTEX
  8
20
 10
50.2500
 20
75.9510
 30
0.0000
 42
-0.1989
  0
SEQEND
  8
0
  0
POLYLINE
  8
20
 66
1
 10
0.0000
 20
0.0000
 30
0.0000
 40
0.0000
 41
0.0000
 70
1
  0
VERTEX
  8
20
 10
33.7236
 20
92.2755
 30
0.0000
 42
1.0000
  0
VERTEX
  8
20
 10
33.7235
 20
92.2775
 30
0.0000
 42
0.3780
  0
VERTEX
  8
20
 10
13.3190
 20
71.8701
 30
0.0000
 42
1.0000
  0
VERTEX
  8
20
 10
13.3210
 20
71.8699
 30
0.0000
 42
-0.3780
  0
SEQEND
  8
0
  0
POLYLINE
  8
20
 66
1
 10
0.0000
 20
0.0000
 30
0.0000
 40
0.0000
 41
0.0000
 70
1
  0
VERTEX
  8
20
 10
29.6390
 20
55.4129
 30
0.0000
 42
1.0000
  0
VERTEX
  8
20
 10
29.6410
 20
55.4129
 30
0.0000
 42
0.1989
  0
VERTEX
  8
20
 10
29.4942
 20
55.7672
 30
0.0000
 42
1.0000
  0
VERTEX
  8
20
 10
29.4928
 20
55.7657
 30
0.0000
 42
-0.1989
  0
SEQEND
  8
0
  0
POLYLINE
  8
20
 66
1
 10
0.0000
 20
0.0000
 30
0.0000
 40
0.0000
 41
0.0000
 70
1
  0
VERTEX
  8
20
 10
29.5028
 20
49.9043
 30
0.0000
 42
1.0000
  0
VERTEX
  8
20
 10
29.5042
 20
49.9028
 30
0.0000
 42
0.1989
  0
VERTEX
  8
20
 10
29.6510
 20
50.2571
 30
0.0000
 42
1.0000
  0
VERTEX
  8
20
 10
29.6490
 20
50.2571
 30
0.0000
 42
-0.1989
  0
SEQEND
  8
0
  0
POLYLINE
  8
20
 66
1
 10
0.0000
 20
0.0000
 30
0.0000
 40
0.0000
 41
0.0000
 70
1
  0
VERTEX
  8
20
 10
13.3245
 20
33.7236
 30
0.0000
 42
1.0000
  0
VERTEX
  8
20
 10
13.3225
 20
33.7235
 30
0.0000
 42
0.3780
  0
VERTEX
  8
20
 10
33.7235
 20
13.3225
 30
0.0000
 42
1.0000
  0
VERTEX
  8
20
 10
33.7236
 20
13.3245
 30
0.0000
 42
-0.3780
  0
SEQEND
  8
0
  0
POLYLINE
  8
20
 66
1
 10
0.0000
 20
0.0000
 30
0.0000
 40
0.0000
 41
0.0000
 70
1
  0
VERTEX
  8
20
 10
50.2571
 20
29.6490
 30
0.0000
 42
1.0000
  0
VERTEX
  8
20
 10
50.2571
 20
29.6510
 30
0.0000
 42
0.1989
  0
VERTEX
  8
20
 10
49.9028
 20
29.5042
 30
0.0000
 42
1.0000
  0
VERTEX
  8
20
 10
49.9043
 20
29.5028
 30
0.0000
 42
-0.1989
  0
SEQEND
  8
0
  0
POLYLINE
  8
20
 66
1
 10
0.0000
 20
0.0000
 30
0.0000
 40
0.0000
 41
0.0000
 70
1
  0
VERTEX
  8
20
 10
55.6957
 20
29.5028
 30
0.0000
 42
1.0000
  0
VERTEX
  8
20
 10
55.6972
 20
29.5042
 30
0.0000
 42
0.1989
  0
VERTEX
  8
20
 10
55.3429
 20
29.6510
 30
0.0000
 42
1.0000
  0
VERTEX
  8
20
 10
55.3429
 20
29.6490
 30
0.0000
 42
-0.1989
  0
SEQEND
  8
0
  0
INSERT
  8
30
  2
RECT
 10
53.0000
 20
103.1000
 30
0.0000
 41
79.6000
 42
5.0000
 43
1.0000
 50
0.0000
  0
INSERT
  8
30
  2
RECT
 10
53.0000
 20
2.5000
 30
0.0000
 41
79.6000
 42
5.0000
 43
1.0000
 50
0.0000
  0
INSERT
  8
30
  2
RECT
 10
102.6000
 20
53.2000
 30
0.0000
 41
6.0000
 42
82.8000
 43
1.0000
 50
0.0000
  0
INSERT
  8
30
  2
RECT
 10
3.0000
 20
53.0000
 30
0.0000
 41
6.0000
 42
82.8000
 43
1.0000
 50
0.0000
  0
CIRCLE
  8
20
 10
102.3000
 20
25.3000
 30
0.0000
 40
1.0500
  0
CIRCLE
  8
30
 10
102.3000
 20
25.3000
 30
0.0000
 40
1.1135
  0
CIRCLE
  8
20
 10
80.3000
 20
3.3000
 30
0.0000
 40
1.0500
  0
CIRCLE
  8
30
 10
80.3000
 20
3.3000
 30
0.0000
 40
1.1135
  0
CIRCLE
  8
20
 10
102.3000
 20
80.3000
 30
0.0000
 40
1.0500
  0
CIRCLE
  8
30
 10
102.3000
 20
80.3000
 30
0.0000
 40
1.1135
  0
CIRCLE
  8
20
 10
25.3000
 20
3.3000
 30
0.0000
 40
1.0500
  0
CIRCLE
  8
30
 10
25.3000
 20
3.3000
 30
0.0000
 40
1.1135
  0
CIRCLE
  8
20
 10
3.3000
 20
25.3000
 30
0.0000
 40
1.0500
  0
CIRCLE
  8
30
 10
3.3000
 20
25.3000
 30
0.0000
 40
1.1135
  0
CIRCLE
  8
20
 10
3.3000
 20
80.3000
 30
0.0000
 40
1.0500
  0
CIRCLE
  8
30
 10
3.3000
 20
80.3000
 30
0.0000
 40
1.1135
  0
CIRCLE
  8
20
 10
80.3000
 20
102.3000
 30
0.0000
 40
1.0500
  0
CIRCLE
  8
30
 10
80.3000
 20
102.3000
 30
0.0000
 40
1.1135
  0
CIRCLE
  8
20
 10
25.3000
 20
102.3000
 30
0.0000
 40
1.0500
  0
CIRCLE
  8
30
 10
25.3000
 20
102.3000
 30
0.0000
 40
1.1135
  0
POLYLINE
  8
30
 66
1
 10
0.0000
 20
0.0000
 30
0.0000
 40
0.0000
 41
0.0000
 70
1
  0
VERTEX
  8
30
 10
88.3000
 20
87.0200
 30
0.0000
  0
VERTEX
  8
30
 10
88.7000
 20
87.0200
 30
0.0000
 42
1.0000
  0
VERTEX
  8
30
 10
88.7000
 20
87.5400
 30
0.0000
  0
VERTEX
  8
30
 10
88.3000
 20
87.5400
 30
0.0000
 42
1.0000
  0
SEQEND
  8
0
  0
POLYLINE
  8
30
 66
1
 10
0.0000
 20
0.0000
 30
0.0000
 40
0.0000
 41
0.0000
 70
1
  0
VERTEX
  8
30
 10
88.4400
 20
87.2800
 30
0.0000
  0
VERTEX
  8
30
 10
88.4400
 20
86.7200
 30
0.0000
 42
1.0000
  0
VERTEX
  8
30
 10
88.9600
 20
86.7200
 30
0.0000
  0
VERTEX
  8
30
 10
88.9600
 20
87.2800
 30
0.0000
 42
1.0000
  0
SEQEND
  8
0
  0
POLYLINE
  8
30
 66
1
 10
0.0000
 20
0.0000
 30
0.0000
 40
0.0000
 41
0.0000
 70
1
  0
VERTEX
  8
30
 10
88.7000
 20
86.9800
 30
0.0000
  0
VERTEX
  8
30
 10
88.3000
 20
86.9800
 30
0.0000
 42
1.0000
  0
VERTEX
  8
30
 10
88.3000
 20
86.4600
 30
0.0000
  0
VERTEX
  8
30
 10
88.7000
 20
86.4600
 30
0.0000
 42
1.0000
  0
SEQEND
  8
0
  0
POLYLINE
  8
30
 66
1
 10
0.0000
 20
0.0000
 30
0.0000
 40
0.0000
 41
0.0000
 70
1
  0
VERTEX
  8
30
 10
88.5600
 20
86.7200
 30
0.0000
  0
VERTEX
  8
30
 10
88.5600
 20
87.2800
 30
0.0000
 42
1.0000
  0
VERTEX
  8
30
 10
88.0400
 20
87.2800
 30
0.0000
  0
VERTEX
  8
30
 10
88.0400
 20
86.7200
 30
0.0000
 42
1.0000
  0
SEQEND
  8
0
  0
POLYLINE
  8
30
 66
1
 10
0.0000
 20
0.0000
 30
0.0000
 40
0.0000
 41
0.0000
 70
1
  0
VERTEX
  8
30
 10
88.3000
 20
86.5800
 30
0.0000
  0
VERTEX
  8
30
 10
88.7000
 20
86.5800
 30
0.0000
 42
1.0000
  0
VERTEX
  8
30
 10
88.7000
 20
87.1000
 30
0.0000
  0
VERTEX
  8
30
 10
88.3000
 20
87.1000
 30
0.0000
 42
1.0000
  0
SEQEND
  8
0
  0
POLYLINE
  8
30
 66
1
 10
0.0000
 20
0.0000
 30
0.0000
 40
0.0000
 41
0.0000
 70
1
  0
VERTEX
  8
30
 10
89.9000
 20
87.0200
 30
0.0000
  0
VERTEX
  8
30
 10
90.3000
 20
87.0200
 30
0.0000
 42
1.0000
  0
VERTEX
  8
30
 10
90.3000
 20
87.5400
 30
0.0000
  0
VERTEX
  8
30
 10
89.9000
 20
87.5400
 30
0.0000
 42
1.0000
  0
SEQEND
  8
0
  0
POLYLINE
  8
30
 66
1
 10
0.0000
 20
0.0000
 30
0.0000
 40
0.0000
 41
0.0000
 70
1
  0
VERTEX
  8
30
 10
90.0400
 20
87.2800
 30
0.0000
  0
VERTEX
  8
30
 10
90.0400
 20
86.7200
 30
0.0000
 42
1.0000
  0
VERTEX
  8
30
 10
90.5600
 20
86.7200
 30
0.0000
  0
VERTEX
  8
30
 10
90.5600
 20
87.2800
 30
0.0000
 42
1.0000
  0
SEQEND
  8
0
  0
POLYLINE
  8
30
 66
1
 10
0.0000
 20
0.0000
 30
0.0000
 40
0.0000
 41
0.0000
 70
1
  0
VERTEX
  8
30
 10
90.3000
 20
86.9800
 30
0.0000
  0
VERTEX
  8
30
 10
89.9000
 20
86.9800
 30
0.0000
 42
1.0000
  0
VERTEX
  8
30
 10
89.9000
 20
86.4600
 30
0.0000
  0
VERTEX
  8
30
 10
90.3000
 20
86.4600
 30
0.0000
 42
1.0000
  0
SEQEND
  8
0
  0
POLYLINE
  8
30
 66
1
 10
0.0000
 20
0.0000
 30
0.0000
 40
0.0000
 41
0.0000
 70
1
  0
VERTEX
  8
30
 10
90.1600
 20
86.7200
 30
0.0000
  0
VERTEX
  8
30
 10
90.1600
 20
87.2800
 30
0.0000
 42
1.0000
  0
VERTEX
  8
30
 10
89.6400
 20
87.2800
 30
0.0000
  0
VERTEX
  8
30
 10
89.6400
 20
86.7200
 30
0.0000
 42
1.0000
  0
SEQEND
  8
0
  0
POLYLINE
  8
30
 66
1
 10
0.0000
 20
0.0000
 30
0.0000
 40
0.0000
 41
0.0000
 70
1
  0
VERTEX
  8
30
 10
89.9000
 20
86.5800
 30
0.0000
  0
VERTEX
  8
30
 10
90.3000
 20
86.5800
 30
0.0000
 42
1.0000
  0
VERTEX
  8
30
 10
90.3000
 20
87.1000
 30
0.0000
  0
VERTEX
  8
30
 10
89.9000
 20
87.1000
 30
0.0000
 42
1.0000
  0
SEQEND
  8
0
  0
POLYLINE
  8
30
 66
1
 10
0.0000
 20
0.0000
 30
0.0000
 40
0.0000
 41
0.0000
 70
1
  0
VERTEX
  8
30
 10
18.5300
 20
14.3000
 30
0.0000
  0
VERTEX
  8
30
 10
18.5300
 20
14.7000
 30
0.0000
 42
1.0000
  0
VERTEX
  8
30
 10
18.0100
 20
14.7000
 30
0.0000
  0
VERTEX
  8
30
 10
18.0100
 20
14.3000
 30
0.0000
 42
1.0000
  0
SEQEND
  8
0
  0
POLYLINE
  8
30
 66
1
 10
0.0000
 20
0.0000
 30
0.0000
 40
0.0000
 41
0.0000
 70
1
  0
VERTEX
  8
30
 10
18.2700
 20
14.4400
 30
0.0000
  0
VERTEX
  8
30
 10
18.8300
 20
14.4400
 30
0.0000
 42
1.0000
  0
VERTEX
  8
30
 10
18.8300
 20
14.9600
 30
0.0000
  0
VERTEX
  8
30
 10
18.2700
 20
14.9600
 30
0.0000
 42
1.0000
  0
SEQEND
  8
0
  0
POLYLINE
  8
30
 66
1
 10
0.0000
 20
0.0000
 30
0.0000
 40
0.0000
 41
0.0000
 70
1
  0
VERTEX
  8
30
 10
18.5700
 20
14.7000
 30
0.0000
  0
VERTEX
  8
30
 10
18.5700
 20
14.3000
 30
0.0000
 42
1.0000
  0
VERTEX
  8
30
 10
19.0900
 20
14.3000
 30
0.0000
  0
VERTEX
  8
30
 10
19.0900
 20
14.7000
 30
0.0000
 42
1.0000
  0
SEQEND
  8
0
  0
POLYLINE
  8
30
 66
1
 10
0.0000
 20
0.0000
 30
0.0000
 40
0.0000
 41
0.0000
 70
1
  0
VERTEX
  8
30
 10
18.8300
 20
14.5600
 30
0.0000
  0
VERTEX
  8
30
 10
18.2700
 20
14.5600
 30
0.0000
 42
1.0000
  0
VERTEX
  8
30
 10
18.2700
 20
14.0400
 30
0.0000
  0
VERTEX
  8
30
 10
18.8300
 20
14.0400
 30
0.0000
 42
1.0000
  0
SEQEND
  8
0
  0
POLYLINE
  8
30
 66
1
 10
0.0000
 20
0.0000
 30
0.0000
 40
0.0000
 41
0.0000
 70
1
  0
VERTEX
  8
30
 10
18.2700
 20
14.3000
 30
0.0000
  0
VERTEX
  8
30
 10
18.8300
 20
14.3000
 30
0.0000
 42
1.0000
  0
VERTEX
  8
30
 10
18.8300
 20
14.8200
 30
0.0000
  0
VERTEX
  8
30
 10
18.2700
 20
14.8200
 30
0.0000
 42
1.0000
  0
SEQEND
  8
0
  0
POLYLINE
  8
30
 66
1
 10
0.0000
 20
0.0000
 30
0.0000
 40
0.0000
 41
0.0000
 70
1
  0
VERTEX
  8
30
 10
18.5300
 20
15.9000
 30
0.0000
  0
VERTEX
  8
30
 10
18.5300
 20
16.3000
 30
0.0000
 42
1.0000
  0
VERTEX
  8
30
 10
18.0100
 20
16.3000
 30
0.0000
  0
VERTEX
  8
30
 10
18.0100
 20
15.9000
 30
0.0000
 42
1.0000
  0
SEQEND
  8
0
  0
POLYLINE
  8
30
 66
1
 10
0.0000
 20
0.0000
 30
0.0000
 40
0.0000
 41
0.0000
 70
1
  0
VERTEX
  8
30
 10
18.2700
 20
16.0400
 30
0.0000
  0
VERTEX
  8
30
 10
18.8300
 20
16.0400
 30
0.0000
 42
1.0000
  0
VERTEX
  8
30
 10
18.8300
 20
16.5600
 30
0.0000
  0
VERTEX
  8
30
 10
18.2700
 20
16.5600
 30
0.0000
 42
1.0000
  0
SEQEND
  8
0
  0
POLYLINE
  8
30
 66
1
 10
0.0000
 20
0.0000
 30
0.0000
 40
0.0000
 41
0.0000
 70
1
  0
VERTEX
  8
30
 10
18.5700
 20
16.3000
 30
0.0000
  0
VERTEX
  8
30
 10
18.5700
 20
15.9000
 30
0.0000
 42
1.0000
  0
VERTEX
  8
30
 10
19.0900
 20
15.9000
 30
0.0000
  0
VERTEX
  8
30
 10
19.0900
 20
16.3000
 30
0.0000
 42
1.0000
  0
SEQEND
  8
0
  0
POLYLINE
  8
30
 66
1
 10
0.0000
 20
0.0000
 30
0.0000
 40
0.0000
 41
0.0000
 70
1
  0
VERTEX
  8
30
 10
18.8300
 20
16.1600
 30
0.0000
  0
VERTEX
  8
30
 10
18.2700
 20
16.1600
 30
0.0000
 42
1.0000
  0
VERTEX
  8
30
 10
18.2700
 20
15.6400
 30
0.0000
  0
VERTEX
  8
30
 10
18.8300
 20
15.6400
 30
0.0000
 42
1.0000
  0
SEQEND
  8
0
  0
POLYLINE
  8
30
 66
1
 10
0.0000
 20
0.0000
 30
0.0000
 40
0.0000
 41
0.0000
 70
1
  0
VERTEX
  8
30
 10
18.2700
 20
15.8600
 30
0.0000
  0
VERTEX
  8
30
 10
18.8300
 20
15.8600
 30
0.0000
 42
1.0000
  0
VERTEX
  8
30
 10
18.8300
 20
16.3800
 30
0.0000
  0
VERTEX
  8
30
 10
18.2700
 20
16.3800
 30
0.0000
 42
1.0000
  0
SEQEND
  8
0
  0
POLYLINE
  8
30
 66
1
 10
0.0000
 20
0.0000
 30
0.0000
 40
0.0000
 41
0.0000
 70
1
  0
VERTEX
  8
30
 10
15.7900
 20
96.7000
 30
0.0000
  0
VERTEX
  8
30
 10
15.7900
 20
96.3000
 30
0.0000
 42
1.0000
  0
VERTEX
  8
30
 10
16.3100
 20
96.3000
 30
0.0000
  0
VERTEX
  8
30
 10
16.3100
 20
96.7000
 30
0.0000
 42
1.0000
  0
SEQEND
  8
0
  0
POLYLINE
  8
30
 66
1
 10
0.0000
 20
0.0000
 30
0.0000
 40
0.0000
 41
0.0000
 70
1
  0
VERTEX
  8
30
 10
16.0500
 20
96.5600
 30
0.0000
  0
VERTEX
  8
30
 10
15.4900
 20
96.5600
 30
0.0000
 42
1.0000
  0
VERTEX
  8
30
 10
15.4900
 20
96.0400
 30
0.0000
  0
VERTEX
  8
30
 10
16.0500
 20
96.0400
 30
0.0000
 42
1.0000
  0
SEQEND
  8
0
  0
POLYLINE
  8
30
 66
1
 10
0.0000
 20
0.0000
 30
0.0000
 40
0.0000
 41
0.0000
 70
1
  0
VERTEX
  8
30
 10
15.7500
 20
96.3000
 30
0.0000
  0
VERTEX
  8
30
 10
15.7500
 20
96.7000
 30
0.0000
 42
1.0000
  0
VERTEX
  8
30
 10
15.2300
 20
96.7000
 30
0.0000
  0
VERTEX
  8
30
 10
15.2300
 20
96.3000
 30
0.0000
 42
1.0000
  0
SEQEND
  8
0
  0
POLYLINE
  8
30
 66
1
 10
0.0000
 20
0.0000
 30
0.0000
 40
0.0000
 41
0.0000
 70
1
  0
VERTEX
  8
30
 10
15.4900
 20
96.4400
 30
0.0000
  0
VERTEX
  8
30
 10
16.0500
 20
96.4400
 30
0.0000
 42
1.0000
  0
VERTEX
  8
30
 10
16.0500
 20
96.9600
 30
0.0000
  0
VERTEX
  8
30
 10
15.4900
 20
96.9600
 30
0.0000
 42
1.0000
  0
SEQEND
  8
0
  0
POLYLINE
  8
30
 66
1
 10
0.0000
 20
0.0000
 30
0.0000
 40
0.0000
 41
0.0000
 70
1
  0
VERTEX
  8
30
 10
15.7900
 20
95.1000
 30
0.0000
  0
VERTEX
  8
30
 10
15.7900
 20
94.7000
 30
0.0000
 42
1.0000
  0
VERTEX
  8
30
 10
16.3100
 20
94.7000
 30
0.0000
  0
VERTEX
  8
30
 10
16.3100
 20
95.1000
 30
0.0000
 42
1.0000
  0
SEQEND
  8
0
  0
POLYLINE
  8
30
 66
1
 10
0.0000
 20
0.0000
 30
0.0000
 40
0.0000
 41
0.0000
 70
1
  0
VERTEX
  8
30
 10
16.0500
 20
94.9600
 30
0.0000
  0
VERTEX
  8
30
 10
15.4900
 20
94.9600
 30
0.0000
 42
1.0000
  0
VERTEX
  8
30
 10
15.4900
 20
94.4400
 30
0.0000
  0
VERTEX
  8
30
 10
16.0500
 20
94.4400
 30
0.0000
 42
1.0000
  0
SEQEND
  8
0
  0
POLYLINE
  8
30
 66
1
 10
0.0000
 20
0.0000
 30
0.0000
 40
0.0000
 41
0.0000
 70
1
  0
VERTEX
  8
30
 10
15.7500
 20
94.7000
 30
0.0000
  0
VERTEX
  8
30
 10
15.7500
 20
95.1000
 30
0.0000
 42
1.0000
  0
VERTEX
  8
30
 10
15.2300
 20
95.1000
 30
0.0000
  0
VERTEX
  8
30
 10
15.2300
 20
94.7000
 30
0.0000
 42
1.0000
  0
SEQEND
  8
0
  0
POLYLINE
  8
30
 66
1
 10
0.0000
 20
0.0000
 30
0.0000
 40
0.0000
 41
0.0000
 70
1
  0
VERTEX
  8
30
 10
15.4900
 20
94.8400
 30
0.0000
  0
VERTEX
  8
30
 10
16.0500
 20
94.8400
 30
0.0000
 42
1.0000
  0
VERTEX
  8
30
 10
16.0500
 20
95.3600
 30
0.0000
  0
VERTEX
  8
30
 10
15.4900
 20
95.3600
 30
0.0000
 42
1.0000
  0
SEQEND
  8
0
  0
POLYLINE
  8
30
 66
1
 10
0.0000
 20
0.0000
 30
0.0000
 40
0.0000
 41
0.0000
 70
1
  0
VERTEX
  8
30
 10
14.2900
 20
96.7000
 30
0.0000
  0
VERTEX
  8
30
 10
14.2900
 20
96.3000
 30
0.0000
 42
1.0000
  0
VERTEX
  8
30
 10
14.8100
 20
96.3000
 30
0.0000
  0
VERTEX
  8
30
 10
14.8100
 20
96.7000
 30
0.0000
 42
1.0000
  0
SEQEND
  8
0
  0
POLYLINE
  8
30
 66
1
 10
0.0000
 20
0.0000
 30
0.0000
 40
0.0000
 41
0.0000
 70
1
  0
VERTEX
  8
30
 10
14.5500
 20
96.5600
 30
0.0000
  0
VERTEX
  8
30
 10
13.9900
 20
96.5600
 30
0.0000
 42
1.0000
  0
VERTEX
  8
30
 10
13.9900
 20
96.0400
 30
0.0000
  0
VERTEX
  8
30
 10
14.5500
 20
96.0400
 30
0.0000
 42
1.0000
  0
SEQEND
  8
0
  0
POLYLINE
  8
30
 66
1
 10
0.0000
 20
0.0000
 30
0.0000
 40
0.0000
 41
0.0000
 70
1
  0
VERTEX
  8
30
 10
14.2500
 20
96.3000
 30
0.0000
  0
VERTEX
  8
30
 10
14.2500
 20
96.7000
 30
0.0000
 42
1.0000
  0
VERTEX
  8
30
 10
13.7300
 20
96.7000
 30
0.0000
  0
VERTEX
  8
30
 10
13.7300
 20
96.3000
 30
0.0000
 42
1.0000
  0
SEQEND
  8
0
  0
POLYLINE
  8
30
 66
1
 10
0.0000
 20
0.0000
 30
0.0000
 40
0.0000
 41
0.0000
 70
1
  0
VERTEX
  8
30
 10
13.9900
 20
96.4400
 30
0.0000
  0
VERTEX
  8
30
 10
14.5500
 20
96.4400
 30
0.0000
 42
1.0000
  0
VERTEX
  8
30
 10
14.5500
 20
96.9600
 30
0.0000
  0
VERTEX
  8
30
 10
13.9900
 20
96.9600
 30
0.0000
 42
1.0000
  0
SEQEND
  8
0
  0
POLYLINE
  8
30
 66
1
 10
0.0000
 20
0.0000
 30
0.0000
 40
0.0000
 41
0.0000
 70
1
  0
VERTEX
  8
30
 10
14.2900
 20
95.1000
 30
0.0000
  0
VERTEX
  8
30
 10
14.2900
 20
94.7000
 30
0.0000
 42
1.0000
  0
VERTEX
  8
30
 10
14.8100
 20
94.7000
 30
0.0000
  0
VERTEX
  8
30
 10
14.8100
 20
95.1000
 30
0.0000
 42
1.0000
  0
SEQEND
  8
0
  0
POLYLINE
  8
30
 66
1
 10
0.0000
 20
0.0000
 30
0.0000
 40
0.0000
 41
0.0000
 70
1
  0
VERTEX
  8
30
 10
14.5500
 20
94.9600
 30
0.0000
  0
VERTEX
  8
30
 10
13.9900
 20
94.9600
 30
0.0000
 42
1.0000
  0
VERTEX
  8
30
 10
13.9900
 20
94.4400
 30
0.0000
  0
VERTEX
  8
30
 10
14.5500
 20
94.4400
 30
0.0000
 42
1.0000
  0
SEQEND
  8
0
  0
POLYLINE
  8
30
 66
1
 10
0.0000
 20
0.0000
 30
0.0000
 40
0.0000
 41
0.0000
 70
1
  0
VERTEX
  8
30
 10
14.2500
 20
94.7000
 30
0.0000
  0
VERTEX
  8
30
 10
14.2500
 20
95.1000
 30
0.0000
 42
1.0000
  0
VERTEX
  8
30
 10
13.7300
 20
95.1000
 30
0.0000
  0
VERTEX
  8
30
 10
13.7300
 20
94.7000
 30
0.0000
 42
1.0000
  0
SEQEND
  8
0
  0
POLYLINE
  8
30
 66
1
 10
0.0000
 20
0.0000
 30
0.0000
 40
0.0000
 41
0.0000
 70
1
  0
VERTEX
  8
30
 10
13.9900
 20
94.8400
 30
0.0000
  0
VERTEX
  8
30
 10
14.5500
 20
94.8400
 30
0.0000
 42
1.0000
  0
VERTEX
  8
30
 10
14.5500
 20
95.3600
 30
0.0000
  0
VERTEX
  8
30
 10
13.9900
 20
95.3600
 30
0.0000
 42
1.0000
  0
SEQEND
  8
0
  0
POLYLINE
  8
30
 66
1
 10
0.0000
 20
0.0000
 30
0.0000
 40
0.0000
 41
0.0000
 70
1
  0
VERTEX
  8
30
 10
13.3000
 20
18.6200
 30
0.0000
  0
VERTEX
  8
30
 10
13.7000
 20
18.6200
 30
0.0000
 42
1.0000
  0
VERTEX
  8
30
 10
13.7000
 20
19.1400
 30
0.0000
  0
VERTEX
  8
30
 10
13.3000
 20
19.1400
 30
0.0000
 42
1.0000
  0
SEQEND
  8
0
  0
POLYLINE
  8
30
 66
1
 10
0.0000
 20
0.0000
 30
0.0000
 40
0.0000
 41
0.0000
 70
1
  0
VERTEX
  8
30
 10
13.4400
 20
18.8800
 30
0.0000
  0
VERTEX
  8
30
 10
13.4400
 20
18.3200
 30
0.0000
 42
1.0000
  0
VERTEX
  8
30
 10
13.9600
 20
18.3200
 30
0.0000
  0
VERTEX
  8
30
 10
13.9600
 20
18.8800
 30
0.0000
 42
1.0000
  0
SEQEND
  8
0
  0
POLYLINE
  8
30
 66
1
 10
0.0000
 20
0.0000
 30
0.0000
 40
0.0000
 41
0.0000
 70
1
  0
VERTEX
  8
30
 10
13.7000
 20
18.5800
 30
0.0000
  0
VERTEX
  8
30
 10
13.3000
 20
18.5800
 30
0.0000
 42
1.0000
  0
VERTEX
  8
30
 10
13.3000
 20
18.0600
 30
0.0000
  0
VERTEX
  8
30
 10
13.7000
 20
18.0600
 30
0.0000
 42
1.0000
  0
SEQEND
  8
0
  0
POLYLINE
  8
30
 66
1
 10
0.0000
 20
0.0000
 30
0.0000
 40
0.0000
 41
0.0000
 70
1
  0
VERTEX
  8
30
 10
13.5600
 20
18.3200
 30
0.0000
  0
VERTEX
  8
30
 10
13.5600
 20
18.8800
 30
0.0000
 42
1.0000
  0
VERTEX
  8
30
 10
13.0400
 20
18.8800
 30
0.0000
  0
VERTEX
  8
30
 10
13.0400
 20
18.3200
 30
0.0000
 42
1.0000
  0
SEQEND
  8
0
  0
POLYLINE
  8
30
 66
1
 10
0.0000
 20
0.0000
 30
0.0000
 40
0.0000
 41
0.0000
 70
1
  0
VERTEX
  8
30
 10
13.3000
 20
18.4600
 30
0.0000
  0
VERTEX
  8
30
 10
13.7000
 20
18.4600
 30
0.0000
 42
1.0000
  0
VERTEX
  8
30
 10
13.7000
 20
18.9800
 30
0.0000
  0
VERTEX
  8
30
 10
13.3000
 20
18.9800
 30
0.0000
 42
1.0000
  0
SEQEND
  8
0
  0
POLYLINE
  8
30
 66
1
 10
0.0000
 20
0.0000
 30
0.0000
 40
0.0000
 41
0.0000
 70
1
  0
VERTEX
  8
30
 10
14.9000
 20
18.6200
 30
0.0000
  0
VERTEX
  8
30
 10
15.3000
 20
18.6200
 30
0.0000
 42
1.0000
  0
VERTEX
  8
30
 10
15.3000
 20
19.1400
 30
0.0000
  0
VERTEX
  8
30
 10
14.9000
 20
19.1400
 30
0.0000
 42
1.0000
  0
SEQEND
  8
0
  0
POLYLINE
  8
30
 66
1
 10
0.0000
 20
0.0000
 30
0.0000
 40
0.0000
 41
0.0000
 70
1
  0
VERTEX
  8
30
 10
15.0400
 20
18.8800
 30
0.0000
  0
VERTEX
  8
30
 10
15.0400
 20
18.3200
 30
0.0000
 42
1.0000
  0
VERTEX
  8
30
 10
15.5600
 20
18.3200
 30
0.0000
  0
VERTEX
  8
30
 10
15.5600
 20
18.8800
 30
0.0000
 42
1.0000
  0
SEQEND
  8
0
  0
POLYLINE
  8
30
 66
1
 10
0.0000
 20
0.0000
 30
0.0000
 40
0.0000
 41
0.0000
 70
1
  0
VERTEX
  8
30
 10
15.3000
 20
18.5800
 30
0.0000
  0
VERTEX
  8
30
 10
14.9000
 20
18.5800
 30
0.0000
 42
1.0000
  0
VERTEX
  8
30
 10
14.9000
 20
18.0600
 30
0.0000
  0
VERTEX
  8
30
 10
15.3000
 20
18.0600
 30
0.0000
 42
1.0000
  0
SEQEND
  8
0
  0
POLYLINE
  8
30
 66
1
 10
0.0000
 20
0.0000
 30
0.0000
 40
0.0000
 41
0.0000
 70
1
  0
VERTEX
  8
30
 10
15.1600
 20
18.3200
 30
0.0000
  0
VERTEX
  8
30
 10
15.1600
 20
18.8800
 30
0.0000
 42
1.0000
  0
VERTEX
  8
30
 10
14.6400
 20
18.8800
 30
0.0000
  0
VERTEX
  8
30
 10
14.6400
 20
18.3200
 30
0.0000
 42
1.0000
  0
SEQEND
  8
0
  0
POLYLINE
  8
30
 66
1
 10
0.0000
 20
0.0000
 30
0.0000
 40
0.0000
 41
0.0000
 70
1
  0
VERTEX
  8
30
 10
14.9000
 20
18.4600
 30
0.0000
  0
VERTEX
  8
30
 10
15.3000
 20
18.4600
 30
0.0000
 42
1.0000
  0
VERTEX
  8
30
 10
15.3000
 20
18.9800
 30
0.0000
  0
VERTEX
  8
30
 10
14.9000
 20
18.9800
 30
0.0000
 42
1.0000
  0
SEQEND
  8
0
  0
POLYLINE
  8
30
 66
1
 10
0.0000
 20
0.0000
 30
0.0000
 40
0.0000
 41
0.0000
 70
1
  0
VERTEX
  8
30
 10
92.6200
 20
92.4000
 30
0.0000
  0
VERTEX
  8
30
 10
92.6200
 20
92.0000
 30
0.0000
 42
1.0000
  0
VERTEX
  8
30
 10
93.1400
 20
92.0000
 30
0.0000
  0
VERTEX
  8
30
 10
93.1400
 20
92.4000
 30
0.0000
 42
1.0000
  0
SEQEND
  8
0
  0
POLYLINE
  8
30
 66
1
 10
0.0000
 20
0.0000
 30
0.0000
 40
0.0000
 41
0.0000
 70
1
  0
VERTEX
  8
30
 10
92.8800
 20
92.2600
 30
0.0000
  0
VERTEX
  8
30
 10
92.3200
 20
92.2600
 30
0.0000
 42
1.0000
  0
VERTEX
  8
30
 10
92.3200
 20
91.7400
 30
0.0000
  0
VERTEX
  8
30
 10
92.8800
 20
91.7400
 30
0.0000
 42
1.0000
  0
SEQEND
  8
0
  0
POLYLINE
  8
30
 66
1
 10
0.0000
 20
0.0000
 30
0.0000
 40
0.0000
 41
0.0000
 70
1
  0
VERTEX
  8
30
 10
92.5800
 20
92.0000
 30
0.0000
  0
VERTEX
  8
30
 10
92.5800
 20
92.4000
 30
0.0000
 42
1.0000
  0
VERTEX
  8
30
 10
92.0600
 20
92.4000
 30
0.0000
  0
VERTEX
  8
30
 10
92.0600
 20
92.0000
 30
0.0000
 42
1.0000
  0
SEQEND
  8
0
  0
POLYLINE
  8
30
 66
1
 10
0.0000
 20
0.0000
 30
0.0000
 40
0.0000
 41
0.0000
 70
1
  0
VERTEX
  8
30
 10
92.3200
 20
92.1400
 30
0.0000
  0
VERTEX
  8
30
 10
92.8800
 20
92.1400
 30
0.0000
 42
1.0000
  0
VERTEX
  8
30
 10
92.8800
 20
92.6600
 30
0.0000
  0
VERTEX
  8
30
 10
92.3200
 20
92.6600
 30
0.0000
 42
1.0000
  0
SEQEND
  8
0
  0
POLYLINE
  8
30
 66
1
 10
0.0000
 20
0.0000
 30
0.0000
 40
0.0000
 41
0.0000
 70
1
  0
VERTEX
  8
30
 10
92.3200
 20
91.7800
 30
0.0000
  0
VERTEX
  8
30
 10
92.8800
 20
91.7800
 30
0.0000
 42
1.0000
  0
VERTEX
  8
30
 10
92.8800
 20
92.3000
 30
0.0000
  0
VERTEX
  8
30
 10
92.3200
 20
92.3000
 30
0.0000
 42
1.0000
  0
SEQEND
  8
0
  0
POLYLINE
  8
30
 66
1
 10
0.0000
 20
0.0000
 30
0.0000
 40
0.0000
 41
0.0000
 70
1
  0
VERTEX
  8
30
 10
92.6200
 20
90.8000
 30
0.0000
  0
VERTEX
  8
30
 10
92.6200
 20
90.4000
 30
0.0000
 42
1.0000
  0
VERTEX
  8
30
 10
93.1400
 20
90.4000
 30
0.0000
  0
VERTEX
  8
30
 10
93.1400
 20
90.8000
 30
0.0000
 42
1.0000
  0
SEQEND
  8
0
  0
POLYLINE
  8
30
 66
1
 10
0.0000
 20
0.0000
 30
0.0000
 40
0.0000
 41
0.0000
 70
1
  0
VERTEX
  8
30
 10
92.8800
 20
90.6600
 30
0.0000
  0
VERTEX
  8
30
 10
92.3200
 20
90.6600
 30
0.0000
 42
1.0000
  0
VERTEX
  8
30
 10
92.3200
 20
90.1400
 30
0.0000
  0
VERTEX
  8
30
 10
92.8800
 20
90.1400
 30
0.0000
 42
1.0000
  0
SEQEND
  8
0
  0
POLYLINE
  8
30
 66
1
 10
0.0000
 20
0.0000
 30
0.0000
 40
0.0000
 41
0.0000
 70
1
  0
VERTEX
  8
30
 10
92.5800
 20
90.4000
 30
0.0000
  0
VERTEX
  8
30
 10
92.5800
 20
90.8000
 30
0.0000
 42
1.0000
  0
VERTEX
  8
30
 10
92.0600
 20
90.8000
 30
0.0000
  0
VERTEX
  8
30
 10
92.0600
 20
90.4000
 30
0.0000
 42
1.0000
  0
SEQEND
  8
0
  0
POLYLINE
  8
30
 66
1
 10
0.0000
 20
0.0000
 30
0.0000
 40
0.0000
 41
0.0000
 70
1
  0
VERTEX
  8
30
 10
92.3200
 20
90.5400
 30
0.0000
  0
VERTEX
  8
30
 10
92.8800
 20
90.5400
 30
0.0000
 42
1.0000
  0
VERTEX
  8
30
 10
92.8800
 20
91.0600
 30
0.0000
  0
VERTEX
  8
30
 10
92.3200
 20
91.0600
 30
0.0000
 42
1.0000
  0
SEQEND
  8
0
  0
POLYLINE
  8
30
 66
1
 10
0.0000
 20
0.0000
 30
0.0000
 40
0.0000
 41
0.0000
 70
1
  0
VERTEX
  8
30
 10
92.3200
 20
90.2200
 30
0.0000
  0
VERTEX
  8
30
 10
92.8800
 20
90.2200
 30
0.0000
 42
1.0000
  0
VERTEX
  8
30
 10
92.8800
 20
90.7400
 30
0.0000
  0
VERTEX
  8
30
 10
92.3200
 20
90.7400
 30
0.0000
 42
1.0000
  0
SEQEND
  8
0
  0
POLYLINE
  8
30
 66
1
 10
0.0000
 20
0.0000
 30
0.0000
 40
0.0000
 41
0.0000
 70
1
  0
VERTEX
  8
30
 10
13.0200
 20
17.3000
 30
0.0000
  0
VERTEX
  8
30
 10
13.0200
 20
16.9000
 30
0.0000
 42
1.0000
  0
VERTEX
  8
30
 10
13.5400
 20
16.9000
 30
0.0000
  0
VERTEX
  8
30
 10
13.5400
 20
17.3000
 30
0.0000
 42
1.0000
  0
SEQEND
  8
0
  0
POLYLINE
  8
30
 66
1
 10
0.0000
 20
0.0000
 30
0.0000
 40
0.0000
 41
0.0000
 70
1
  0
VERTEX
  8
30
 10
13.2800
 20
17.1600
 30
0.0000
  0
VERTEX
  8
30
 10
12.7200
 20
17.1600
 30
0.0000
 42
1.0000
  0
VERTEX
  8
30
 10
12.7200
 20
16.6400
 30
0.0000
  0
VERTEX
  8
30
 10
13.2800
 20
16.6400
 30
0.0000
 42
1.0000
  0
SEQEND
  8
0
  0
POLYLINE
  8
30
 66
1
 10
0.0000
 20
0.0000
 30
0.0000
 40
0.0000
 41
0.0000
 70
1
  0
VERTEX
  8
30
 10
12.9800
 20
16.9000
 30
0.0000
  0
VERTEX
  8
30
 10
12.9800
 20
17.3000
 30
0.0000
 42
1.0000
  0
VERTEX
  8
30
 10
12.4600
 20
17.3000
 30
0.0000
  0
VERTEX
  8
30
 10
12.4600
 20
16.9000
 30
0.0000
 42
1.0000
  0
SEQEND
  8
0
  0
POLYLINE
  8
30
 66
1
 10
0.0000
 20
0.0000
 30
0.0000
 40
0.0000
 41
0.0000
 70
1
  0
VERTEX
  8
30
 10
12.7200
 20
17.0400
 30
0.0000
  0
VERTEX
  8
30
 10
13.2800
 20
17.0400
 30
0.0000
 42
1.0000
  0
VERTEX
  8
30
 10
13.2800
 20
17.5600
 30
0.0000
  0
VERTEX
  8
30
 10
12.7200
 20
17.5600
 30
0.0000
 42
1.0000
  0
SEQEND
  8
0
  0
POLYLINE
  8
30
 66
1
 10
0.0000
 20
0.0000
 30
0.0000
 40
0.0000
 41
0.0000
 70
1
  0
VERTEX
  8
30
 10
12.7200
 20
16.9000
 30
0.0000
  0
VERTEX
  8
30
 10
13.2800
 20
16.9000
 30
0.0000
 42
1.0000
  0
VERTEX
  8
30
 10
13.2800
 20
17.4200
 30
0.0000
  0
VERTEX
  8
30
 10
12.7200
 20
17.4200
 30
0.0000
 42
1.0000
  0
SEQEND
  8
0
  0
POLYLINE
  8
30
 66
1
 10
0.0000
 20
0.0000
 30
0.0000
 40
0.0000
 41
0.0000
 70
1
  0
VERTEX
  8
30
 10
13.0200
 20
15.7000
 30
0.0000
  0
VERTEX
  8
30
 10
13.0200
 20
15.3000
 30
0.0000
 42
1.0000
  0
VERTEX
  8
30
 10
13.5400
 20
15.3000
 30
0.0000
  0
VERTEX
  8
30
 10
13.5400
 20
15.7000
 30
0.0000
 42
1.0000
  0
SEQEND
  8
0
  0
POLYLINE
  8
30
 66
1
 10
0.0000
 20
0.0000
 30
0.0000
 40
0.0000
 41
0.0000
 70
1
  0
VERTEX
  8
30
 10
13.2800
 20
15.5600
 30
0.0000
  0
VERTEX
  8
30
 10
12.7200
 20
15.5600
 30
0.0000
 42
1.0000
  0
VERTEX
  8
30
 10
12.7200
 20
15.0400
 30
0.0000
  0
VERTEX
  8
30
 10
13.2800
 20
15.0400
 30
0.0000
 42
1.0000
  0
SEQEND
  8
0
  0
POLYLINE
  8
30
 66
1
 10
0.0000
 20
0.0000
 30
0.0000
 40
0.0000
 41
0.0000
 70
1
  0
VERTEX
  8
30
 10
12.9800
 20
15.3000
 30
0.0000
  0
VERTEX
  8
30
 10
12.9800
 20
15.7000
 30
0.0000
 42
1.0000
  0
VERTEX
  8
30
 10
12.4600
 20
15.7000
 30
0.0000
  0
VERTEX
  8
30
 10
12.4600
 20
15.3000
 30
0.0000
 42
1.0000
  0
SEQEND
  8
0
  0
POLYLINE
  8
30
 66
1
 10
0.0000
 20
0.0000
 30
0.0000
 40
0.0000
 41
0.0000
 70
1
  0
VERTEX
  8
30
 10
12.7200
 20
15.4400
 30
0.0000
  0
VERTEX
  8
30
 10
13.2800
 20
15.4400
 30
0.0000
 42
1.0000
  0
VERTEX
  8
30
 10
13.2800
 20
15.9600
 30
0.0000
  0
VERTEX
  8
30
 10
12.7200
 20
15.9600
 30
0.0000
 42
1.0000
  0
SEQEND
  8
0
  0
POLYLINE
  8
30
 66
1
 10
0.0000
 20
0.0000
 30
0.0000
 40
0.0000
 41
0.0000
 70
1
  0
VERTEX
  8
30
 10
12.7200
 20
15.3400
 30
0.0000
  0
VERTEX
  8
30
 10
13.2800
 20
15.3400
 30
0.0000
 42
1.0000
  0
VERTEX
  8
30
 10
13.2800
 20
15.8600
 30
0.0000
  0
VERTEX
  8
30
 10
12.7200
 20
15.8600
 30
0.0000
 42
1.0000
  0
SEQEND
  8
0
  0
POLYLINE
  8
30
 66
1
 10
0.0000
 20
0.0000
 30
0.0000
 40
0.0000
 41
0.0000
 70
1
  0
VERTEX
  8
30
 10
91.3000
 20
92.7800
 30
0.0000
  0
VERTEX
  8
30
 10
90.9000
 20
92.7800
 30
0.0000
 42
1.0000
  0
VERTEX
  8
30
 10
90.9000
 20
92.2600
 30
0.0000
  0
VERTEX
  8
30
 10
91.3000
 20
92.2600
 30
0.0000
 42
1.0000
  0
SEQEND
  8
0
  0
POLYLINE
  8
30
 66
1
 10
0.0000
 20
0.0000
 30
0.0000
 40
0.0000
 41
0.0000
 70
1
  0
VERTEX
  8
30
 10
91.1600
 20
92.5200
 30
0.0000
  0
VERTEX
  8
30
 10
91.1600
 20
93.0800
 30
0.0000
 42
1.0000
  0
VERTEX
  8
30
 10
90.6400
 20
93.0800
 30
0.0000
  0
VERTEX
  8
30
 10
90.6400
 20
92.5200
 30
0.0000
 42
1.0000
  0
SEQEND
  8
0
  0
POLYLINE
  8
30
 66
1
 10
0.0000
 20
0.0000
 30
0.0000
 40
0.0000
 41
0.0000
 70
1
  0
VERTEX
  8
30
 10
90.9000
 20
92.8200
 30
0.0000
  0
VERTEX
  8
30
 10
91.3000
 20
92.8200
 30
0.0000
 42
1.0000
  0
VERTEX
  8
30
 10
91.3000
 20
93.3400
 30
0.0000
  0
VERTEX
  8
30
 10
90.9000
 20
93.3400
 30
0.0000
 42
1.0000
  0
SEQEND
  8
0
  0
POLYLINE
  8
30
 66
1
 10
0.0000
 20
0.0000
 30
0.0000
 40
0.0000
 41
0.0000
 70
1
  0
VERTEX
  8
30
 10
91.0400
 20
93.0800
 30
0.0000
  0
VERTEX
  8
30
 10
91.0400
 20
92.5200
 30
0.0000
 42
1.0000
  0
VERTEX
  8
30
 10
91.5600
 20
92.5200
 30
0.0000
  0
VERTEX
  8
30
 10
91.5600
 20
93.0800
 30
0.0000
 42
1.0000
  0
SEQEND
  8
0
  0
POLYLINE
  8
30
 66
1
 10
0.0000
 20
0.0000
 30
0.0000
 40
0.0000
 41
0.0000
 70
1
  0
VERTEX
  8
30
 10
90.9000
 20
92.3000
 30
0.0000
  0
VERTEX
  8
30
 10
91.3000
 20
92.3000
 30
0.0000
 42
1.0000
  0
VERTEX
  8
30
 10
91.3000
 20
92.8200
 30
0.0000
  0
VERTEX
  8
30
 10
90.9000
 20
92.8200
 30
0.0000
 42
1.0000
  0
SEQEND
  8
0
  0
POLYLINE
  8
30
 66
1
 10
0.0000
 20
0.0000
 30
0.0000
 40
0.0000
 41
0.0000
 70
1
  0
VERTEX
  8
30
 10
89.7000
 20
92.7800
 30
0.0000
  0
VERTEX
  8
30
 10
89.3000
 20
92.7800
 30
0.0000
 42
1.0000
  0
VERTEX
  8
30
 10
89.3000
 20
92.2600
 30
0.0000
  0
VERTEX
  8
30
 10
89.7000
 20
92.2600
 30
0.0000
 42
1.0000
  0
SEQEND
  8
0
  0
POLYLINE
  8
30
 66
1
 10
0.0000
 20
0.0000
 30
0.0000
 40
0.0000
 41
0.0000
 70
1
  0
VERTEX
  8
30
 10
89.5600
 20
92.5200
 30
0.0000
  0
VERTEX
  8
30
 10
89.5600
 20
93.0800
 30
0.0000
 42
1.0000
  0
VERTEX
  8
30
 10
89.0400
 20
93.0800
 30
0.0000
  0
VERTEX
  8
30
 10
89.0400
 20
92.5200
 30
0.0000
 42
1.0000
  0
SEQEND
  8
0
  0
POLYLINE
  8
30
 66
1
 10
0.0000
 20
0.0000
 30
0.0000
 40
0.0000
 41
0.0000
 70
1
  0
VERTEX
  8
30
 10
89.3000
 20
92.8200
 30
0.0000
  0
VERTEX
  8
30
 10
89.7000
 20
92.8200
 30
0.0000
 42
1.0000
  0
VERTEX
  8
30
 10
89.7000
 20
93.3400
 30
0.0000
  0
VERTEX
  8
30
 10
89.3000
 20
93.3400
 30
0.0000
 42
1.0000
  0
SEQEND
  8
0
  0
POLYLINE
  8
30
 66
1
 10
0.0000
 20
0.0000
 30
0.0000
 40
0.0000
 41
0.0000
 70
1
  0
VERTEX
  8
30
 10
89.4400
 20
93.0800
 30
0.0000
  0
VERTEX
  8
30
 10
89.4400
 20
92.5200
 30
0.0000
 42
1.0000
  0
VERTEX
  8
30
 10
89.9600
 20
92.5200
 30
0.0000
  0
VERTEX
  8
30
 10
89.9600
 20
93.0800
 30
0.0000
 42
1.0000
  0
SEQEND
  8
0
  0
POLYLINE
  8
30
 66
1
 10
0.0000
 20
0.0000
 30
0.0000
 40
0.0000
 41
0.0000
 70
1
  0
VERTEX
  8
30
 10
89.3000
 20
92.3000
 30
0.0000
  0
VERTEX
  8
30
 10
89.7000
 20
92.3000
 30
0.0000
 42
1.0000
  0
VERTEX
  8
30
 10
89.7000
 20
92.8200
 30
0.0000
  0
VERTEX
  8
30
 10
89.3000
 20
92.8200
 30
0.0000
 42
1.0000
  0
SEQEND
  8
0
  0
CIRCLE
  8
20
 10
10.3000
 20
87.0850
 30
0.0000
 40
0.8000
  0
CIRCLE
  8
30
 10
10.3000
 20
87.0850
 30
0.0000
 40
0.8635
  0
CIRCLE
  8
20
 10
10.3000
 20
76.3150
 30
0.0000
 40
0.8000
  0
CIRCLE
  8
30
 10
10.3000
 20
76.3150
 30
0.0000
 40
0.8635
  0
INSERT
  8
30
  2
RECT
 10
13.0500
 20
78.5250
 30
0.0000
 41
0.9270
 42
1.2270
 43
1.0000
 50
90.0000
  0
INSERT
  8
30
  2
RECT
 10
7.5500
 20
78.5250
 30
0.0000
 41
0.9270
 42
1.2270
 43
1.0000
 50
90.0000
  0
INSERT
  8
30
  2
RECT
 10
13.0500
 20
79.7950
 30
0.0000
 41
0.9270
 42
1.2270
 43
1.0000
 50
90.0000
  0
INSERT
  8
30
  2
RECT
 10
7.5500
 20
79.7950
 30
0.0000
 41
0.9270
 42
1.2270
 43
1.0000
 50
90.0000
  0
INSERT
  8
30
  2
RECT
 10
13.0500
 20
81.0650
 30
0.0000
 41
0.9270
 42
1.2270
 43
1.0000
 50
90.0000
  0
INSERT
  8
30
  2
RECT
 10
7.5500
 20
81.0650
 30
0.0000
 41
0.9270
 42
1.2270
 43
1.0000
 50
90.0000
  0
INSERT
  8
30
  2
RECT
 10
13.0500
 20
82.3350
 30
0.0000
 41
0.9270
 42
1.2270
 43
1.0000
 50
90.0000
  0
INSERT
  8
30
  2
RECT
 10
7.5500
 20
82.3350
 30
0.0000
 41
0.9270
 42
1.2270
 43
1.0000
 50
90.0000
  0
INSERT
  8
30
  2
RECT
 10
13.0500
 20
83.6050
 30
0.0000
 41
0.9270
 42
1.2270
 43
1.0000
 50
90.0000
  0
INSERT
  8
30
  2
RECT
 10
7.5500
 20
83.6050
 30
0.0000
 41
0.9270
 42
1.2270
 43
1.0000
 50
90.0000
  0
INSERT
  8
30
  2
RECT
 10
13.0500
 20
84.8750
 30
0.0000
 41
0.9270
 42
1.2270
 43
1.0000
 50
90.0000
  0
INSERT
  8
30
  2
RECT
 10
7.5500
 20
84.8750
 30
0.0000
 41
0.9270
 42
1.2270
 43
1.0000
 50
90.0000
  0
INSERT
  8
30
  2
RECT
 10
12.7500
 20
87.3700
 30
0.0000
 41
2.8270
 42
1.3270
 43
1.0000
 50
180.0000
  0
INSERT
  8
30
  2
RECT
 10
7.8500
 20
87.3700
 30
0.0000
 41
2.8270
 42
1.3270
 43
1.0000
 50
180.0000
  0
INSERT
  8
30
  2
RECT
 10
7.8500
 20
76.0300
 30
0.0000
 41
2.8270
 42
1.3270
 43
1.0000
 50
180.0000
  0
INSERT
  8
30
  2
RECT
 10
12.7500
 20
76.0300
 30
0.0000
 41
2.8270
 42
1.3270
 43
1.0000
 50
180.0000
  0
POLYLINE
  8
30
 66
1
 10
0.0000
 20
0.0000
 30
0.0000
 40
0.0000
 41
0.0000
 70
1
  0
VERTEX
  8
30
 10
19.4200
 20
89.9300
 30
0.0000
  0
VERTEX
  8
30
 10
19.4200
 20
89.5300
 30
0.0000
 42
1.0000
  0
VERTEX
  8
30
 10
19.9400
 20
89.5300
 30
0.0000
  0
VERTEX
  8
30
 10
19.9400
 20
89.9300
 30
0.0000
 42
1.0000
  0
SEQEND
  8
0
  0
POLYLINE
  8
30
 66
1
 10
0.0000
 20
0.0000
 30
0.0000
 40
0.0000
 41
0.0000
 70
1
  0
VERTEX
  8
30
 10
19.6800
 20
89.7900
 30
0.0000
  0
VERTEX
  8
30
 10
19.1200
 20
89.7900
 30
0.0000
 42
1.0000
  0
VERTEX
  8
30
 10
19.1200
 20
89.2700
 30
0.0000
  0
VERTEX
  8
30
 10
19.6800
 20
89.2700
 30
0.0000
 42
1.0000
  0
SEQEND
  8
0
  0
POLYLINE
  8
30
 66
1
 10
0.0000
 20
0.0000
 30
0.0000
 40
0.0000
 41
0.0000
 70
1
  0
VERTEX
  8
30
 10
19.3800
 20
89.5300
 30
0.0000
  0
VERTEX
  8
30
 10
19.3800
 20
89.9300
 30
0.0000
 42
1.0000
  0
VERTEX
  8
30
 10
18.8600
 20
89.9300
 30
0.0000
  0
VERTEX
  8
30
 10
18.8600
 20
89.5300
 30
0.0000
 42
1.0000
  0
SEQEND
  8
0
  0
POLYLINE
  8
30
 66
1
 10
0.0000
 20
0.0000
 30
0.0000
 40
0.0000
 41
0.0000
 70
1
  0
VERTEX
  8
30
 10
19.1200
 20
89.6700
 30
0.0000
  0
VERTEX
  8
30
 10
19.6800
 20
89.6700
 30
0.0000
 42
1.0000
  0
VERTEX
  8
30
 10
19.6800
 20
90.1900
 30
0.0000
  0
VERTEX
  8
30
 10
19.1200
 20
90.1900
 30
0.0000
 42
1.0000
  0
SEQEND
  8
0
  0
POLYLINE
  8
30
 66
1
 10
0.0000
 20
0.0000
 30
0.0000
 40
0.0000
 41
0.0000
 70
1
  0
VERTEX
  8
30
 10
19.4200
 20
88.3300
 30
0.0000
  0
VERTEX
  8
30
 10
19.4200
 20
87.9300
 30
0.0000
 42
1.0000
  0
VERTEX
  8
30
 10
19.9400
 20
87.9300
 30
0.0000
  0
VERTEX
  8
30
 10
19.9400
 20
88.3300
 30
0.0000
 42
1.0000
  0
SEQEND
  8
0
  0
POLYLINE
  8
30
 66
1
 10
0.0000
 20
0.0000
 30
0.0000
 40
0.0000
 41
0.0000
 70
1
  0
VERTEX
  8
30
 10
19.6800
 20
88.1900
 30
0.0000
  0
VERTEX
  8
30
 10
19.1200
 20
88.1900
 30
0.0000
 42
1.0000
  0
VERTEX
  8
30
 10
19.1200
 20
87.6700
 30
0.0000
  0
VERTEX
  8
30
 10
19.6800
 20
87.6700
 30
0.0000
 42
1.0000
  0
SEQEND
  8
0
  0
POLYLINE
  8
30
 66
1
 10
0.0000
 20
0.0000
 30
0.0000
 40
0.0000
 41
0.0000
 70
1
  0
VERTEX
  8
30
 10
19.3800
 20
87.9300
 30
0.0000
  0
VERTEX
  8
30
 10
19.3800
 20
88.3300
 30
0.0000
 42
1.0000
  0
VERTEX
  8
30
 10
18.8600
 20
88.3300
 30
0.0000
  0
VERTEX
  8
30
 10
18.8600
 20
87.9300
 30
0.0000
 42
1.0000
  0
SEQEND
  8
0
  0
POLYLINE
  8
30
 66
1
 10
0.0000
 20
0.0000
 30
0.0000
 40
0.0000
 41
0.0000
 70
1
  0
VERTEX
  8
30
 10
19.1200
 20
88.0700
 30
0.0000
  0
VERTEX
  8
30
 10
19.6800
 20
88.0700
 30
0.0000
 42
1.0000
  0
VERTEX
  8
30
 10
19.6800
 20
88.5900
 30
0.0000
  0
VERTEX
  8
30
 10
19.1200
 20
88.5900
 30
0.0000
 42
1.0000
  0
SEQEND
  8
0
  0
POLYLINE
  8
30
 66
1
 10
0.0000
 20
0.0000
 30
0.0000
 40
0.0000
 41
0.0000
 70
1
  0
VERTEX
  8
30
 10
75.2700
 20
97.5500
 30
0.0000
  0
VERTEX
  8
30
 10
75.2700
 20
97.1500
 30
0.0000
 42
1.0000
  0
VERTEX
  8
30
 10
75.7900
 20
97.1500
 30
0.0000
  0
VERTEX
  8
30
 10
75.7900
 20
97.5500
 30
0.0000
 42
1.0000
  0
SEQEND
  8
0
  0
POLYLINE
  8
30
 66
1
 10
0.0000
 20
0.0000
 30
0.0000
 40
0.0000
 41
0.0000
 70
1
  0
VERTEX
  8
30
 10
75.5300
 20
97.4100
 30
0.0000
  0
VERTEX
  8
30
 10
74.9700
 20
97.4100
 30
0.0000
 42
1.0000
  0
VERTEX
  8
30
 10
74.9700
 20
96.8900
 30
0.0000
  0
VERTEX
  8
30
 10
75.5300
 20
96.8900
 30
0.0000
 42
1.0000
  0
SEQEND
  8
0
  0
POLYLINE
  8
30
 66
1
 10
0.0000
 20
0.0000
 30
0.0000
 40
0.0000
 41
0.0000
 70
1
  0
VERTEX
  8
30
 10
75.2300
 20
97.1500
 30
0.0000
  0
VERTEX
  8
30
 10
75.2300
 20
97.5500
 30
0.0000
 42
1.0000
  0
VERTEX
  8
30
 10
74.7100
 20
97.5500
 30
0.0000
  0
VERTEX
  8
30
 10
74.7100
 20
97.1500
 30
0.0000
 42
1.0000
  0
SEQEND
  8
0
  0
POLYLINE
  8
30
 66
1
 10
0.0000
 20
0.0000
 30
0.0000
 40
0.0000
 41
0.0000
 70
1
  0
VERTEX
  8
30
 10
74.9700
 20
97.2900
 30
0.0000
  0
VERTEX
  8
30
 10
75.5300
 20
97.2900
 30
0.0000
 42
1.0000
  0
VERTEX
  8
30
 10
75.5300
 20
97.8100
 30
0.0000
  0
VERTEX
  8
30
 10
74.9700
 20
97.8100
 30
0.0000
 42
1.0000
  0
SEQEND
  8
0
  0
POLYLINE
  8
30
 66
1
 10
0.0000
 20
0.0000
 30
0.0000
 40
0.0000
 41
0.0000
 70
1
  0
VERTEX
  8
30
 10
74.9700
 20
96.9800
 30
0.0000
  0
VERTEX
  8
30
 10
75.5300
 20
96.9800
 30
0.0000
 42
1.0000
  0
VERTEX
  8
30
 10
75.5300
 20
97.5000
 30
0.0000
  0
VERTEX
  8
30
 10
74.9700
 20
97.5000
 30
0.0000
 42
1.0000
  0
SEQEND
  8
0
  0
POLYLINE
  8
30
 66
1
 10
0.0000
 20
0.0000
 30
0.0000
 40
0.0000
 41
0.0000
 70
1
  0
VERTEX
  8
30
 10
75.2700
 20
95.9500
 30
0.0000
  0
VERTEX
  8
30
 10
75.2700
 20
95.5500
 30
0.0000
 42
1.0000
  0
VERTEX
  8
30
 10
75.7900
 20
95.5500
 30
0.0000
  0
VERTEX
  8
30
 10
75.7900
 20
95.9500
 30
0.0000
 42
1.0000
  0
SEQEND
  8
0
  0
POLYLINE
  8
30
 66
1
 10
0.0000
 20
0.0000
 30
0.0000
 40
0.0000
 41
0.0000
 70
1
  0
VERTEX
  8
30
 10
75.5300
 20
95.8100
 30
0.0000
  0
VERTEX
  8
30
 10
74.9700
 20
95.8100
 30
0.0000
 42
1.0000
  0
VERTEX
  8
30
 10
74.9700
 20
95.2900
 30
0.0000
  0
VERTEX
  8
30
 10
75.5300
 20
95.2900
 30
0.0000
 42
1.0000
  0
SEQEND
  8
0
  0
POLYLINE
  8
30
 66
1
 10
0.0000
 20
0.0000
 30
0.0000
 40
0.0000
 41
0.0000
 70
1
  0
VERTEX
  8
30
 10
75.2300
 20
95.5500
 30
0.0000
  0
VERTEX
  8
30
 10
75.2300
 20
95.9500
 30
0.0000
 42
1.0000
  0
VERTEX
  8
30
 10
74.7100
 20
95.9500
 30
0.0000
  0
VERTEX
  8
30
 10
74.7100
 20
95.5500
 30
0.0000
 42
1.0000
  0
SEQEND
  8
0
  0
POLYLINE
  8
30
 66
1
 10
0.0000
 20
0.0000
 30
0.0000
 40
0.0000
 41
0.0000
 70
1
  0
VERTEX
  8
30
 10
74.9700
 20
95.6900
 30
0.0000
  0
VERTEX
  8
30
 10
75.5300
 20
95.6900
 30
0.0000
 42
1.0000
  0
VERTEX
  8
30
 10
75.5300
 20
96.2100
 30
0.0000
  0
VERTEX
  8
30
 10
74.9700
 20
96.2100
 30
0.0000
 42
1.0000
  0
SEQEND
  8
0
  0
POLYLINE
  8
30
 66
1
 10
0.0000
 20
0.0000
 30
0.0000
 40
0.0000
 41
0.0000
 70
1
  0
VERTEX
  8
30
 10
74.9700
 20
95.4200
 30
0.0000
  0
VERTEX
  8
30
 10
75.5300
 20
95.4200
 30
0.0000
 42
1.0000
  0
VERTEX
  8
30
 10
75.5300
 20
95.9400
 30
0.0000
  0
VERTEX
  8
30
 10
74.9700
 20
95.9400
 30
0.0000
 42
1.0000
  0
SEQEND
  8
0
  0
POLYLINE
  8
30
 66
1
 10
0.0000
 20
0.0000
 30
0.0000
 40
0.0000
 41
0.0000
 70
1
  0
VERTEX
  8
30
 10
30.2200
 20
97.5500
 30
0.0000
  0
VERTEX
  8
30
 10
30.2200
 20
97.1500
 30
0.0000
 42
1.0000
  0
VERTEX
  8
30
 10
30.7400
 20
97.1500
 30
0.0000
  0
VERTEX
  8
30
 10
30.7400
 20
97.5500
 30
0.0000
 42
1.0000
  0
SEQEND
  8
0
  0
POLYLINE
  8
30
 66
1
 10
0.0000
 20
0.0000
 30
0.0000
 40
0.0000
 41
0.0000
 70
1
  0
VERTEX
  8
30
 10
30.4800
 20
97.4100
 30
0.0000
  0
VERTEX
  8
30
 10
29.9200
 20
97.4100
 30
0.0000
 42
1.0000
  0
VERTEX
  8
30
 10
29.9200
 20
96.8900
 30
0.0000
  0
VERTEX
  8
30
 10
30.4800
 20
96.8900
 30
0.0000
 42
1.0000
  0
SEQEND
  8
0
  0
POLYLINE
  8
30
 66
1
 10
0.0000
 20
0.0000
 30
0.0000
 40
0.0000
 41
0.0000
 70
1
  0
VERTEX
  8
30
 10
30.1800
 20
97.1500
 30
0.0000
  0
VERTEX
  8
30
 10
30.1800
 20
97.5500
 30
0.0000
 42
1.0000
  0
VERTEX
  8
30
 10
29.6600
 20
97.5500
 30
0.0000
  0
VERTEX
  8
30
 10
29.6600
 20
97.1500
 30
0.0000
 42
1.0000
  0
SEQEND
  8
0
  0
POLYLINE
  8
30
 66
1
 10
0.0000
 20
0.0000
 30
0.0000
 40
0.0000
 41
0.0000
 70
1
  0
VERTEX
  8
30
 10
29.9200
 20
97.2900
 30
0.0000
  0
VERTEX
  8
30
 10
30.4800
 20
97.2900
 30
0.0000
 42
1.0000
  0
VERTEX
  8
30
 10
30.4800
 20
97.8100
 30
0.0000
  0
VERTEX
  8
30
 10
29.9200
 20
97.8100
 30
0.0000
 42
1.0000
  0
SEQEND
  8
0
  0
POLYLINE
  8
30
 66
1
 10
0.0000
 20
0.0000
 30
0.0000
 40
0.0000
 41
0.0000
 70
1
  0
VERTEX
  8
30
 10
29.9200
 20
96.9800
 30
0.0000
  0
VERTEX
  8
30
 10
30.4800
 20
96.9800
 30
0.0000
 42
1.0000
  0
VERTEX
  8
30
 10
30.4800
 20
97.5000
 30
0.0000
  0
VERTEX
  8
30
 10
29.9200
 20
97.5000
 30
0.0000
 42
1.0000
  0
SEQEND
  8
0
  0
POLYLINE
  8
30
 66
1
 10
0.0000
 20
0.0000
 30
0.0000
 40
0.0000
 41
0.0000
 70
1
  0
VERTEX
  8
30
 10
30.2200
 20
95.9500
 30
0.0000
  0
VERTEX
  8
30
 10
30.2200
 20
95.5500
 30
0.0000
 42
1.0000
  0
VERTEX
  8
30
 10
30.7400
 20
95.5500
 30
0.0000
  0
VERTEX
  8
30
 10
30.7400
 20
95.9500
 30
0.0000
 42
1.0000
  0
SEQEND
  8
0
  0
POLYLINE
  8
30
 66
1
 10
0.0000
 20
0.0000
 30
0.0000
 40
0.0000
 41
0.0000
 70
1
  0
VERTEX
  8
30
 10
30.4800
 20
95.8100
 30
0.0000
  0
VERTEX
  8
30
 10
29.9200
 20
95.8100
 30
0.0000
 42
1.0000
  0
VERTEX
  8
30
 10
29.9200
 20
95.2900
 30
0.0000
  0
VERTEX
  8
30
 10
30.4800
 20
95.2900
 30
0.0000
 42
1.0000
  0
SEQEND
  8
0
  0
POLYLINE
  8
30
 66
1
 10
0.0000
 20
0.0000
 30
0.0000
 40
0.0000
 41
0.0000
 70
1
  0
VERTEX
  8
30
 10
30.1800
 20
95.5500
 30
0.0000
  0
VERTEX
  8
30
 10
30.1800
 20
95.9500
 30
0.0000
 42
1.0000
  0
VERTEX
  8
30
 10
29.6600
 20
95.9500
 30
0.0000
  0
VERTEX
  8
30
 10
29.6600
 20
95.5500
 30
0.0000
 42
1.0000
  0
SEQEND
  8
0
  0
POLYLINE
  8
30
 66
1
 10
0.0000
 20
0.0000
 30
0.0000
 40
0.0000
 41
0.0000
 70
1
  0
VERTEX
  8
30
 10
29.9200
 20
95.6900
 30
0.0000
  0
VERTEX
  8
30
 10
30.4800
 20
95.6900
 30
0.0000
 42
1.0000
  0
VERTEX
  8
30
 10
30.4800
 20
96.2100
 30
0.0000
  0
VERTEX
  8
30
 10
29.9200
 20
96.2100
 30
0.0000
 42
1.0000
  0
SEQEND
  8
0
  0
POLYLINE
  8
30
 66
1
 10
0.0000
 20
0.0000
 30
0.0000
 40
0.0000
 41
0.0000
 70
1
  0
VERTEX
  8
30
 10
29.9200
 20
95.4200
 30
0.0000
  0
VERTEX
  8
30
 10
30.4800
 20
95.4200
 30
0.0000
 42
1.0000
  0
VERTEX
  8
30
 10
30.4800
 20
95.9400
 30
0.0000
  0
VERTEX
  8
30
 10
29.9200
 20
95.9400
 30
0.0000
 42
1.0000
  0
SEQEND
  8
0
  0
POLYLINE
  8
30
 66
1
 10
0.0000
 20
0.0000
 30
0.0000
 40
0.0000
 41
0.0000
 70
1
  0
VERTEX
  8
30
 10
77.2700
 20
97.5500
 30
0.0000
  0
VERTEX
  8
30
 10
77.2700
 20
97.1500
 30
0.0000
 42
1.0000
  0
VERTEX
  8
30
 10
77.7900
 20
97.1500
 30
0.0000
  0
VERTEX
  8
30
 10
77.7900
 20
97.5500
 30
0.0000
 42
1.0000
  0
SEQEND
  8
0
  0
POLYLINE
  8
30
 66
1
 10
0.0000
 20
0.0000
 30
0.0000
 40
0.0000
 41
0.0000
 70
1
  0
VERTEX
  8
30
 10
77.5300
 20
97.4100
 30
0.0000
  0
VERTEX
  8
30
 10
76.9700
 20
97.4100
 30
0.0000
 42
1.0000
  0
VERTEX
  8
30
 10
76.9700
 20
96.8900
 30
0.0000
  0
VERTEX
  8
30
 10
77.5300
 20
96.8900
 30
0.0000
 42
1.0000
  0
SEQEND
  8
0
  0
POLYLINE
  8
30
 66
1
 10
0.0000
 20
0.0000
 30
0.0000
 40
0.0000
 41
0.0000
 70
1
  0
VERTEX
  8
30
 10
77.2300
 20
97.1500
 30
0.0000
  0
VERTEX
  8
30
 10
77.2300
 20
97.5500
 30
0.0000
 42
1.0000
  0
VERTEX
  8
30
 10
76.7100
 20
97.5500
 30
0.0000
  0
VERTEX
  8
30
 10
76.7100
 20
97.1500
 30
0.0000
 42
1.0000
  0
SEQEND
  8
0
  0
POLYLINE
  8
30
 66
1
 10
0.0000
 20
0.0000
 30
0.0000
 40
0.0000
 41
0.0000
 70
1
  0
VERTEX
  8
30
 10
76.9700
 20
97.2900
 30
0.0000
  0
VERTEX
  8
30
 10
77.5300
 20
97.2900
 30
0.0000
 42
1.0000
  0
VERTEX
  8
30
 10
77.5300
 20
97.8100
 30
0.0000
  0
VERTEX
  8
30
 10
76.9700
 20
97.8100
 30
0.0000
 42
1.0000
  0
SEQEND
  8
0
  0
POLYLINE
  8
30
 66
1
 10
0.0000
 20
0.0000
 30
0.0000
 40
0.0000
 41
0.0000
 70
1
  0
VERTEX
  8
30
 10
76.9700
 20
96.9800
 30
0.0000
  0
VERTEX
  8
30
 10
77.5300
 20
96.9800
 30
0.0000
 42
1.0000
  0
VERTEX
  8
30
 10
77.5300
 20
97.5000
 30
0.0000
  0
VERTEX
  8
30
 10
76.9700
 20
97.5000
 30
0.0000
 42
1.0000
  0
SEQEND
  8
0
  0
POLYLINE
  8
30
 66
1
 10
0.0000
 20
0.0000
 30
0.0000
 40
0.0000
 41
0.0000
 70
1
  0
VERTEX
  8
30
 10
77.2700
 20
95.9500
 30
0.0000
  0
VERTEX
  8
30
 10
77.2700
 20
95.5500
 30
0.0000
 42
1.0000
  0
VERTEX
  8
30
 10
77.7900
 20
95.5500
 30
0.0000
  0
VERTEX
  8
30
 10
77.7900
 20
95.9500
 30
0.0000
 42
1.0000
  0
SEQEND
  8
0
  0
POLYLINE
  8
30
 66
1
 10
0.0000
 20
0.0000
 30
0.0000
 40
0.0000
 41
0.0000
 70
1
  0
VERTEX
  8
30
 10
77.5300
 20
95.8100
 30
0.0000
  0
VERTEX
  8
30
 10
76.9700
 20
95.8100
 30
0.0000
 42
1.0000
  0
VERTEX
  8
30
 10
76.9700
 20
95.2900
 30
0.0000
  0
VERTEX
  8
30
 10
77.5300
 20
95.2900
 30
0.0000
 42
1.0000
  0
SEQEND
  8
0
  0
POLYLINE
  8
30
 66
1
 10
0.0000
 20
0.0000
 30
0.0000
 40
0.0000
 41
0.0000
 70
1
  0
VERTEX
  8
30
 10
77.2300
 20
95.5500
 30
0.0000
  0
VERTEX
  8
30
 10
77.2300
 20
95.9500
 30
0.0000
 42
1.0000
  0
VERTEX
  8
30
 10
76.7100
 20
95.9500
 30
0.0000
  0
VERTEX
  8
30
 10
76.7100
 20
95.5500
 30
0.0000
 42
1.0000
  0
SEQEND
  8
0
  0
POLYLINE
  8
30
 66
1
 10
0.0000
 20
0.0000
 30
0.0000
 40
0.0000
 41
0.0000
 70
1
  0
VERTEX
  8
30
 10
76.9700
 20
95.6900
 30
0.0000
  0
VERTEX
  8
30
 10
77.5300
 20
95.6900
 30
0.0000
 42
1.0000
  0
VERTEX
  8
30
 10
77.5300
 20
96.2100
 30
0.0000
  0
VERTEX
  8
30
 10
76.9700
 20
96.2100
 30
0.0000
 42
1.0000
  0
SEQEND
  8
0
  0
POLYLINE
  8
30
 66
1
 10
0.0000
 20
0.0000
 30
0.0000
 40
0.0000
 41
0.0000
 70
1
  0
VERTEX
  8
30
 10
76.9700
 20
95.4200
 30
0.0000
  0
VERTEX
  8
30
 10
77.5300
 20
95.4200
 30
0.0000
 42
1.0000
  0
VERTEX
  8
30
 10
77.5300
 20
95.9400
 30
0.0000
  0
VERTEX
  8
30
 10
76.9700
 20
95.9400
 30
0.0000
 42
1.0000
  0
SEQEND
  8
0
  0
POLYLINE
  8
30
 66
1
 10
0.0000
 20
0.0000
 30
0.0000
 40
0.0000
 41
0.0000
 70
1
  0
VERTEX
  8
30
 10
79.2700
 20
97.5500
 30
0.0000
  0
VERTEX
  8
30
 10
79.2700
 20
97.1500
 30
0.0000
 42
1.0000
  0
VERTEX
  8
30
 10
79.7900
 20
97.1500
 30
0.0000
  0
VERTEX
  8
30
 10
79.7900
 20
97.5500
 30
0.0000
 42
1.0000
  0
SEQEND
  8
0
  0
POLYLINE
  8
30
 66
1
 10
0.0000
 20
0.0000
 30
0.0000
 40
0.0000
 41
0.0000
 70
1
  0
VERTEX
  8
30
 10
79.5300
 20
97.4100
 30
0.0000
  0
VERTEX
  8
30
 10
78.9700
 20
97.4100
 30
0.0000
 42
1.0000
  0
VERTEX
  8
30
 10
78.9700
 20
96.8900
 30
0.0000
  0
VERTEX
  8
30
 10
79.5300
 20
96.8900
 30
0.0000
 42
1.0000
  0
SEQEND
  8
0
  0
POLYLINE
  8
30
 66
1
 10
0.0000
 20
0.0000
 30
0.0000
 40
0.0000
 41
0.0000
 70
1
  0
VERTEX
  8
30
 10
79.2300
 20
97.1500
 30
0.0000
  0
VERTEX
  8
30
 10
79.2300
 20
97.5500
 30
0.0000
 42
1.0000
  0
VERTEX
  8
30
 10
78.7100
 20
97.5500
 30
0.0000
  0
VERTEX
  8
30
 10
78.7100
 20
97.1500
 30
0.0000
 42
1.0000
  0
SEQEND
  8
0
  0
POLYLINE
  8
30
 66
1
 10
0.0000
 20
0.0000
 30
0.0000
 40
0.0000
 41
0.0000
 70
1
  0
VERTEX
  8
30
 10
78.9700
 20
97.2900
 30
0.0000
  0
VERTEX
  8
30
 10
79.5300
 20
97.2900
 30
0.0000
 42
1.0000
  0
VERTEX
  8
30
 10
79.5300
 20
97.8100
 30
0.0000
  0
VERTEX
  8
30
 10
78.9700
 20
97.8100
 30
0.0000
 42
1.0000
  0
SEQEND
  8
0
  0
POLYLINE
  8
30
 66
1
 10
0.0000
 20
0.0000
 30
0.0000
 40
0.0000
 41
0.0000
 70
1
  0
VERTEX
  8
30
 10
78.9700
 20
96.9800
 30
0.0000
  0
VERTEX
  8
30
 10
79.5300
 20
96.9800
 30
0.0000
 42
1.0000
  0
VERTEX
  8
30
 10
79.5300
 20
97.5000
 30
0.0000
  0
VERTEX
  8
30
 10
78.9700
 20
97.5000
 30
0.0000
 42
1.0000
  0
SEQEND
  8
0
  0
POLYLINE
  8
30
 66
1
 10
0.0000
 20
0.0000
 30
0.0000
 40
0.0000
 41
0.0000
 70
1
  0
VERTEX
  8
30
 10
79.2700
 20
95.9500
 30
0.0000
  0
VERTEX
  8
30
 10
79.2700
 20
95.5500
 30
0.0000
 42
1.0000
  0
VERTEX
  8
30
 10
79.7900
 20
95.5500
 30
0.0000
  0
VERTEX
  8
30
 10
79.7900
 20
95.9500
 30
0.0000
 42
1.0000
  0
SEQEND
  8
0
  0
POLYLINE
  8
30
 66
1
 10
0.0000
 20
0.0000
 30
0.0000
 40
0.0000
 41
0.0000
 70
1
  0
VERTEX
  8
30
 10
79.5300
 20
95.8100
 30
0.0000
  0
VERTEX
  8
30
 10
78.9700
 20
95.8100
 30
0.0000
 42
1.0000
  0
VERTEX
  8
30
 10
78.9700
 20
95.2900
 30
0.0000
  0
VERTEX
  8
30
 10
79.5300
 20
95.2900
 30
0.0000
 42
1.0000
  0
SEQEND
  8
0
  0
POLYLINE
  8
30
 66
1
 10
0.0000
 20
0.0000
 30
0.0000
 40
0.0000
 41
0.0000
 70
1
  0
VERTEX
  8
30
 10
79.2300
 20
95.5500
 30
0.0000
  0
VERTEX
  8
30
 10
79.2300
 20
95.9500
 30
0.0000
 42
1.0000
  0
VERTEX
  8
30
 10
78.7100
 20
95.9500
 30
0.0000
  0
VERTEX
  8
30
 10
78.7100
 20
95.5500
 30
0.0000
 42
1.0000
  0
SEQEND
  8
0
  0
POLYLINE
  8
30
 66
1
 10
0.0000
 20
0.0000
 30
0.0000
 40
0.0000
 41
0.0000
 70
1
  0
VERTEX
  8
30
 10
78.9700
 20
95.6900
 30
0.0000
  0
VERTEX
  8
30
 10
79.5300
 20
95.6900
 30
0.0000
 42
1.0000
  0
VERTEX
  8
30
 10
79.5300
 20
96.2100
 30
0.0000
  0
VERTEX
  8
30
 10
78.9700
 20
96.2100
 30
0.0000
 42
1.0000
  0
SEQEND
  8
0
  0
POLYLINE
  8
30
 66
1
 10
0.0000
 20
0.0000
 30
0.0000
 40
0.0000
 41
0.0000
 70
1
  0
VERTEX
  8
30
 10
78.9700
 20
95.4200
 30
0.0000
  0
VERTEX
  8
30
 10
79.5300
 20
95.4200
 30
0.0000
 42
1.0000
  0
VERTEX
  8
30
 10
79.5300
 20
95.9400
 30
0.0000
  0
VERTEX
  8
30
 10
78.9700
 20
95.9400
 30
0.0000
 42
1.0000
  0
SEQEND
  8
0
  0
POLYLINE
  8
30
 66
1
 10
0.0000
 20
0.0000
 30
0.0000
 40
0.0000
 41
0.0000
 70
1
  0
VERTEX
  8
30
 10
28.7200
 20
97.5500
 30
0.0000
  0
VERTEX
  8
30
 10
28.7200
 20
97.1500
 30
0.0000
 42
1.0000
  0
VERTEX
  8
30
 10
29.2400
 20
97.1500
 30
0.0000
  0
VERTEX
  8
30
 10
29.2400
 20
97.5500
 30
0.0000
 42
1.0000
  0
SEQEND
  8
0
  0
POLYLINE
  8
30
 66
1
 10
0.0000
 20
0.0000
 30
0.0000
 40
0.0000
 41
0.0000
 70
1
  0
VERTEX
  8
30
 10
28.9800
 20
97.4100
 30
0.0000
  0
VERTEX
  8
30
 10
28.4200
 20
97.4100
 30
0.0000
 42
1.0000
  0
VERTEX
  8
30
 10
28.4200
 20
96.8900
 30
0.0000
  0
VERTEX
  8
30
 10
28.9800
 20
96.8900
 30
0.0000
 42
1.0000
  0
SEQEND
  8
0
  0
POLYLINE
  8
30
 66
1
 10
0.0000
 20
0.0000
 30
0.0000
 40
0.0000
 41
0.0000
 70
1
  0
VERTEX
  8
30
 10
28.6800
 20
97.1500
 30
0.0000
  0
VERTEX
  8
30
 10
28.6800
 20
97.5500
 30
0.0000
 42
1.0000
  0
VERTEX
  8
30
 10
28.1600
 20
97.5500
 30
0.0000
  0
VERTEX
  8
30
 10
28.1600
 20
97.1500
 30
0.0000
 42
1.0000
  0
SEQEND
  8
0
  0
POLYLINE
  8
30
 66
1
 10
0.0000
 20
0.0000
 30
0.0000
 40
0.0000
 41
0.0000
 70
1
  0
VERTEX
  8
30
 10
28.4200
 20
97.2900
 30
0.0000
  0
VERTEX
  8
30
 10
28.9800
 20
97.2900
 30
0.0000
 42
1.0000
  0
VERTEX
  8
30
 10
28.9800
 20
97.8100
 30
0.0000
  0
VERTEX
  8
30
 10
28.4200
 20
97.8100
 30
0.0000
 42
1.0000
  0
SEQEND
  8
0
  0
POLYLINE
  8
30
 66
1
 10
0.0000
 20
0.0000
 30
0.0000
 40
0.0000
 41
0.0000
 70
1
  0
VERTEX
  8
30
 10
28.4200
 20
96.9800
 30
0.0000
  0
VERTEX
  8
30
 10
28.9800
 20
96.9800
 30
0.0000
 42
1.0000
  0
VERTEX
  8
30
 10
28.9800
 20
97.5000
 30
0.0000
  0
VERTEX
  8
30
 10
28.4200
 20
97.5000
 30
0.0000
 42
1.0000
  0
SEQEND
  8
0
  0
POLYLINE
  8
30
 66
1
 10
0.0000
 20
0.0000
 30
0.0000
 40
0.0000
 41
0.0000
 70
1
  0
VERTEX
  8
30
 10
28.7200
 20
95.9500
 30
0.0000
  0
VERTEX
  8
30
 10
28.7200
 20
95.5500
 30
0.0000
 42
1.0000
  0
VERTEX
  8
30
 10
29.2400
 20
95.5500
 30
0.0000
  0
VERTEX
  8
30
 10
29.2400
 20
95.9500
 30
0.0000
 42
1.0000
  0
SEQEND
  8
0
  0
POLYLINE
  8
30
 66
1
 10
0.0000
 20
0.0000
 30
0.0000
 40
0.0000
 41
0.0000
 70
1
  0
VERTEX
  8
30
 10
28.9800
 20
95.8100
 30
0.0000
  0
VERTEX
  8
30
 10
28.4200
 20
95.8100
 30
0.0000
 42
1.0000
  0
VERTEX
  8
30
 10
28.4200
 20
95.2900
 30
0.0000
  0
VERTEX
  8
30
 10
28.9800
 20
95.2900
 30
0.0000
 42
1.0000
  0
SEQEND
  8
0
  0
POLYLINE
  8
30
 66
1
 10
0.0000
 20
0.0000
 30
0.0000
 40
0.0000
 41
0.0000
 70
1
  0
VERTEX
  8
30
 10
28.6800
 20
95.5500
 30
0.0000
  0
VERTEX
  8
30
 10
28.6800
 20
95.9500
 30
0.0000
 42
1.0000
  0
VERTEX
  8
30
 10
28.1600
 20
95.9500
 30
0.0000
  0
VERTEX
  8
30
 10
28.1600
 20
95.5500
 30
0.0000
 42
1.0000
  0
SEQEND
  8
0
  0
POLYLINE
  8
30
 66
1
 10
0.0000
 20
0.0000
 30
0.0000
 40
0.0000
 41
0.0000
 70
1
  0
VERTEX
  8
30
 10
28.4200
 20
95.6900
 30
0.0000
  0
VERTEX
  8
30
 10
28.9800
 20
95.6900
 30
0.0000
 42
1.0000
  0
VERTEX
  8
30
 10
28.9800
 20
96.2100
 30
0.0000
  0
VERTEX
  8
30
 10
28.4200
 20
96.2100
 30
0.0000
 42
1.0000
  0
SEQEND
  8
0
  0
POLYLINE
  8
30
 66
1
 10
0.0000
 20
0.0000
 30
0.0000
 40
0.0000
 41
0.0000
 70
1
  0
VERTEX
  8
30
 10
28.4200
 20
95.4200
 30
0.0000
  0
VERTEX
  8
30
 10
28.9800
 20
95.4200
 30
0.0000
 42
1.0000
  0
VERTEX
  8
30
 10
28.9800
 20
95.9400
 30
0.0000
  0
VERTEX
  8
30
 10
28.4200
 20
95.9400
 30
0.0000
 42
1.0000
  0
SEQEND
  8
0
  0
POLYLINE
  8
30
 66
1
 10
0.0000
 20
0.0000
 30
0.0000
 40
0.0000
 41
0.0000
 70
1
  0
VERTEX
  8
30
 10
27.2200
 20
97.5500
 30
0.0000
  0
VERTEX
  8
30
 10
27.2200
 20
97.1500
 30
0.0000
 42
1.0000
  0
VERTEX
  8
30
 10
27.7400
 20
97.1500
 30
0.0000
  0
VERTEX
  8
30
 10
27.7400
 20
97.5500
 30
0.0000
 42
1.0000
  0
SEQEND
  8
0
  0
POLYLINE
  8
30
 66
1
 10
0.0000
 20
0.0000
 30
0.0000
 40
0.0000
 41
0.0000
 70
1
  0
VERTEX
  8
30
 10
27.4800
 20
97.4100
 30
0.0000
  0
VERTEX
  8
30
 10
26.9200
 20
97.4100
 30
0.0000
 42
1.0000
  0
VERTEX
  8
30
 10
26.9200
 20
96.8900
 30
0.0000
  0
VERTEX
  8
30
 10
27.4800
 20
96.8900
 30
0.0000
 42
1.0000
  0
SEQEND
  8
0
  0
POLYLINE
  8
30
 66
1
 10
0.0000
 20
0.0000
 30
0.0000
 40
0.0000
 41
0.0000
 70
1
  0
VERTEX
  8
30
 10
27.1800
 20
97.1500
 30
0.0000
  0
VERTEX
  8
30
 10
27.1800
 20
97.5500
 30
0.0000
 42
1.0000
  0
VERTEX
  8
30
 10
26.6600
 20
97.5500
 30
0.0000
  0
VERTEX
  8
30
 10
26.6600
 20
97.1500
 30
0.0000
 42
1.0000
  0
SEQEND
  8
0
  0
POLYLINE
  8
30
 66
1
 10
0.0000
 20
0.0000
 30
0.0000
 40
0.0000
 41
0.0000
 70
1
  0
VERTEX
  8
30
 10
26.9200
 20
97.2900
 30
0.0000
  0
VERTEX
  8
30
 10
27.4800
 20
97.2900
 30
0.0000
 42
1.0000
  0
VERTEX
  8
30
 10
27.4800
 20
97.8100
 30
0.0000
  0
VERTEX
  8
30
 10
26.9200
 20
97.8100
 30
0.0000
 42
1.0000
  0
SEQEND
  8
0
  0
POLYLINE
  8
30
 66
1
 10
0.0000
 20
0.0000
 30
0.0000
 40
0.0000
 41
0.0000
 70
1
  0
VERTEX
  8
30
 10
26.9200
 20
96.9800
 30
0.0000
  0
VERTEX
  8
30
 10
27.4800
 20
96.9800
 30
0.0000
 42
1.0000
  0
VERTEX
  8
30
 10
27.4800
 20
97.5000
 30
0.0000
  0
VERTEX
  8
30
 10
26.9200
 20
97.5000
 30
0.0000
 42
1.0000
  0
SEQEND
  8
0
  0
POLYLINE
  8
30
 66
1
 10
0.0000
 20
0.0000
 30
0.0000
 40
0.0000
 41
0.0000
 70
1
  0
VERTEX
  8
30
 10
27.2200
 20
95.9500
 30
0.0000
  0
VERTEX
  8
30
 10
27.2200
 20
95.5500
 30
0.0000
 42
1.0000
  0
VERTEX
  8
30
 10
27.7400
 20
95.5500
 30
0.0000
  0
VERTEX
  8
30
 10
27.7400
 20
95.9500
 30
0.0000
 42
1.0000
  0
SEQEND
  8
0
  0
POLYLINE
  8
30
 66
1
 10
0.0000
 20
0.0000
 30
0.0000
 40
0.0000
 41
0.0000
 70
1
  0
VERTEX
  8
30
 10
27.4800
 20
95.8100
 30
0.0000
  0
VERTEX
  8
30
 10
26.9200
 20
95.8100
 30
0.0000
 42
1.0000
  0
VERTEX
  8
30
 10
26.9200
 20
95.2900
 30
0.0000
  0
VERTEX
  8
30
 10
27.4800
 20
95.2900
 30
0.0000
 42
1.0000
  0
SEQEND
  8
0
  0
POLYLINE
  8
30
 66
1
 10
0.0000
 20
0.0000
 30
0.0000
 40
0.0000
 41
0.0000
 70
1
  0
VERTEX
  8
30
 10
27.1800
 20
95.5500
 30
0.0000
  0
VERTEX
  8
30
 10
27.1800
 20
95.9500
 30
0.0000
 42
1.0000
  0
VERTEX
  8
30
 10
26.6600
 20
95.9500
 30
0.0000
  0
VERTEX
  8
30
 10
26.6600
 20
95.5500
 30
0.0000
 42
1.0000
  0
SEQEND
  8
0
  0
POLYLINE
  8
30
 66
1
 10
0.0000
 20
0.0000
 30
0.0000
 40
0.0000
 41
0.0000
 70
1
  0
VERTEX
  8
30
 10
26.9200
 20
95.6900
 30
0.0000
  0
VERTEX
  8
30
 10
27.4800
 20
95.6900
 30
0.0000
 42
1.0000
  0
VERTEX
  8
30
 10
27.4800
 20
96.2100
 30
0.0000
  0
VERTEX
  8
30
 10
26.9200
 20
96.2100
 30
0.0000
 42
1.0000
  0
SEQEND
  8
0
  0
POLYLINE
  8
30
 66
1
 10
0.0000
 20
0.0000
 30
0.0000
 40
0.0000
 41
0.0000
 70
1
  0
VERTEX
  8
30
 10
26.9200
 20
95.4200
 30
0.0000
  0
VERTEX
  8
30
 10
27.4800
 20
95.4200
 30
0.0000
 42
1.0000
  0
VERTEX
  8
30
 10
27.4800
 20
95.9400
 30
0.0000
  0
VERTEX
  8
30
 10
26.9200
 20
95.9400
 30
0.0000
 42
1.0000
  0
SEQEND
  8
0
  0
POLYLINE
  8
30
 66
1
 10
0.0000
 20
0.0000
 30
0.0000
 40
0.0000
 41
0.0000
 70
1
  0
VERTEX
  8
30
 10
17.8800
 20
87.9300
 30
0.0000
  0
VERTEX
  8
30
 10
17.8800
 20
88.3300
 30
0.0000
 42
1.0000
  0
VERTEX
  8
30
 10
17.3600
 20
88.3300
 30
0.0000
  0
VERTEX
  8
30
 10
17.3600
 20
87.9300
 30
0.0000
 42
1.0000
  0
SEQEND
  8
0
  0
POLYLINE
  8
30
 66
1
 10
0.0000
 20
0.0000
 30
0.0000
 40
0.0000
 41
0.0000
 70
1
  0
VERTEX
  8
30
 10
17.6200
 20
88.0700
 30
0.0000
  0
VERTEX
  8
30
 10
18.1800
 20
88.0700
 30
0.0000
 42
1.0000
  0
VERTEX
  8
30
 10
18.1800
 20
88.5900
 30
0.0000
  0
VERTEX
  8
30
 10
17.6200
 20
88.5900
 30
0.0000
 42
1.0000
  0
SEQEND
  8
0
  0
POLYLINE
  8
30
 66
1
 10
0.0000
 20
0.0000
 30
0.0000
 40
0.0000
 41
0.0000
 70
1
  0
VERTEX
  8
30
 10
17.9200
 20
88.3300
 30
0.0000
  0
VERTEX
  8
30
 10
17.9200
 20
87.9300
 30
0.0000
 42
1.0000
  0
VERTEX
  8
30
 10
18.4400
 20
87.9300
 30
0.0000
  0
VERTEX
  8
30
 10
18.4400
 20
88.3300
 30
0.0000
 42
1.0000
  0
SEQEND
  8
0
  0
POLYLINE
  8
30
 66
1
 10
0.0000
 20
0.0000
 30
0.0000
 40
0.0000
 41
0.0000
 70
1
  0
VERTEX
  8
30
 10
18.1800
 20
88.1900
 30
0.0000
  0
VERTEX
  8
30
 10
17.6200
 20
88.1900
 30
0.0000
 42
1.0000
  0
VERTEX
  8
30
 10
17.6200
 20
87.6700
 30
0.0000
  0
VERTEX
  8
30
 10
18.1800
 20
87.6700
 30
0.0000
 42
1.0000
  0
SEQEND
  8
0
  0
POLYLINE
  8
30
 66
1
 10
0.0000
 20
0.0000
 30
0.0000
 40
0.0000
 41
0.0000
 70
1
  0
VERTEX
  8
30
 10
17.8800
 20
89.5300
 30
0.0000
  0
VERTEX
  8
30
 10
17.8800
 20
89.9300
 30
0.0000
 42
1.0000
  0
VERTEX
  8
30
 10
17.3600
 20
89.9300
 30
0.0000
  0
VERTEX
  8
30
 10
17.3600
 20
89.5300
 30
0.0000
 42
1.0000
  0
SEQEND
  8
0
  0
POLYLINE
  8
30
 66
1
 10
0.0000
 20
0.0000
 30
0.0000
 40
0.0000
 41
0.0000
 70
1
  0
VERTEX
  8
30
 10
17.6200
 20
89.6700
 30
0.0000
  0
VERTEX
  8
30
 10
18.1800
 20
89.6700
 30
0.0000
 42
1.0000
  0
VERTEX
  8
30
 10
18.1800
 20
90.1900
 30
0.0000
  0
VERTEX
  8
30
 10
17.6200
 20
90.1900
 30
0.0000
 42
1.0000
  0
SEQEND
  8
0
  0
POLYLINE
  8
30
 66
1
 10
0.0000
 20
0.0000
 30
0.0000
 40
0.0000
 41
0.0000
 70
1
  0
VERTEX
  8
30
 10
17.9200
 20
89.9300
 30
0.0000
  0
VERTEX
  8
30
 10
17.9200
 20
89.5300
 30
0.0000
 42
1.0000
  0
VERTEX
  8
30
 10
18.4400
 20
89.5300
 30
0.0000
  0
VERTEX
  8
30
 10
18.4400
 20
89.9300
 30
0.0000
 42
1.0000
  0
SEQEND
  8
0
  0
POLYLINE
  8
30
 66
1
 10
0.0000
 20
0.0000
 30
0.0000
 40
0.0000
 41
0.0000
 70
1
  0
VERTEX
  8
30
 10
18.1800
 20
89.7900
 30
0.0000
  0
VERTEX
  8
30
 10
17.6200
 20
89.7900
 30
0.0000
 42
1.0000
  0
VERTEX
  8
30
 10
17.6200
 20
89.2700
 30
0.0000
  0
VERTEX
  8
30
 10
18.1800
 20
89.2700
 30
0.0000
 42
1.0000
  0
SEQEND
  8
0
  0
POLYLINE
  8
30
 66
1
 10
0.0000
 20
0.0000
 30
0.0000
 40
0.0000
 41
0.0000
 70
1
  0
VERTEX
  8
30
 10
25.6800
 20
95.5500
 30
0.0000
  0
VERTEX
  8
30
 10
25.6800
 20
95.9500
 30
0.0000
 42
1.0000
  0
VERTEX
  8
30
 10
25.1600
 20
95.9500
 30
0.0000
  0
VERTEX
  8
30
 10
25.1600
 20
95.5500
 30
0.0000
 42
1.0000
  0
SEQEND
  8
0
  0
POLYLINE
  8
30
 66
1
 10
0.0000
 20
0.0000
 30
0.0000
 40
0.0000
 41
0.0000
 70
1
  0
VERTEX
  8
30
 10
25.4200
 20
95.6900
 30
0.0000
  0
VERTEX
  8
30
 10
25.9800
 20
95.6900
 30
0.0000
 42
1.0000
  0
VERTEX
  8
30
 10
25.9800
 20
96.2100
 30
0.0000
  0
VERTEX
  8
30
 10
25.4200
 20
96.2100
 30
0.0000
 42
1.0000
  0
SEQEND
  8
0
  0
POLYLINE
  8
30
 66
1
 10
0.0000
 20
0.0000
 30
0.0000
 40
0.0000
 41
0.0000
 70
1
  0
VERTEX
  8
30
 10
25.7200
 20
95.9500
 30
0.0000
  0
VERTEX
  8
30
 10
25.7200
 20
95.5500
 30
0.0000
 42
1.0000
  0
VERTEX
  8
30
 10
26.2400
 20
95.5500
 30
0.0000
  0
VERTEX
  8
30
 10
26.2400
 20
95.9500
 30
0.0000
 42
1.0000
  0
SEQEND
  8
0
  0
POLYLINE
  8
30
 66
1
 10
0.0000
 20
0.0000
 30
0.0000
 40
0.0000
 41
0.0000
 70
1
  0
VERTEX
  8
30
 10
25.9800
 20
95.8100
 30
0.0000
  0
VERTEX
  8
30
 10
25.4200
 20
95.8100
 30
0.0000
 42
1.0000
  0
VERTEX
  8
30
 10
25.4200
 20
95.2900
 30
0.0000
  0
VERTEX
  8
30
 10
25.9800
 20
95.2900
 30
0.0000
 42
1.0000
  0
SEQEND
  8
0
  0
POLYLINE
  8
30
 66
1
 10
0.0000
 20
0.0000
 30
0.0000
 40
0.0000
 41
0.0000
 70
1
  0
VERTEX
  8
30
 10
25.4200
 20
95.4200
 30
0.0000
  0
VERTEX
  8
30
 10
25.9800
 20
95.4200
 30
0.0000
 42
1.0000
  0
VERTEX
  8
30
 10
25.9800
 20
95.9400
 30
0.0000
  0
VERTEX
  8
30
 10
25.4200
 20
95.9400
 30
0.0000
 42
1.0000
  0
SEQEND
  8
0
  0
POLYLINE
  8
30
 66
1
 10
0.0000
 20
0.0000
 30
0.0000
 40
0.0000
 41
0.0000
 70
1
  0
VERTEX
  8
30
 10
25.6800
 20
97.1500
 30
0.0000
  0
VERTEX
  8
30
 10
25.6800
 20
97.5500
 30
0.0000
 42
1.0000
  0
VERTEX
  8
30
 10
25.1600
 20
97.5500
 30
0.0000
  0
VERTEX
  8
30
 10
25.1600
 20
97.1500
 30
0.0000
 42
1.0000
  0
SEQEND
  8
0
  0
POLYLINE
  8
30
 66
1
 10
0.0000
 20
0.0000
 30
0.0000
 40
0.0000
 41
0.0000
 70
1
  0
VERTEX
  8
30
 10
25.4200
 20
97.2900
 30
0.0000
  0
VERTEX
  8
30
 10
25.9800
 20
97.2900
 30
0.0000
 42
1.0000
  0
VERTEX
  8
30
 10
25.9800
 20
97.8100
 30
0.0000
  0
VERTEX
  8
30
 10
25.4200
 20
97.8100
 30
0.0000
 42
1.0000
  0
SEQEND
  8
0
  0
POLYLINE
  8
30
 66
1
 10
0.0000
 20
0.0000
 30
0.0000
 40
0.0000
 41
0.0000
 70
1
  0
VERTEX
  8
30
 10
25.7200
 20
97.5500
 30
0.0000
  0
VERTEX
  8
30
 10
25.7200
 20
97.1500
 30
0.0000
 42
1.0000
  0
VERTEX
  8
30
 10
26.2400
 20
97.1500
 30
0.0000
  0
VERTEX
  8
30
 10
26.2400
 20
97.5500
 30
0.0000
 42
1.0000
  0
SEQEND
  8
0
  0
POLYLINE
  8
30
 66
1
 10
0.0000
 20
0.0000
 30
0.0000
 40
0.0000
 41
0.0000
 70
1
  0
VERTEX
  8
30
 10
25.9800
 20
97.4100
 30
0.0000
  0
VERTEX
  8
30
 10
25.4200
 20
97.4100
 30
0.0000
 42
1.0000
  0
VERTEX
  8
30
 10
25.4200
 20
96.8900
 30
0.0000
  0
VERTEX
  8
30
 10
25.9800
 20
96.8900
 30
0.0000
 42
1.0000
  0
SEQEND
  8
0
  0
POLYLINE
  8
30
 66
1
 10
0.0000
 20
0.0000
 30
0.0000
 40
0.0000
 41
0.0000
 70
1
  0
VERTEX
  8
30
 10
25.4200
 20
96.9800
 30
0.0000
  0
VERTEX
  8
30
 10
25.9800
 20
96.9800
 30
0.0000
 42
1.0000
  0
VERTEX
  8
30
 10
25.9800
 20
97.5000
 30
0.0000
  0
VERTEX
  8
30
 10
25.4200
 20
97.5000
 30
0.0000
 42
1.0000
  0
SEQEND
  8
0
  0
POLYLINE
  8
30
 66
1
 10
0.0000
 20
0.0000
 30
0.0000
 40
0.0000
 41
0.0000
 70
1
  0
VERTEX
  8
30
 10
14.0200
 20
93.1700
 30
0.0000
  0
VERTEX
  8
30
 10
14.4200
 20
93.1700
 30
0.0000
 42
1.0000
  0
VERTEX
  8
30
 10
14.4200
 20
93.6900
 30
0.0000
  0
VERTEX
  8
30
 10
14.0200
 20
93.6900
 30
0.0000
 42
1.0000
  0
SEQEND
  8
0
  0
POLYLINE
  8
30
 66
1
 10
0.0000
 20
0.0000
 30
0.0000
 40
0.0000
 41
0.0000
 70
1
  0
VERTEX
  8
30
 10
14.1600
 20
93.4300
 30
0.0000
  0
VERTEX
  8
30
 10
14.1600
 20
92.8700
 30
0.0000
 42
1.0000
  0
VERTEX
  8
30
 10
14.6800
 20
92.8700
 30
0.0000
  0
VERTEX
  8
30
 10
14.6800
 20
93.4300
 30
0.0000
 42
1.0000
  0
SEQEND
  8
0
  0
POLYLINE
  8
30
 66
1
 10
0.0000
 20
0.0000
 30
0.0000
 40
0.0000
 41
0.0000
 70
1
  0
VERTEX
  8
30
 10
14.4200
 20
93.1300
 30
0.0000
  0
VERTEX
  8
30
 10
14.0200
 20
93.1300
 30
0.0000
 42
1.0000
  0
VERTEX
  8
30
 10
14.0200
 20
92.6100
 30
0.0000
  0
VERTEX
  8
30
 10
14.4200
 20
92.6100
 30
0.0000
 42
1.0000
  0
SEQEND
  8
0
  0
POLYLINE
  8
30
 66
1
 10
0.0000
 20
0.0000
 30
0.0000
 40
0.0000
 41
0.0000
 70
1
  0
VERTEX
  8
30
 10
14.2800
 20
92.8700
 30
0.0000
  0
VERTEX
  8
30
 10
14.2800
 20
93.4300
 30
0.0000
 42
1.0000
  0
VERTEX
  8
30
 10
13.7600
 20
93.4300
 30
0.0000
  0
VERTEX
  8
30
 10
13.7600
 20
92.8700
 30
0.0000
 42
1.0000
  0
SEQEND
  8
0
  0
POLYLINE
  8
30
 66
1
 10
0.0000
 20
0.0000
 30
0.0000
 40
0.0000
 41
0.0000
 70
1
  0
VERTEX
  8
30
 10
14.0200
 20
92.8200
 30
0.0000
  0
VERTEX
  8
30
 10
14.4200
 20
92.8200
 30
0.0000
 42
1.0000
  0
VERTEX
  8
30
 10
14.4200
 20
93.3400
 30
0.0000
  0
VERTEX
  8
30
 10
14.0200
 20
93.3400
 30
0.0000
 42
1.0000
  0
SEQEND
  8
0
  0
POLYLINE
  8
30
 66
1
 10
0.0000
 20
0.0000
 30
0.0000
 40
0.0000
 41
0.0000
 70
1
  0
VERTEX
  8
30
 10
15.6200
 20
93.1700
 30
0.0000
  0
VERTEX
  8
30
 10
16.0200
 20
93.1700
 30
0.0000
 42
1.0000
  0
VERTEX
  8
30
 10
16.0200
 20
93.6900
 30
0.0000
  0
VERTEX
  8
30
 10
15.6200
 20
93.6900
 30
0.0000
 42
1.0000
  0
SEQEND
  8
0
  0
POLYLINE
  8
30
 66
1
 10
0.0000
 20
0.0000
 30
0.0000
 40
0.0000
 41
0.0000
 70
1
  0
VERTEX
  8
30
 10
15.7600
 20
93.4300
 30
0.0000
  0
VERTEX
  8
30
 10
15.7600
 20
92.8700
 30
0.0000
 42
1.0000
  0
VERTEX
  8
30
 10
16.2800
 20
92.8700
 30
0.0000
  0
VERTEX
  8
30
 10
16.2800
 20
93.4300
 30
0.0000
 42
1.0000
  0
SEQEND
  8
0
  0
POLYLINE
  8
30
 66
1
 10
0.0000
 20
0.0000
 30
0.0000
 40
0.0000
 41
0.0000
 70
1
  0
VERTEX
  8
30
 10
16.0200
 20
93.1300
 30
0.0000
  0
VERTEX
  8
30
 10
15.6200
 20
93.1300
 30
0.0000
 42
1.0000
  0
VERTEX
  8
30
 10
15.6200
 20
92.6100
 30
0.0000
  0
VERTEX
  8
30
 10
16.0200
 20
92.6100
 30
0.0000
 42
1.0000
  0
SEQEND
  8
0
  0
POLYLINE
  8
30
 66
1
 10
0.0000
 20
0.0000
 30
0.0000
 40
0.0000
 41
0.0000
 70
1
  0
VERTEX
  8
30
 10
15.8800
 20
92.8700
 30
0.0000
  0
VERTEX
  8
30
 10
15.8800
 20
93.4300
 30
0.0000
 42
1.0000
  0
VERTEX
  8
30
 10
15.3600
 20
93.4300
 30
0.0000
  0
VERTEX
  8
30
 10
15.3600
 20
92.8700
 30
0.0000
 42
1.0000
  0
SEQEND
  8
0
  0
POLYLINE
  8
30
 66
1
 10
0.0000
 20
0.0000
 30
0.0000
 40
0.0000
 41
0.0000
 70
1
  0
VERTEX
  8
30
 10
15.6200
 20
92.8200
 30
0.0000
  0
VERTEX
  8
30
 10
16.0200
 20
92.8200
 30
0.0000
 42
1.0000
  0
VERTEX
  8
30
 10
16.0200
 20
93.3400
 30
0.0000
  0
VERTEX
  8
30
 10
15.6200
 20
93.3400
 30
0.0000
 42
1.0000
  0
SEQEND
  8
0
  0
POLYLINE
  8
30
 66
1
 10
0.0000
 20
0.0000
 30
0.0000
 40
0.0000
 41
0.0000
 70
1
  0
VERTEX
  8
30
 10
7.0200
 20
35.8000
 30
0.0000
  0
VERTEX
  8
30
 10
7.0200
 20
35.4000
 30
0.0000
 42
1.0000
  0
VERTEX
  8
30
 10
7.5400
 20
35.4000
 30
0.0000
  0
VERTEX
  8
30
 10
7.5400
 20
35.8000
 30
0.0000
 42
1.0000
  0
SEQEND
  8
0
  0
POLYLINE
  8
30
 66
1
 10
0.0000
 20
0.0000
 30
0.0000
 40
0.0000
 41
0.0000
 70
1
  0
VERTEX
  8
30
 10
7.2800
 20
35.6600
 30
0.0000
  0
VERTEX
  8
30
 10
6.7200
 20
35.6600
 30
0.0000
 42
1.0000
  0
VERTEX
  8
30
 10
6.7200
 20
35.1400
 30
0.0000
  0
VERTEX
  8
30
 10
7.2800
 20
35.1400
 30
0.0000
 42
1.0000
  0
SEQEND
  8
0
  0
POLYLINE
  8
30
 66
1
 10
0.0000
 20
0.0000
 30
0.0000
 40
0.0000
 41
0.0000
 70
1
  0
VERTEX
  8
30
 10
6.9800
 20
35.4000
 30
0.0000
  0
VERTEX
  8
30
 10
6.9800
 20
35.8000
 30
0.0000
 42
1.0000
  0
VERTEX
  8
30
 10
6.4600
 20
35.8000
 30
0.0000
  0
VERTEX
  8
30
 10
6.4600
 20
35.4000
 30
0.0000
 42
1.0000
  0
SEQEND
  8
0
  0
POLYLINE
  8
30
 66
1
 10
0.0000
 20
0.0000
 30
0.0000
 40
0.0000
 41
0.0000
 70
1
  0
VERTEX
  8
30
 10
6.7200
 20
35.5400
 30
0.0000
  0
VERTEX
  8
30
 10
7.2800
 20
35.5400
 30
0.0000
 42
1.0000
  0
VERTEX
  8
30
 10
7.2800
 20
36.0600
 30
0.0000
  0
VERTEX
  8
30
 10
6.7200
 20
36.0600
 30
0.0000
 42
1.0000
  0
SEQEND
  8
0
  0
POLYLINE
  8
30
 66
1
 10
0.0000
 20
0.0000
 30
0.0000
 40
0.0000
 41
0.0000
 70
1
  0
VERTEX
  8
30
 10
7.0200
 20
34.2000
 30
0.0000
  0
VERTEX
  8
30
 10
7.0200
 20
33.8000
 30
0.0000
 42
1.0000
  0
VERTEX
  8
30
 10
7.5400
 20
33.8000
 30
0.0000
  0
VERTEX
  8
30
 10
7.5400
 20
34.2000
 30
0.0000
 42
1.0000
  0
SEQEND
  8
0
  0
POLYLINE
  8
30
 66
1
 10
0.0000
 20
0.0000
 30
0.0000
 40
0.0000
 41
0.0000
 70
1
  0
VERTEX
  8
30
 10
7.2800
 20
34.0600
 30
0.0000
  0
VERTEX
  8
30
 10
6.7200
 20
34.0600
 30
0.0000
 42
1.0000
  0
VERTEX
  8
30
 10
6.7200
 20
33.5400
 30
0.0000
  0
VERTEX
  8
30
 10
7.2800
 20
33.5400
 30
0.0000
 42
1.0000
  0
SEQEND
  8
0
  0
POLYLINE
  8
30
 66
1
 10
0.0000
 20
0.0000
 30
0.0000
 40
0.0000
 41
0.0000
 70
1
  0
VERTEX
  8
30
 10
6.9800
 20
33.8000
 30
0.0000
  0
VERTEX
  8
30
 10
6.9800
 20
34.2000
 30
0.0000
 42
1.0000
  0
VERTEX
  8
30
 10
6.4600
 20
34.2000
 30
0.0000
  0
VERTEX
  8
30
 10
6.4600
 20
33.8000
 30
0.0000
 42
1.0000
  0
SEQEND
  8
0
  0
POLYLINE
  8
30
 66
1
 10
0.0000
 20
0.0000
 30
0.0000
 40
0.0000
 41
0.0000
 70
1
  0
VERTEX
  8
30
 10
6.7200
 20
33.9400
 30
0.0000
  0
VERTEX
  8
30
 10
7.2800
 20
33.9400
 30
0.0000
 42
1.0000
  0
VERTEX
  8
30
 10
7.2800
 20
34.4600
 30
0.0000
  0
VERTEX
  8
30
 10
6.7200
 20
34.4600
 30
0.0000
 42
1.0000
  0
SEQEND
  8
0
  0
POLYLINE
  8
30
 66
1
 10
0.0000
 20
0.0000
 30
0.0000
 40
0.0000
 41
0.0000
 70
1
  0
VERTEX
  8
30
 10
6.7200
 20
33.5400
 30
0.0000
  0
VERTEX
  8
30
 10
7.2800
 20
33.5400
 30
0.0000
 42
1.0000
  0
VERTEX
  8
30
 10
7.2800
 20
34.0600
 30
0.0000
  0
VERTEX
  8
30
 10
6.7200
 20
34.0600
 30
0.0000
 42
1.0000
  0
SEQEND
  8
0
  0
POLYLINE
  8
30
 66
1
 10
0.0000
 20
0.0000
 30
0.0000
 40
0.0000
 41
0.0000
 70
1
  0
VERTEX
  8
30
 10
89.4000
 20
85.3700
 30
0.0000
  0
VERTEX
  8
30
 10
89.8000
 20
85.3700
 30
0.0000
 42
1.0000
  0
VERTEX
  8
30
 10
89.8000
 20
85.8900
 30
0.0000
  0
VERTEX
  8
30
 10
89.4000
 20
85.8900
 30
0.0000
 42
1.0000
  0
SEQEND
  8
0
  0
POLYLINE
  8
30
 66
1
 10
0.0000
 20
0.0000
 30
0.0000
 40
0.0000
 41
0.0000
 70
1
  0
VERTEX
  8
30
 10
89.5400
 20
85.6300
 30
0.0000
  0
VERTEX
  8
30
 10
89.5400
 20
85.0700
 30
0.0000
 42
1.0000
  0
VERTEX
  8
30
 10
90.0600
 20
85.0700
 30
0.0000
  0
VERTEX
  8
30
 10
90.0600
 20
85.6300
 30
0.0000
 42
1.0000
  0
SEQEND
  8
0
  0
POLYLINE
  8
30
 66
1
 10
0.0000
 20
0.0000
 30
0.0000
 40
0.0000
 41
0.0000
 70
1
  0
VERTEX
  8
30
 10
89.8000
 20
85.3300
 30
0.0000
  0
VERTEX
  8
30
 10
89.4000
 20
85.3300
 30
0.0000
 42
1.0000
  0
VERTEX
  8
30
 10
89.4000
 20
84.8100
 30
0.0000
  0
VERTEX
  8
30
 10
89.8000
 20
84.8100
 30
0.0000
 42
1.0000
  0
SEQEND
  8
0
  0
POLYLINE
  8
30
 66
1
 10
0.0000
 20
0.0000
 30
0.0000
 40
0.0000
 41
0.0000
 70
1
  0
VERTEX
  8
30
 10
89.6600
 20
85.0700
 30
0.0000
  0
VERTEX
  8
30
 10
89.6600
 20
85.6300
 30
0.0000
 42
1.0000
  0
VERTEX
  8
30
 10
89.1400
 20
85.6300
 30
0.0000
  0
VERTEX
  8
30
 10
89.1400
 20
85.0700
 30
0.0000
 42
1.0000
  0
SEQEND
  8
0
  0
POLYLINE
  8
30
 66
1
 10
0.0000
 20
0.0000
 30
0.0000
 40
0.0000
 41
0.0000
 70
1
  0
VERTEX
  8
30
 10
89.4000
 20
85.0200
 30
0.0000
  0
VERTEX
  8
30
 10
89.8000
 20
85.0200
 30
0.0000
 42
1.0000
  0
VERTEX
  8
30
 10
89.8000
 20
85.5400
 30
0.0000
  0
VERTEX
  8
30
 10
89.4000
 20
85.5400
 30
0.0000
 42
1.0000
  0
SEQEND
  8
0
  0
POLYLINE
  8
30
 66
1
 10
0.0000
 20
0.0000
 30
0.0000
 40
0.0000
 41
0.0000
 70
1
  0
VERTEX
  8
30
 10
91.0000
 20
85.3700
 30
0.0000
  0
VERTEX
  8
30
 10
91.4000
 20
85.3700
 30
0.0000
 42
1.0000
  0
VERTEX
  8
30
 10
91.4000
 20
85.8900
 30
0.0000
  0
VERTEX
  8
30
 10
91.0000
 20
85.8900
 30
0.0000
 42
1.0000
  0
SEQEND
  8
0
  0
POLYLINE
  8
30
 66
1
 10
0.0000
 20
0.0000
 30
0.0000
 40
0.0000
 41
0.0000
 70
1
  0
VERTEX
  8
30
 10
91.1400
 20
85.6300
 30
0.0000
  0
VERTEX
  8
30
 10
91.1400
 20
85.0700
 30
0.0000
 42
1.0000
  0
VERTEX
  8
30
 10
91.6600
 20
85.0700
 30
0.0000
  0
VERTEX
  8
30
 10
91.6600
 20
85.6300
 30
0.0000
 42
1.0000
  0
SEQEND
  8
0
  0
POLYLINE
  8
30
 66
1
 10
0.0000
 20
0.0000
 30
0.0000
 40
0.0000
 41
0.0000
 70
1
  0
VERTEX
  8
30
 10
91.4000
 20
85.3300
 30
0.0000
  0
VERTEX
  8
30
 10
91.0000
 20
85.3300
 30
0.0000
 42
1.0000
  0
VERTEX
  8
30
 10
91.0000
 20
84.8100
 30
0.0000
  0
VERTEX
  8
30
 10
91.4000
 20
84.8100
 30
0.0000
 42
1.0000
  0
SEQEND
  8
0
  0
POLYLINE
  8
30
 66
1
 10
0.0000
 20
0.0000
 30
0.0000
 40
0.0000
 41
0.0000
 70
1
  0
VERTEX
  8
30
 10
91.2600
 20
85.0700
 30
0.0000
  0
VERTEX
  8
30
 10
91.2600
 20
85.6300
 30
0.0000
 42
1.0000
  0
VERTEX
  8
30
 10
90.7400
 20
85.6300
 30
0.0000
  0
VERTEX
  8
30
 10
90.7400
 20
85.0700
 30
0.0000
 42
1.0000
  0
SEQEND
  8
0
  0
POLYLINE
  8
30
 66
1
 10
0.0000
 20
0.0000
 30
0.0000
 40
0.0000
 41
0.0000
 70
1
  0
VERTEX
  8
30
 10
91.0000
 20
85.0200
 30
0.0000
  0
VERTEX
  8
30
 10
91.4000
 20
85.0200
 30
0.0000
 42
1.0000
  0
VERTEX
  8
30
 10
91.4000
 20
85.5400
 30
0.0000
  0
VERTEX
  8
30
 10
91.0000
 20
85.5400
 30
0.0000
 42
1.0000
  0
SEQEND
  8
0
  0
INSERT
  8
30
  2
ROUNDP
 10
10.0000
 20
25.2000
 30
0.0000
 41
1.2319
 42
1.2319
 43
1.0000
 50
0.0000
  0
INSERT
  8
30
  2
ROUNDP
 10
7.9000
 20
25.2000
 30
0.0000
 41
1.2319
 42
1.2319
 43
1.0000
 50
0.0000
  0
INSERT
  8
30
  2
ROUNDP
 10
14.5000
 20
90.3500
 30
0.0000
 41
1.2319
 42
1.2319
 43
1.0000
 50
270.0000
  0
INSERT
  8
30
  2
ROUNDP
 10
83.4000
 20
94.8500
 30
0.0000
 41
1.2319
 42
1.2319
 43
1.0000
 50
0.0000
  0
INSERT
  8
30
  2
ROUNDP
 10
86.0000
 20
94.8500
 30
0.0000
 41
1.2319
 42
1.2319
 43
1.0000
 50
0.0000
  0
INSERT
  8
30
  2
ROUNDP
 10
15.7500
 20
89.3500
 30
0.0000
 41
1.2319
 42
1.2319
 43
1.0000
 50
270.0000
  0
INSERT
  8
30
  2
ROUNDP
 10
12.4000
 20
90.3500
 30
0.0000
 41
1.2319
 42
1.2319
 43
1.0000
 50
270.0000
  0
INSERT
  8
30
  2
ROUNDP
 10
10.4000
 20
89.6000
 30
0.0000
 41
1.2319
 42
1.2319
 43
1.0000
 50
180.0000
  0
INSERT
  8
30
  2
RECT
 10
18.1657
 20
91.7775
 30
0.0000
 41
1.2700
 42
0.5461
 43
1.0000
 50
0.0000
  0
INSERT
  8
30
  2
RECT
 10
18.1657
 20
92.4125
 30
0.0000
 41
1.2700
 42
0.5461
 43
1.0000
 50
0.0000
  0
INSERT
  8
30
  2
RECT
 10
18.1657
 20
93.0475
 30
0.0000
 41
1.2700
 42
0.5461
 43
1.0000
 50
0.0000
  0
INSERT
  8
30
  2
RECT
 10
18.1657
 20
93.6825
 30
0.0000
 41
1.2700
 42
0.5461
 43
1.0000
 50
0.0000
  0
INSERT
  8
30
  2
RECT
 10
18.1657
 20
94.3175
 30
0.0000
 41
1.2700
 42
0.5461
 43
1.0000
 50
0.0000
  0
INSERT
  8
30
  2
RECT
 10
18.1657
 20
94.9525
 30
0.0000
 41
1.2700
 42
0.5461
 43
1.0000
 50
0.0000
  0
INSERT
  8
30
  2
RECT
 10
18.1657
 20
95.5875
 30
0.0000
 41
1.2700
 42
0.5461
 43
1.0000
 50
0.0000
  0
INSERT
  8
30
  2
RECT
 10
18.1657
 20
96.2225
 30
0.0000
 41
1.2700
 42
0.5461
 43
1.0000
 50
0.0000
  0
INSERT
  8
30
  2
RECT
 10
23.4743
 20
96.2225
 30
0.0000
 41
1.2700
 42
0.5461
 43
1.0000
 50
0.0000
  0
INSERT
  8
30
  2
RECT
 10
23.4743
 20
95.5875
 30
0.0000
 41
1.2700
 42
0.5461
 43
1.0000
 50
0.0000
  0
INSERT
  8
30
  2
RECT
 10
23.4743
 20
94.9525
 30
0.0000
 41
1.2700
 42
0.5461
 43
1.0000
 50
0.0000
  0
INSERT
  8
30
  2
RECT
 10
23.4743
 20
94.3175
 30
0.0000
 41
1.2700
 42
0.5461
 43
1.0000
 50
0.0000
  0
INSERT
  8
30
  2
RECT
 10
23.4743
 20
93.6825
 30
0.0000
 41
1.2700
 42
0.5461
 43
1.0000
 50
0.0000
  0
INSERT
  8
30
  2
RECT
 10
23.4743
 20
93.0475
 30
0.0000
 41
1.2700
 42
0.5461
 43
1.0000
 50
0.0000
  0
INSERT
  8
30
  2
RECT
 10
23.4743
 20
92.4125
 30
0.0000
 41
1.2700
 42
0.5461
 43
1.0000
 50
0.0000
  0
INSERT
  8
30
  2
RECT
 10
23.4743
 20
91.7775
 30
0.0000
 41
1.2700
 42
0.5461
 43
1.0000
 50
0.0000
  0
INSERT
  8
30
  2
RECT
 10
90.5500
 20
88.5250
 30
0.0000
 41
0.4270
 42
0.5770
 43
1.0000
 50
0.0000
  0
INSERT
  8
30
  2
RECT
 10
90.0500
 20
88.5250
 30
0.0000
 41
0.4270
 42
0.5770
 43
1.0000
 50
0.0000
  0
INSERT
  8
30
  2
RECT
 10
89.5500
 20
88.5250
 30
0.0000
 41
0.4270
 42
0.5770
 43
1.0000
 50
0.0000
  0
INSERT
  8
30
  2
RECT
 10
89.0500
 20
88.5250
 30
0.0000
 41
0.4270
 42
0.5770
 43
1.0000
 50
0.0000
  0
INSERT
  8
30
  2
RECT
 10
88.5250
 20
89.0500
 30
0.0000
 41
0.4270
 42
0.5770
 43
1.0000
 50
270.0000
  0
INSERT
  8
30
  2
RECT
 10
88.5250
 20
89.5500
 30
0.0000
 41
0.4270
 42
0.5770
 43
1.0000
 50
270.0000
  0
INSERT
  8
30
  2
RECT
 10
88.5250
 20
90.0500
 30
0.0000
 41
0.4270
 42
0.5770
 43
1.0000
 50
270.0000
  0
INSERT
  8
30
  2
RECT
 10
88.5250
 20
90.5500
 30
0.0000
 41
0.4270
 42
0.5770
 43
1.0000
 50
270.0000
  0
INSERT
  8
30
  2
RECT
 10
89.0500
 20
91.0750
 30
0.0000
 41
0.4270
 42
0.5770
 43
1.0000
 50
180.0000
  0
INSERT
  8
30
  2
RECT
 10
89.5500
 20
91.0750
 30
0.0000
 41
0.4270
 42
0.5770
 43
1.0000
 50
180.0000
  0
INSERT
  8
30
  2
RECT
 10
90.0500
 20
91.0750
 30
0.0000
 41
0.4270
 42
0.5770
 43
1.0000
 50
180.0000
  0
INSERT
  8
30
  2
RECT
 10
90.5500
 20
91.0750
 30
0.0000
 41
0.4270
 42
0.5770
 43
1.0000
 50
180.0000
  0
INSERT
  8
30
  2
RECT
 10
91.0750
 20
90.5500
 30
0.0000
 41
0.4270
 42
0.5770
 43
1.0000
 50
90.0000
  0
INSERT
  8
30
  2
RECT
 10
91.0750
 20
90.0500
 30
0.0000
 41
0.4270
 42
0.5770
 43
1.0000
 50
90.0000
  0
INSERT
  8
30
  2
RECT
 10
91.0750
 20
89.5500
 30
0.0000
 41
0.4270
 42
0.5770
 43
1.0000
 50
90.0000
  0
INSERT
  8
30
  2
RECT
 10
91.0750
 20
89.0500
 30
0.0000
 41
0.4270
 42
0.5770
 43
1.0000
 50
90.0000
  0
INSERT
  8
30
  2
RECT
 10
17.0750
 20
16.5500
 30
0.0000
 41
0.4270
 42
0.5770
 43
1.0000
 50
90.0000
  0
INSERT
  8
30
  2
RECT
 10
17.0750
 20
16.0500
 30
0.0000
 41
0.4270
 42
0.5770
 43
1.0000
 50
90.0000
  0
INSERT
  8
30
  2
RECT
 10
17.0750
 20
15.5500
 30
0.0000
 41
0.4270
 42
0.5770
 43
1.0000
 50
90.0000
  0
INSERT
  8
30
  2
RECT
 10
17.0750
 20
15.0500
 30
0.0000
 41
0.4270
 42
0.5770
 43
1.0000
 50
90.0000
  0
INSERT
  8
30
  2
RECT
 10
16.5500
 20
14.5250
 30
0.0000
 41
0.4270
 42
0.5770
 43
1.0000
 50
0.0000
  0
INSERT
  8
30
  2
RECT
 10
16.0500
 20
14.5250
 30
0.0000
 41
0.4270
 42
0.5770
 43
1.0000
 50
0.0000
  0
INSERT
  8
30
  2
RECT
 10
15.5500
 20
14.5250
 30
0.0000
 41
0.4270
 42
0.5770
 43
1.0000
 50
0.0000
  0
INSERT
  8
30
  2
RECT
 10
15.0500
 20
14.5250
 30
0.0000
 41
0.4270
 42
0.5770
 43
1.0000
 50
0.0000
  0
INSERT
  8
30
  2
RECT
 10
14.5250
 20
15.0500
 30
0.0000
 41
0.4270
 42
0.5770
 43
1.0000
 50
270.0000
  0
INSERT
  8
30
  2
RECT
 10
14.5250
 20
15.5500
 30
0.0000
 41
0.4270
 42
0.5770
 43
1.0000
 50
270.0000
  0
INSERT
  8
30
  2
RECT
 10
14.5250
 20
16.0500
 30
0.0000
 41
0.4270
 42
0.5770
 43
1.0000
 50
270.0000
  0
INSERT
  8
30
  2
RECT
 10
14.5250
 20
16.5500
 30
0.0000
 41
0.4270
 42
0.5770
 43
1.0000
 50
270.0000
  0
INSERT
  8
30
  2
RECT
 10
15.0500
 20
17.0750
 30
0.0000
 41
0.4270
 42
0.5770
 43
1.0000
 50
180.0000
  0
INSERT
  8
30
  2
RECT
 10
15.5500
 20
17.0750
 30
0.0000
 41
0.4270
 42
0.5770
 43
1.0000
 50
180.0000
  0
INSERT
  8
30
  2
RECT
 10
16.0500
 20
17.0750
 30
0.0000
 41
0.4270
 42
0.5770
 43
1.0000
 50
180.0000
  0
INSERT
  8
30
  2
RECT
 10
16.5500
 20
17.0750
 30
0.0000
 41
0.4270
 42
0.5770
 43
1.0000
 50
180.0000
  0
ENDSEC
  0
EOF
