  0
SECTION
  2
HEADER
  9
$ACADVER
  1
AC1009
  9
$FILLMODE
 70
0
  9
$EXTMIN
 10
-0.2287
 20
-0.2287
 30
0.0000
  9
$EXTMAX
 10
105.8287
 20
105.8287
 30
0.0000
  0
ENDSEC
  0
SECTION
  2
TABLES
  0
TABLE
  2
LTYPE
 70
1
  0
LTYPE
  2
CONTINUOUS
 70
64
  3
Solid line
 72
65
 73
0
 40
0
  0
ENDTAB
  0
TABLE
  2
LAYER
 70
255
  0
LAYER
  2
19
 70
64
 62
53
  6
CONTINUOUS
  0
LAYER
  2
20
 70
64
 62
31
  6
CONTINUOUS
  0
LAYER
  2
27
 70
64
 62
253
  6
CONTINUOUS
  0
LAYER
  2
46
 70
64
 62
140
  6
CONTINUOUS
  0
ENDTAB
  0
ENDSEC
  0
SECTION
  2
BLOCKS
  0
BLOCK
  8
0
  2
RECT
 70
64
 10
0.0000
 20
0.0000
 30
0.0000
  3
RECT
  0
SOLID
  8
0
 10
-0.5000
 20
-0.5000
 30
0.0000
 11
0.5000
 21
-0.5000
 31
0.0000
 12
-0.5000
 22
0.5000
 32
0.0000
 13
0.5000
 23
0.5000
 33
0.0000
  0
ENDBLK
  8
0
  0
BLOCK
  8
0
  2
PIE
 70
64
 10
0.0000
 20
0.0000
 30
0.0000
  3
PIE
  0
CIRCLE
  8
0
 10
0.0000
 20
0.0000
 30
0.0000
 40
0.5000
  0
ENDBLK
  8
0
  0
BLOCK
  8
0
  2
OCTAGONP
 70
64
 10
0.0000
 20
0.0000
 30
0.0000
  3
OCTAGONP
  0
POLYLINE
  8
0
 66
1
 10
0.0000
 20
0.0000
 30
0.0000
 40
0.0000
 41
0.0000
 70
1
  0
VERTEX
  8
0
 10
-0.5000
 20
-0.2071
 30
0.0000
  0
VERTEX
  8
0
 10
-0.5000
 20
0.2071
 30
0.0000
  0
VERTEX
  8
0
 10
-0.2071
 20
0.5000
 30
0.0000
  0
VERTEX
  8
0
 10
0.2071
 20
0.5000
 30
0.0000
  0
VERTEX
  8
0
 10
0.5000
 20
0.2071
 30
0.0000
  0
VERTEX
  8
0
 10
0.5000
 20
-0.2071
 30
0.0000
  0
VERTEX
  8
0
 10
0.2071
 20
-0.5000
 30
0.0000
  0
VERTEX
  8
0
 10
-0.2071
 20
-0.5000
 30
0.0000
  0
SEQEND
  8
0
  0
ENDBLK
  8
0
  0
BLOCK
  8
0
  2
SQUAREP
 70
64
 10
0.0000
 20
0.0000
 30
0.0000
  3
SQUAREP
  0
SOLID
  8
0
 10
-0.5000
 20
-0.5000
 30
0.0000
 11
0.5000
 21
-0.5000
 31
0.0000
 12
-0.5000
 22
0.5000
 32
0.0000
 13
0.5000
 23
0.5000
 33
0.0000
  0
ENDBLK
  8
0
  0
BLOCK
  8
0
  2
ROUNDP
 70
64
 10
0.0000
 20
0.0000
 30
0.0000
  3
ROUNDP
  0
CIRCLE
  8
0
 10
0.0000
 20
0.0000
 30
0.0000
 40
0.5000
  0
ENDBLK
  8
0
  0
BLOCK
  8
0
  2
ANNULUSP
 70
64
 10
0.0000
 20
0.0000
 30
0.0000
  3
ANNULUSP
  0
CIRCLE
  8
0
 10
0.0000
 20
0.0000
 30
0.0000
 40
0.5000
  0
ENDBLK
  8
0
  0
BLOCK
  8
0
  2
THERMALP
 70
64
 10
0.0000
 20
0.0000
 30
0.0000
  3
THERMALP
  0
LINE
  8
0
 10
-0.2379
 20
0.4500
 30
0.0000
 11
0.2379
 21
0.4500
 31
0.0000
  0
LINE
  8
0
 10
0.4500
 20
0.2379
 30
0.0000
 11
0.4500
 21
-0.2379
 31
0.0000
  0
LINE
  8
0
 10
0.2379
 20
-0.4500
 30
0.0000
 11
-0.2379
 21
-0.4500
 31
0.0000
  0
LINE
  8
0
 10
-0.4500
 20
-0.2379
 30
0.0000
 11
-0.4500
 21
0.2379
 31
0.0000
  0
ENDBLK
  8
0
  0
BLOCK
  8
0
  2
OCTAGONV
 70
64
 10
0.0000
 20
0.0000
 30
0.0000
  3
OCTAGONV
  0
POLYLINE
  8
0
 66
1
 10
0.0000
 20
0.0000
 30
0.0000
 40
0.0000
 41
0.0000
 70
1
  0
VERTEX
  8
0
 10
-0.5000
 20
-0.2071
 30
0.0000
  0
VERTEX
  8
0
 10
-0.5000
 20
0.2071
 30
0.0000
  0
VERTEX
  8
0
 10
-0.2071
 20
0.5000
 30
0.0000
  0
VERTEX
  8
0
 10
0.2071
 20
0.5000
 30
0.0000
  0
VERTEX
  8
0
 10
0.5000
 20
0.2071
 30
0.0000
  0
VERTEX
  8
0
 10
0.5000
 20
-0.2071
 30
0.0000
  0
VERTEX
  8
0
 10
0.2071
 20
-0.5000
 30
0.0000
  0
VERTEX
  8
0
 10
-0.2071
 20
-0.5000
 30
0.0000
  0
SEQEND
  8
0
  0
ENDBLK
  8
0
  0
BLOCK
  8
0
  2
SQUAREV
 70
64
 10
0.0000
 20
0.0000
 30
0.0000
  3
SQUAREV
  0
SOLID
  8
0
 10
-0.5000
 20
-0.5000
 30
0.0000
 11
0.5000
 21
-0.5000
 31
0.0000
 12
-0.5000
 22
0.5000
 32
0.0000
 13
0.5000
 23
0.5000
 33
0.0000
  0
ENDBLK
  8
0
  0
BLOCK
  8
0
  2
ROUNDV
 70
64
 10
0.0000
 20
0.0000
 30
0.0000
  3
ROUNDV
  0
CIRCLE
  8
0
 10
0.0000
 20
0.0000
 30
0.0000
 40
0.5000
  0
ENDBLK
  8
0
  0
BLOCK
  8
0
  2
ANNULUSV
 70
64
 10
0.0000
 20
0.0000
 30
0.0000
  3
ANNULUSV
  0
CIRCLE
  8
0
 10
0.0000
 20
0.0000
 30
0.0000
 40
0.5000
  0
ENDBLK
  8
0
  0
BLOCK
  8
0
  2
THERMALV
 70
64
 10
0.0000
 20
0.0000
 30
0.0000
  3
THERMALV
  0
LINE
  8
0
 10
-0.2379
 20
0.4500
 30
0.0000
 11
0.2379
 21
0.4500
 31
0.0000
  0
LINE
  8
0
 10
0.4500
 20
0.2379
 30
0.0000
 11
0.4500
 21
-0.2379
 31
0.0000
  0
LINE
  8
0
 10
0.2379
 20
-0.4500
 30
0.0000
 11
-0.2379
 21
-0.4500
 31
0.0000
  0
LINE
  8
0
 10
-0.4500
 20
-0.2379
 30
0.0000
 11
-0.4500
 21
0.2379
 31
0.0000
  0
ENDBLK
  8
0
  0
ENDSEC
  0
SECTION
  2
ENTITIES
  0
ARC
  8
20
 10
91.3280
 20
105.1000
 30
0.0000
 40
0.5000
 50
0.0000
 51
90.0000
  0
ARC
  8
20
 10
93.0980
 20
100.9980
 30
0.0000
 40
1.2700
 50
180.0000
 51
270.0000
  0
ARC
  8
20
 10
93.2280
 20
99.2280
 30
0.0000
 40
0.5000
 50
0.0000
 51
90.0000
  0
ARC
  8
20
 10
94.9980
 20
94.9980
 30
0.0000
 40
1.2700
 50
180.0000
 51
270.0000
  0
ARC
  8
20
 10
101.9280
 20
93.2280
 30
0.0000
 40
0.5000
 50
0.0000
 51
90.0000
  0
ARC
  8
20
 10
103.6980
 20
93.1980
 30
0.0000
 40
1.2700
 50
180.0000
 51
270.0000
  0
ARC
  8
20
 10
105.1000
 20
91.4280
 30
0.0000
 40
0.5000
 50
0.0000
 51
90.0000
  0
ARC
  8
20
 10
105.1000
 20
14.1720
 30
0.0000
 40
0.5000
 50
270.0000
 51
0.0000
  0
ARC
  8
20
 10
103.6980
 20
12.4020
 30
0.0000
 40
1.2700
 50
90.0000
 51
180.0000
  0
ARC
  8
20
 10
101.9280
 20
12.3720
 30
0.0000
 40
0.5000
 50
270.0000
 51
0.0000
  0
ARC
  8
20
 10
94.9980
 20
10.6020
 30
0.0000
 40
1.2700
 50
90.0000
 51
180.0000
  0
ARC
  8
20
 10
93.2280
 20
6.3720
 30
0.0000
 40
0.5000
 50
270.0000
 51
0.0000
  0
ARC
  8
20
 10
93.0980
 20
4.6020
 30
0.0000
 40
1.2700
 50
90.0000
 51
180.0000
  0
ARC
  8
20
 10
91.3280
 20
0.5000
 30
0.0000
 40
0.5000
 50
270.0000
 51
0.0000
  0
ARC
  8
20
 10
14.2720
 20
0.5000
 30
0.0000
 40
0.5000
 50
180.0000
 51
270.0000
  0
ARC
  8
20
 10
12.5020
 20
4.6020
 30
0.0000
 40
1.2700
 50
0.0000
 51
90.0000
  0
ARC
  8
20
 10
12.3720
 20
6.3720
 30
0.0000
 40
0.5000
 50
180.0000
 51
270.0000
  0
ARC
  8
20
 10
10.6020
 20
10.6020
 30
0.0000
 40
1.2700
 50
0.0000
 51
90.0000
  0
ARC
  8
20
 10
3.6720
 20
12.3720
 30
0.0000
 40
0.5000
 50
180.0000
 51
270.0000
  0
ARC
  8
20
 10
1.9020
 20
12.4020
 30
0.0000
 40
1.2700
 50
0.0000
 51
90.0000
  0
ARC
  8
20
 10
0.5000
 20
14.1720
 30
0.0000
 40
0.5000
 50
180.0000
 51
270.0000
  0
ARC
  8
20
 10
0.5000
 20
91.4280
 30
0.0000
 40
0.5000
 50
90.0000
 51
180.0000
  0
ARC
  8
20
 10
1.9020
 20
93.1980
 30
0.0000
 40
1.2700
 50
270.0000
 51
0.0000
  0
ARC
  8
20
 10
3.6720
 20
93.2280
 30
0.0000
 40
0.5000
 50
90.0000
 51
180.0000
  0
ARC
  8
20
 10
10.6020
 20
94.9980
 30
0.0000
 40
1.2700
 50
270.0000
 51
0.0000
  0
ARC
  8
20
 10
12.3720
 20
99.2280
 30
0.0000
 40
0.5000
 50
90.0000
 51
180.0000
  0
ARC
  8
20
 10
12.5020
 20
100.9980
 30
0.0000
 40
1.2700
 50
270.0000
 51
0.0000
  0
ARC
  8
20
 10
14.2720
 20
105.1000
 30
0.0000
 40
0.5000
 50
90.0000
 51
180.0000
  0
ARC
  8
20
 10
70.5125
 20
35.0875
 30
0.0000
 40
21.8066
 50
273.5859
 51
356.4141
  0
ARC
  8
20
 10
76.4500
 20
50.2571
 30
0.0000
 40
0.5000
 50
179.9997
 51
225.0005
  0
ARC
  8
20
 10
76.4535
 20
55.3414
 30
0.0000
 40
0.5035
 50
135.1596
 51
180.1605
  0
ARC
  8
20
 10
70.5180
 20
70.5113
 30
0.0000
 40
21.8013
 50
3.5900
 51
86.4182
  0
ARC
  8
20
 10
55.3429
 20
76.4500
 30
0.0000
 40
0.5000
 50
269.9997
 51
315.0005
  0
ARC
  8
20
 10
50.2536
 20
76.4414
 30
0.0000
 40
0.4914
 50
224.5807
 51
269.5814
  0
ARC
  8
20
 10
35.0893
 20
70.5073
 30
0.0000
 40
21.8119
 50
93.5900
 51
176.4182
  0
ARC
  8
20
 10
29.1400
 20
55.4129
 30
0.0000
 40
0.5000
 50
359.9997
 51
45.0005
  0
ARC
  8
20
 10
29.1500
 20
50.2571
 30
0.0000
 40
0.5000
 50
314.9994
 51
0.0003
  0
ARC
  8
20
 10
35.0875
 20
35.0875
 30
0.0000
 40
21.8066
 50
183.5859
 51
266.4141
  0
ARC
  8
20
 10
50.2571
 20
29.1500
 30
0.0000
 40
0.5000
 50
89.9997
 51
135.0005
  0
ARC
  8
20
 10
55.3429
 20
29.1500
 30
0.0000
 40
0.5000
 50
44.9993
 51
90.0004
  0
LINE
  8
20
 10
91.8280
 20
105.1000
 30
0.0000
 11
91.8280
 21
100.9980
 31
0.0000
  0
LINE
  8
20
 10
93.0980
 20
99.7280
 30
0.0000
 11
93.2280
 21
99.7280
 31
0.0000
  0
LINE
  8
20
 10
93.7280
 20
99.2280
 30
0.0000
 11
93.7280
 21
94.9980
 31
0.0000
  0
LINE
  8
20
 10
94.9980
 20
93.7280
 30
0.0000
 11
101.9280
 21
93.7280
 31
0.0000
  0
LINE
  8
20
 10
102.4280
 20
93.2280
 30
0.0000
 11
102.4280
 21
93.1980
 31
0.0000
  0
LINE
  8
20
 10
103.6980
 20
91.9280
 30
0.0000
 11
105.1000
 21
91.9280
 31
0.0000
  0
LINE
  8
20
 10
105.6000
 20
14.1720
 30
0.0000
 11
105.6000
 21
91.4280
 31
0.0000
  0
LINE
  8
20
 10
103.6980
 20
13.6720
 30
0.0000
 11
105.1000
 21
13.6720
 31
0.0000
  0
LINE
  8
20
 10
102.4280
 20
12.3720
 30
0.0000
 11
102.4280
 21
12.4020
 31
0.0000
  0
LINE
  8
20
 10
94.9980
 20
11.8720
 30
0.0000
 11
101.9280
 21
11.8720
 31
0.0000
  0
LINE
  8
20
 10
93.7280
 20
6.3720
 30
0.0000
 11
93.7280
 21
10.6020
 31
0.0000
  0
LINE
  8
20
 10
93.0980
 20
5.8720
 30
0.0000
 11
93.2280
 21
5.8720
 31
0.0000
  0
LINE
  8
20
 10
14.2720
 20
0.0000
 30
0.0000
 11
91.3280
 21
0.0000
 31
0.0000
  0
LINE
  8
20
 10
12.5020
 20
5.8720
 30
0.0000
 11
12.3720
 21
5.8720
 31
0.0000
  0
LINE
  8
20
 10
11.8720
 20
6.3720
 30
0.0000
 11
11.8720
 21
10.6020
 31
0.0000
  0
LINE
  8
20
 10
10.6020
 20
11.8720
 30
0.0000
 11
3.6720
 21
11.8720
 31
0.0000
  0
LINE
  8
20
 10
3.1720
 20
12.3720
 30
0.0000
 11
3.1720
 21
12.4020
 31
0.0000
  0
LINE
  8
20
 10
0.0000
 20
91.4280
 30
0.0000
 11
0.0000
 21
14.1720
 31
0.0000
  0
LINE
  8
20
 10
3.1720
 20
93.2280
 30
0.0000
 11
3.1720
 21
93.1980
 31
0.0000
  0
LINE
  8
20
 10
10.6020
 20
93.7280
 30
0.0000
 11
3.6720
 21
93.7280
 31
0.0000
  0
LINE
  8
20
 10
11.8720
 20
99.2280
 30
0.0000
 11
11.8720
 21
94.9980
 31
0.0000
  0
LINE
  8
20
 10
12.5020
 20
99.7280
 30
0.0000
 11
12.3720
 21
99.7280
 31
0.0000
  0
LINE
  8
20
 10
13.7720
 20
105.1000
 30
0.0000
 11
13.7720
 21
100.9980
 31
0.0000
  0
LINE
  8
20
 10
91.3280
 20
105.6000
 30
0.0000
 11
14.2720
 21
105.6000
 31
0.0000
  0
LINE
  8
20
 10
92.2765
 20
33.7236
 30
0.0000
 11
76.0965
 21
49.9036
 31
0.0000
  0
LINE
  8
20
 10
75.9500
 20
50.2571
 30
0.0000
 11
75.9500
 21
55.3400
 31
0.0000
  0
LINE
  8
20
 10
76.0965
 20
55.6965
 30
0.0000
 11
92.2765
 21
71.8764
 31
0.0000
  0
LINE
  8
20
 10
71.8800
 20
92.2700
 30
0.0000
 11
55.6965
 21
76.0965
 31
0.0000
  0
LINE
  8
20
 10
55.3429
 20
75.9500
 30
0.0000
 11
50.2500
 21
75.9500
 31
0.0000
  0
LINE
  8
20
 10
49.9036
 20
76.0965
 30
0.0000
 11
33.7236
 21
92.2765
 31
0.0000
  0
LINE
  8
20
 10
13.3200
 20
71.8700
 30
0.0000
 11
29.4935
 21
55.7665
 31
0.0000
  0
LINE
  8
20
 10
29.6400
 20
55.4129
 30
0.0000
 11
29.6500
 21
50.2571
 31
0.0000
  0
LINE
  8
20
 10
29.5035
 20
49.9036
 30
0.0000
 11
13.3235
 21
33.7236
 31
0.0000
  0
LINE
  8
20
 10
33.7236
 20
13.3235
 30
0.0000
 11
49.9036
 21
29.5035
 31
0.0000
  0
LINE
  8
20
 10
50.2571
 20
29.6500
 30
0.0000
 11
55.3429
 21
29.6500
 31
0.0000
  0
LINE
  8
20
 10
55.6965
 20
29.5035
 30
0.0000
 11
71.8764
 21
13.3235
 31
0.0000
  0
LINE
  8
20
 10
1.9020
 20
91.9280
 30
0.0000
 11
0.5000
 21
91.9280
 31
0.0000
  0
LINE
  8
20
 10
1.9020
 20
13.6720
 30
0.0000
 11
0.5000
 21
13.6720
 31
0.0000
  0
LINE
  8
20
 10
13.7720
 20
0.5000
 30
0.0000
 11
13.7720
 21
4.6020
 31
0.0000
  0
LINE
  8
20
 10
91.8280
 20
0.5000
 30
0.0000
 11
91.8280
 21
4.6020
 31
0.0000
  0
ARC
  8
20
 10
91.3280
 20
105.1000
 30
0.0000
 40
0.5000
 50
0.0000
 51
90.0000
  0
ARC
  8
20
 10
93.0980
 20
100.9980
 30
0.0000
 40
1.2700
 50
180.0000
 51
270.0000
  0
ARC
  8
20
 10
93.2280
 20
99.2280
 30
0.0000
 40
0.5000
 50
0.0000
 51
90.0000
  0
ARC
  8
20
 10
94.9980
 20
94.9980
 30
0.0000
 40
1.2700
 50
180.0000
 51
270.0000
  0
ARC
  8
20
 10
101.9280
 20
93.2280
 30
0.0000
 40
0.5000
 50
0.0000
 51
90.0000
  0
ARC
  8
20
 10
103.6980
 20
93.1980
 30
0.0000
 40
1.2700
 50
180.0000
 51
270.0000
  0
ARC
  8
20
 10
105.1000
 20
91.4280
 30
0.0000
 40
0.5000
 50
0.0000
 51
90.0000
  0
ARC
  8
20
 10
105.1000
 20
14.1720
 30
0.0000
 40
0.5000
 50
270.0000
 51
0.0000
  0
ARC
  8
20
 10
103.6980
 20
12.4020
 30
0.0000
 40
1.2700
 50
90.0000
 51
180.0000
  0
ARC
  8
20
 10
101.9280
 20
12.3720
 30
0.0000
 40
0.5000
 50
270.0000
 51
0.0000
  0
ARC
  8
20
 10
94.9980
 20
10.6020
 30
0.0000
 40
1.2700
 50
90.0000
 51
180.0000
  0
ARC
  8
20
 10
93.2280
 20
6.3720
 30
0.0000
 40
0.5000
 50
270.0000
 51
0.0000
  0
ARC
  8
20
 10
93.0980
 20
4.6020
 30
0.0000
 40
1.2700
 50
90.0000
 51
180.0000
  0
ARC
  8
20
 10
91.3280
 20
0.5000
 30
0.0000
 40
0.5000
 50
270.0000
 51
0.0000
  0
ARC
  8
20
 10
14.2720
 20
0.5000
 30
0.0000
 40
0.5000
 50
180.0000
 51
270.0000
  0
ARC
  8
20
 10
12.5020
 20
4.6020
 30
0.0000
 40
1.2700
 50
0.0000
 51
90.0000
  0
ARC
  8
20
 10
12.3720
 20
6.3720
 30
0.0000
 40
0.5000
 50
180.0000
 51
270.0000
  0
ARC
  8
20
 10
10.6020
 20
10.6020
 30
0.0000
 40
1.2700
 50
0.0000
 51
90.0000
  0
ARC
  8
20
 10
3.6720
 20
12.3720
 30
0.0000
 40
0.5000
 50
180.0000
 51
270.0000
  0
ARC
  8
20
 10
1.9020
 20
12.4020
 30
0.0000
 40
1.2700
 50
0.0000
 51
90.0000
  0
ARC
  8
20
 10
0.5000
 20
14.1720
 30
0.0000
 40
0.5000
 50
180.0000
 51
270.0000
  0
ARC
  8
20
 10
0.5000
 20
91.4280
 30
0.0000
 40
0.5000
 50
90.0000
 51
180.0000
  0
ARC
  8
20
 10
1.9020
 20
93.1980
 30
0.0000
 40
1.2700
 50
270.0000
 51
0.0000
  0
ARC
  8
20
 10
3.6720
 20
93.2280
 30
0.0000
 40
0.5000
 50
90.0000
 51
180.0000
  0
ARC
  8
20
 10
10.6020
 20
94.9980
 30
0.0000
 40
1.2700
 50
270.0000
 51
0.0000
  0
ARC
  8
20
 10
12.3720
 20
99.2280
 30
0.0000
 40
0.5000
 50
90.0000
 51
180.0000
  0
ARC
  8
20
 10
12.5020
 20
100.9980
 30
0.0000
 40
1.2700
 50
270.0000
 51
0.0000
  0
ARC
  8
20
 10
14.2720
 20
105.1000
 30
0.0000
 40
0.5000
 50
90.0000
 51
180.0000
  0
ARC
  8
20
 10
70.5125
 20
35.0875
 30
0.0000
 40
21.8066
 50
273.5859
 51
356.4141
  0
ARC
  8
20
 10
76.4500
 20
50.2571
 30
0.0000
 40
0.5000
 50
179.9997
 51
225.0005
  0
ARC
  8
20
 10
76.4535
 20
55.3414
 30
0.0000
 40
0.5035
 50
135.1596
 51
180.1605
  0
ARC
  8
20
 10
70.5180
 20
70.5113
 30
0.0000
 40
21.8013
 50
3.5900
 51
86.4182
  0
ARC
  8
20
 10
55.3429
 20
76.4500
 30
0.0000
 40
0.5000
 50
269.9997
 51
315.0005
  0
ARC
  8
20
 10
50.2536
 20
76.4414
 30
0.0000
 40
0.4914
 50
224.5807
 51
269.5814
  0
ARC
  8
20
 10
35.0893
 20
70.5073
 30
0.0000
 40
21.8119
 50
93.5900
 51
176.4182
  0
ARC
  8
20
 10
29.1400
 20
55.4129
 30
0.0000
 40
0.5000
 50
359.9997
 51
45.0005
  0
ARC
  8
20
 10
29.1500
 20
50.2571
 30
0.0000
 40
0.5000
 50
314.9994
 51
0.0003
  0
ARC
  8
20
 10
35.0875
 20
35.0875
 30
0.0000
 40
21.8066
 50
183.5859
 51
266.4141
  0
ARC
  8
20
 10
50.2571
 20
29.1500
 30
0.0000
 40
0.5000
 50
89.9997
 51
135.0005
  0
ARC
  8
20
 10
55.3429
 20
29.1500
 30
0.0000
 40
0.5000
 50
44.9993
 51
90.0004
  0
CIRCLE
  8
20
 10
102.3000
 20
25.3000
 30
0.0000
 40
1.0500
  0
CIRCLE
  8
20
 10
80.3000
 20
3.3000
 30
0.0000
 40
1.0500
  0
CIRCLE
  8
20
 10
102.3000
 20
80.3000
 30
0.0000
 40
1.0500
  0
CIRCLE
  8
20
 10
25.3000
 20
3.3000
 30
0.0000
 40
1.0500
  0
CIRCLE
  8
20
 10
3.3000
 20
25.3000
 30
0.0000
 40
1.0500
  0
CIRCLE
  8
20
 10
3.3000
 20
80.3000
 30
0.0000
 40
1.0500
  0
CIRCLE
  8
20
 10
80.3000
 20
102.3000
 30
0.0000
 40
1.0500
  0
CIRCLE
  8
20
 10
25.3000
 20
102.3000
 30
0.0000
 40
1.0500
  0
CIRCLE
  8
20
 10
10.3000
 20
87.0850
 30
0.0000
 40
0.8000
  0
CIRCLE
  8
20
 10
10.3000
 20
76.3150
 30
0.0000
 40
0.8000
  0
ENDSEC
  0
EOF
