  0
SECTION
  2
HEADER
  9
$ACADVER
  1
AC1009
  9
$INSBASE
 10
0.0
 20
0.0
 30
0.0
  9
$EXTMIN
 10
0.0
 20
0.0
 30
0.0
  9
$EXTMAX
 10
0.0
 20
0.0
 30
0.0
  0
ENDSEC
  0
SECTION
  2
TABLES
  0
TABLE
  2
VPORT
 70
0
  0
ENDTAB
  0
TABLE
  2
LTYPE
 70
1
  0
LTYPE
  2
CONTINUOUS
 70
0
  3
Solid line
 72
65
 73
0
 40
0.0
  0
ENDTAB
  0
TABLE
  2
LAYER
 70
1
  0
LAYER
  2
0
 70
64
 62
7
  6
continuous
  0
ENDTAB
  0
TABLE
  2
STYLE
 70
1
  0
STYLE
  2
STANDARD
 70
0
 40
0
 41
1.0
 50
0.0
 71
0
 42
1
 3
ARIAL.TTF
 4

  0
ENDTAB
  0
TABLE
  2
VIEW
 70
0
  0
ENDTAB
  0
ENDSEC
  0
SECTION
  2
BLOCKS
  0
BLOCK
  8
0
  2
FACEFEAT
 70
0
 10
0.0
 20
0.0
 30
0.0
  3
FACEFEAT
  0
LINE
  8
0
 62
0
 10
39.69372445237289
 20
33.7250616209615
 30
0.0
 11
39.6937244523729
 21
15.0
 31
0.0
  0
ARC
  8
0
 62
0
 10
37.6937244523729
 20
33.7250616209615
 30
0.0
 40
2.0
 50
-0.0
 51
30.482708887644616
  0
ARC
  8
0
 62
0
 10
21.6937244523729
 20
33.7250616209615
 30
0.0
 40
2.0
 50
149.5172911123554
 51
-180.0
  0
ARC
  8
0
 62
0
 10
21.6937244523729
 20
-33.7250616209614
 30
0.0
 40
2.0
 50
-180.0
 51
-149.5172911123554
  0
ARC
  8
0
 62
0
 10
26.8472190320029
 20
-42.4799999999999
 30
0.0
 40
2.0
 50
-149.5172911123528
 51
-90.0
  0
ARC
  8
0
 62
0
 10
32.5402298727429
 20
-42.4799999999999
 30
0.0
 40
2.0
 50
-90.0
 51
-30.48270888764744
  0
ARC
  8
0
 62
0
 10
37.6937244523729
 20
-33.7250616209614
 30
0.0
 40
2.0
 50
-30.482708887644616
 51
-0.0
  0
ARC
  8
0
 62
0
 10
32.5402298727429
 20
42.48
 30
0.0
 40
2.0
 50
30.48270888764744
 51
90.0
  0
ARC
  8
0
 62
0
 10
26.8472190320028
 20
42.48
 30
0.0
 40
2.0
 50
90.0
 51
149.5172911123528
  0
LINE
  8
0
 62
0
 10
39.6937244523729
 20
-14.9999999999999
 30
0.0
 11
39.693724452372905
 21
-33.7250616209614
 31
0.0
  0
LINE
  8
0
 62
0
 10
34.26379445194759
 20
43.4945566230187
 30
0.0
 11
39.417289031577575
 21
34.73961824398008
 31
0.0
  0
LINE
  8
0
 62
0
 10
26.8472190320028
 20
44.48
 30
0.0
 11
32.5402298727429
 21
44.47999999999999
 31
0.0
  0
LINE
  8
0
 62
0
 10
19.970159873168225
 20
34.739618243980075
 30
0.0
 11
25.12365445279818
 21
43.49455662301865
 31
0.0
  0
LINE
  8
0
 62
0
 10
19.693724452372905
 20
-33.7250616209614
 30
0.0
 11
19.6937244523729
 21
33.7250616209615
 31
0.0
  0
LINE
  8
0
 62
0
 10
25.123654452798206
 20
-43.494556623018596
 30
0.0
 11
19.97015987316821
 21
-34.73961824397999
 31
0.0
  0
LINE
  8
0
 62
0
 10
32.5402298727429
 20
-44.47999999999989
 30
0.0
 11
26.8472190320029
 21
-44.4799999999999
 31
0.0
  0
LINE
  8
0
 62
0
 10
39.41728903157757
 20
-34.739618243979976
 30
0.0
 11
34.26379445194758
 21
-43.494556623018596
 31
0.0
  0
CIRCLE
  8
0
 62
0
 10
-49.5
 20
27.5
 30
0.0
 40
1.05
  0
CIRCLE
  8
0
 62
0
 10
27.5
 20
49.5
 30
0.0
 40
1.05
  0
CIRCLE
  8
0
 62
0
 10
49.5
 20
27.5
 30
0.0
 40
1.05
  0
CIRCLE
  8
0
 62
0
 10
49.5
 20
-27.5
 30
0.0
 40
1.05
  0
CIRCLE
  8
0
 62
0
 10
27.5
 20
-49.5
 30
0.0
 40
1.05
  0
CIRCLE
  8
0
 62
0
 10
-27.5
 20
-49.5
 30
0.0
 40
1.05
  0
CIRCLE
  8
0
 62
0
 10
-49.5
 20
-27.5
 30
0.0
 40
1.05
  0
CIRCLE
  8
0
 62
0
 10
-27.5
 20
49.5
 30
0.0
 40
1.05
  0
ARC
  8
0
 62
0
 10
52.3
 20
-38.5
 30
0.0
 40
0.500000000000014
 50
-90.0
 51
-0.0
  0
LINE
  8
0
 62
0
 10
48.17
 20
-39.0
 30
0.0
 11
52.3
 21
-39.0
 31
0.0
  0
ARC
  8
0
 62
0
 10
48.17
 20
-40.27
 30
0.0
 40
1.26999999999999
 50
90.0
 51
-180.0
  0
LINE
  8
0
 62
0
 10
46.9
 20
-40.4
 30
0.0
 11
46.9
 21
-40.27
 31
0.0
  0
ARC
  8
0
 62
0
 10
46.4
 20
-40.4
 30
0.0
 40
0.499999999999994
 50
-90.0
 51
-0.0
  0
LINE
  8
0
 62
0
 10
42.17
 20
-40.9
 30
0.0
 11
46.4
 21
-40.9
 31
0.0
  0
ARC
  8
0
 62
0
 10
42.17
 20
-42.17
 30
0.0
 40
1.27
 50
90.0
 51
-180.0
  0
LINE
  8
0
 62
0
 10
40.9
 20
-46.4
 30
0.0
 11
40.9
 21
-42.17
 31
0.0
  0
ARC
  8
0
 62
0
 10
40.4
 20
-46.4
 30
0.0
 40
0.5
 50
-90.0
 51
-0.0
  0
LINE
  8
0
 62
0
 10
40.27
 20
-46.9
 30
0.0
 11
40.4
 21
-46.9
 31
0.0
  0
ARC
  8
0
 62
0
 10
40.27
 20
-48.17
 30
0.0
 40
1.27
 50
90.0
 51
-180.0
  0
LINE
  8
0
 62
0
 10
39.0
 20
-52.3
 30
0.0
 11
39.0
 21
-48.17
 31
0.0
  0
ARC
  8
0
 62
0
 10
38.5
 20
-52.3
 30
0.0
 40
0.499999999999994
 50
-90.0
 51
-0.0
  0
LINE
  8
0
 62
0
 10
38.5
 20
-52.800000000000004
 30
0.0
 11
-38.5
 21
-52.8
 31
0.0
  0
ARC
  8
0
 62
0
 10
-38.5
 20
-52.3
 30
0.0
 40
0.5
 50
-180.0
 51
-90.0
  0
LINE
  8
0
 62
0
 10
-39.0
 20
-52.3
 30
0.0
 11
-39.0
 21
-48.17
 31
0.0
  0
ARC
  8
0
 62
0
 10
-40.27
 20
-48.17
 30
0.0
 40
1.27
 50
-0.0
 51
90.0
  0
LINE
  8
0
 62
0
 10
-40.27
 20
-46.9
 30
0.0
 11
-40.4
 21
-46.9
 31
0.0
  0
ARC
  8
0
 62
0
 10
-40.4
 20
-46.4
 30
0.0
 40
0.499999999999994
 50
-180.0
 51
-90.0
  0
LINE
  8
0
 62
0
 10
-40.9
 20
-46.4
 30
0.0
 11
-40.9
 21
-42.17
 31
0.0
  0
ARC
  8
0
 62
0
 10
-42.17
 20
-42.17
 30
0.0
 40
1.27
 50
-0.0
 51
90.0
  0
LINE
  8
0
 62
0
 10
-42.17
 20
-40.9
 30
0.0
 11
-46.4
 21
-40.9
 31
0.0
  0
ARC
  8
0
 62
0
 10
-46.4
 20
-40.4
 30
0.0
 40
0.499999999999987
 50
-180.0
 51
-90.0
  0
LINE
  8
0
 62
0
 10
-46.9
 20
-40.4
 30
0.0
 11
-46.9
 21
-40.27
 31
0.0
  0
ARC
  8
0
 62
0
 10
-48.17
 20
-40.27
 30
0.0
 40
1.26999999999999
 50
-0.0
 51
90.0
  0
LINE
  8
0
 62
0
 10
-48.17
 20
-39.0
 30
0.0
 11
-52.3
 21
-39.0
 31
0.0
  0
ARC
  8
0
 62
0
 10
-52.3
 20
-38.5
 30
0.0
 40
0.5
 50
-180.0
 51
-90.0
  0
LINE
  8
0
 62
0
 10
-52.80000000000002
 20
-38.5
 30
0.0
 11
-52.799999999999976
 21
38.5
 31
0.0
  0
ARC
  8
0
 62
0
 10
-52.3
 20
38.5
 30
0.0
 40
0.49999999999999
 50
90.0
 51
-180.0
  0
LINE
  8
0
 62
0
 10
-52.3
 20
39.0
 30
0.0
 11
-48.17
 21
39.0
 31
0.0
  0
ARC
  8
0
 62
0
 10
-48.17
 20
40.27
 30
0.0
 40
1.27
 50
-90.0
 51
-0.0
  0
LINE
  8
0
 62
0
 10
-46.9
 20
40.27
 30
0.0
 11
-46.9
 21
40.4
 31
0.0
  0
ARC
  8
0
 62
0
 10
-46.4
 20
40.4
 30
0.0
 40
0.500000000000007
 50
90.0
 51
-180.0
  0
LINE
  8
0
 62
0
 10
-46.4
 20
40.9
 30
0.0
 11
-42.17
 21
40.9
 31
0.0
  0
ARC
  8
0
 62
0
 10
-42.17
 20
42.17
 30
0.0
 40
1.27
 50
-90.0
 51
-0.0
  0
LINE
  8
0
 62
0
 10
-40.9
 20
42.17
 30
0.0
 11
-40.9
 21
46.4
 31
0.0
  0
ARC
  8
0
 62
0
 10
-40.4
 20
46.4
 30
0.0
 40
0.5
 50
90.0
 51
-180.0
  0
LINE
  8
0
 62
0
 10
-40.4
 20
46.9
 30
0.0
 11
-40.27
 21
46.9
 31
0.0
  0
ARC
  8
0
 62
0
 10
-40.27
 20
48.17
 30
0.0
 40
1.27
 50
-90.0
 51
-0.0
  0
LINE
  8
0
 62
0
 10
-39.0
 20
48.17
 30
0.0
 11
-39.0
 21
52.3
 31
0.0
  0
ARC
  8
0
 62
0
 10
-38.5
 20
52.3
 30
0.0
 40
0.500000000000021
 50
90.0
 51
-180.0
  0
LINE
  8
0
 62
0
 10
38.5
 20
52.79999999999999
 30
0.0
 11
-38.5
 21
52.800000000000026
 31
0.0
  0
ARC
  8
0
 62
0
 10
38.5
 20
52.3
 30
0.0
 40
0.499999999999994
 50
-0.0
 51
90.0
  0
LINE
  8
0
 62
0
 10
39.0
 20
48.17
 30
0.0
 11
39.0
 21
52.3
 31
0.0
  0
ARC
  8
0
 62
0
 10
40.27
 20
48.17
 30
0.0
 40
1.26999999999997
 50
-180.0
 51
-90.0
  0
LINE
  8
0
 62
0
 10
40.4
 20
46.9
 30
0.0
 11
40.27
 21
46.9
 31
0.0
  0
ARC
  8
0
 62
0
 10
40.4
 20
46.4
 30
0.0
 40
0.5
 50
-0.0
 51
90.0
  0
LINE
  8
0
 62
0
 10
40.9
 20
42.17
 30
0.0
 11
40.9
 21
46.4
 31
0.0
  0
ARC
  8
0
 62
0
 10
42.17
 20
42.17
 30
0.0
 40
1.27
 50
-180.0
 51
-90.0
  0
LINE
  8
0
 62
0
 10
46.4
 20
40.9
 30
0.0
 11
42.17
 21
40.9
 31
0.0
  0
ARC
  8
0
 62
0
 10
46.4
 20
40.4
 30
0.0
 40
0.499999999999994
 50
-0.0
 51
90.0
  0
LINE
  8
0
 62
0
 10
46.9
 20
40.27
 30
0.0
 11
46.9
 21
40.4
 31
0.0
  0
ARC
  8
0
 62
0
 10
48.17
 20
40.27
 30
0.0
 40
1.26999999999999
 50
-180.0
 51
-90.0
  0
LINE
  8
0
 62
0
 10
52.3
 20
39.0
 30
0.0
 11
48.17
 21
39.0
 31
0.0
  0
ARC
  8
0
 62
0
 10
52.3
 20
38.5
 30
0.0
 40
0.499999999999994
 50
-0.0
 51
90.0
  0
LINE
  8
0
 62
0
 10
52.79999999999999
 20
-38.5
 30
0.0
 11
52.800000000000004
 21
38.5
 31
0.0
  0
LINE
  8
0
 62
0
 10
39.6937244523729
 20
-14.9999999999999
 30
0.0
 11
41.6937244523729
 21
-14.999999999999902
 31
0.0
  0
LINE
  8
0
 62
0
 10
41.6937244523729
 20
15.0
 30
0.0
 11
39.6937244523729
 21
15.000000000000002
 31
0.0
  0
LINE
  8
0
 62
0
 10
41.6937244523729
 20
-15.0
 30
0.0
 11
41.69372445237292
 21
15.0
 31
0.0
  0
ARC
  8
0
 62
0
 10
-13.96
 20
7.93999999999999
 30
0.0
 40
25.75
 50
-0.0
 51
-90.00000000000001
  0
ARC
  8
0
 62
0
 10
-13.96
 20
7.93999999999999
 30
0.0
 40
25.75
 50
-90.0
 51
-0.0
  0
ARC
  8
0
 62
0
 10
-13.96
 20
-20.06
 30
0.0
 40
1.1
 50
-0.0
 51
90.0
  0
ARC
  8
0
 62
0
 10
-13.96
 20
-20.06
 30
0.0
 40
1.1
 50
90.0
 51
-0.0
  0
ARC
  8
0
 62
0
 10
14.04
 20
7.93999999999998
 30
0.0
 40
1.1
 50
-0.0
 51
90.0
  0
ARC
  8
0
 62
0
 10
14.04
 20
7.93999999999998
 30
0.0
 40
1.1
 50
90.0
 51
-0.0
  0
ARC
  8
0
 62
0
 10
-13.96
 20
35.94
 30
0.0
 40
1.1
 50
-0.0
 51
90.0
  0
ARC
  8
0
 62
0
 10
-13.96
 20
35.94
 30
0.0
 40
1.1
 50
90.0
 51
-0.0
  0
ARC
  8
0
 62
0
 10
-41.96
 20
7.93999999999999
 30
0.0
 40
1.1
 50
-0.0
 51
90.0
  0
ARC
  8
0
 62
0
 10
-41.96
 20
7.93999999999999
 30
0.0
 40
1.1
 50
90.0
 51
-0.0
  0
ENDBLK
  0
ENDSEC
  0
SECTION
  2
ENTITIES
  0
INSERT
  2
FACEFEAT
  8
0
 62
0
 10
0.0
 20
0.0
 30
0.0
  0
ENDSEC
  0
EOF
