  0
SECTION
  2
HEADER
  9
$ACADVER
  1
AC1009
  9
$FILLMODE
 70
0
  9
$EXTMIN
 10
-0.1000
 20
-0.1000
 30
0.0000
  9
$EXTMAX
 10
105.8287
 20
105.8287
 30
0.0000
  0
ENDSEC
  0
SECTION
  2
TABLES
  0
TABLE
  2
LTYPE
 70
1
  0
LTYPE
  2
CONTINUOUS
 70
64
  3
Solid line
 72
65
 73
0
 40
0
  0
ENDTAB
  0
TABLE
  2
LAYER
 70
255
  0
LAYER
  2
17
 70
64
 62
110
  6
CONTINUOUS
  0
LAYER
  2
20
 70
64
 62
53
  6
CONTINUOUS
  0
LAYER
  2
52
 70
64
 62
7
  6
CONTINUOUS
  0
ENDTAB
  0
ENDSEC
  0
SECTION
  2
BLOCKS
  0
BLOCK
  8
0
  2
RECT
 70
64
 10
0.0000
 20
0.0000
 30
0.0000
  3
RECT
  0
SOLID
  8
0
 10
-0.5000
 20
-0.5000
 30
0.0000
 11
0.5000
 21
-0.5000
 31
0.0000
 12
-0.5000
 22
0.5000
 32
0.0000
 13
0.5000
 23
0.5000
 33
0.0000
  0
ENDBLK
  8
0
  0
BLOCK
  8
0
  2
PIE
 70
64
 10
0.0000
 20
0.0000
 30
0.0000
  3
PIE
  0
CIRCLE
  8
0
 10
0.0000
 20
0.0000
 30
0.0000
 40
0.5000
  0
ENDBLK
  8
0
  0
BLOCK
  8
0
  2
OCTAGONP
 70
64
 10
0.0000
 20
0.0000
 30
0.0000
  3
OCTAGONP
  0
POLYLINE
  8
0
 66
1
 10
0.0000
 20
0.0000
 30
0.0000
 40
0.0000
 41
0.0000
 70
1
  0
VERTEX
  8
0
 10
-0.5000
 20
-0.2071
 30
0.0000
  0
VERTEX
  8
0
 10
-0.5000
 20
0.2071
 30
0.0000
  0
VERTEX
  8
0
 10
-0.2071
 20
0.5000
 30
0.0000
  0
VERTEX
  8
0
 10
0.2071
 20
0.5000
 30
0.0000
  0
VERTEX
  8
0
 10
0.5000
 20
0.2071
 30
0.0000
  0
VERTEX
  8
0
 10
0.5000
 20
-0.2071
 30
0.0000
  0
VERTEX
  8
0
 10
0.2071
 20
-0.5000
 30
0.0000
  0
VERTEX
  8
0
 10
-0.2071
 20
-0.5000
 30
0.0000
  0
SEQEND
  8
0
  0
ENDBLK
  8
0
  0
BLOCK
  8
0
  2
SQUAREP
 70
64
 10
0.0000
 20
0.0000
 30
0.0000
  3
SQUAREP
  0
SOLID
  8
0
 10
-0.5000
 20
-0.5000
 30
0.0000
 11
0.5000
 21
-0.5000
 31
0.0000
 12
-0.5000
 22
0.5000
 32
0.0000
 13
0.5000
 23
0.5000
 33
0.0000
  0
ENDBLK
  8
0
  0
BLOCK
  8
0
  2
ROUNDP
 70
64
 10
0.0000
 20
0.0000
 30
0.0000
  3
ROUNDP
  0
CIRCLE
  8
0
 10
0.0000
 20
0.0000
 30
0.0000
 40
0.5000
  0
ENDBLK
  8
0
  0
BLOCK
  8
0
  2
ANNULUSP
 70
64
 10
0.0000
 20
0.0000
 30
0.0000
  3
ANNULUSP
  0
CIRCLE
  8
0
 10
0.0000
 20
0.0000
 30
0.0000
 40
0.5000
  0
ENDBLK
  8
0
  0
BLOCK
  8
0
  2
THERMALP
 70
64
 10
0.0000
 20
0.0000
 30
0.0000
  3
THERMALP
  0
POLYLINE
  8
0
 66
1
 10
0.0000
 20
0.0000
 30
0.0000
 40
0.0000
 41
0.0000
 70
1
  0
VERTEX
  8
0
 10
-0.2379
 20
0.4000
 30
0.0000
  0
VERTEX
  8
0
 10
0.2379
 20
0.4000
 30
0.0000
 42
1.0000
  0
VERTEX
  8
0
 10
0.2379
 20
0.5000
 30
0.0000
  0
VERTEX
  8
0
 10
-0.2379
 20
0.5000
 30
0.0000
 42
1.0000
  0
SEQEND
  8
0
  0
POLYLINE
  8
0
 66
1
 10
0.0000
 20
0.0000
 30
0.0000
 40
0.0000
 41
0.0000
 70
1
  0
VERTEX
  8
0
 10
0.4000
 20
0.2379
 30
0.0000
  0
VERTEX
  8
0
 10
0.4000
 20
-0.2379
 30
0.0000
 42
1.0000
  0
VERTEX
  8
0
 10
0.5000
 20
-0.2379
 30
0.0000
  0
VERTEX
  8
0
 10
0.5000
 20
0.2379
 30
0.0000
 42
1.0000
  0
SEQEND
  8
0
  0
POLYLINE
  8
0
 66
1
 10
0.0000
 20
0.0000
 30
0.0000
 40
0.0000
 41
0.0000
 70
1
  0
VERTEX
  8
0
 10
0.2379
 20
-0.4000
 30
0.0000
  0
VERTEX
  8
0
 10
-0.2379
 20
-0.4000
 30
0.0000
 42
1.0000
  0
VERTEX
  8
0
 10
-0.2379
 20
-0.5000
 30
0.0000
  0
VERTEX
  8
0
 10
0.2379
 20
-0.5000
 30
0.0000
 42
1.0000
  0
SEQEND
  8
0
  0
POLYLINE
  8
0
 66
1
 10
0.0000
 20
0.0000
 30
0.0000
 40
0.0000
 41
0.0000
 70
1
  0
VERTEX
  8
0
 10
-0.4000
 20
-0.2379
 30
0.0000
  0
VERTEX
  8
0
 10
-0.4000
 20
0.2379
 30
0.0000
 42
1.0000
  0
VERTEX
  8
0
 10
-0.5000
 20
0.2379
 30
0.0000
  0
VERTEX
  8
0
 10
-0.5000
 20
-0.2379
 30
0.0000
 42
1.0000
  0
SEQEND
  8
0
  0
ENDBLK
  8
0
  0
BLOCK
  8
0
  2
OCTAGONV
 70
64
 10
0.0000
 20
0.0000
 30
0.0000
  3
OCTAGONV
  0
POLYLINE
  8
0
 66
1
 10
0.0000
 20
0.0000
 30
0.0000
 40
0.0000
 41
0.0000
 70
1
  0
VERTEX
  8
0
 10
-0.5000
 20
-0.2071
 30
0.0000
  0
VERTEX
  8
0
 10
-0.5000
 20
0.2071
 30
0.0000
  0
VERTEX
  8
0
 10
-0.2071
 20
0.5000
 30
0.0000
  0
VERTEX
  8
0
 10
0.2071
 20
0.5000
 30
0.0000
  0
VERTEX
  8
0
 10
0.5000
 20
0.2071
 30
0.0000
  0
VERTEX
  8
0
 10
0.5000
 20
-0.2071
 30
0.0000
  0
VERTEX
  8
0
 10
0.2071
 20
-0.5000
 30
0.0000
  0
VERTEX
  8
0
 10
-0.2071
 20
-0.5000
 30
0.0000
  0
SEQEND
  8
0
  0
ENDBLK
  8
0
  0
BLOCK
  8
0
  2
SQUAREV
 70
64
 10
0.0000
 20
0.0000
 30
0.0000
  3
SQUAREV
  0
SOLID
  8
0
 10
-0.5000
 20
-0.5000
 30
0.0000
 11
0.5000
 21
-0.5000
 31
0.0000
 12
-0.5000
 22
0.5000
 32
0.0000
 13
0.5000
 23
0.5000
 33
0.0000
  0
ENDBLK
  8
0
  0
BLOCK
  8
0
  2
ROUNDV
 70
64
 10
0.0000
 20
0.0000
 30
0.0000
  3
ROUNDV
  0
CIRCLE
  8
0
 10
0.0000
 20
0.0000
 30
0.0000
 40
0.5000
  0
ENDBLK
  8
0
  0
BLOCK
  8
0
  2
ANNULUSV
 70
64
 10
0.0000
 20
0.0000
 30
0.0000
  3
ANNULUSV
  0
CIRCLE
  8
0
 10
0.0000
 20
0.0000
 30
0.0000
 40
0.5000
  0
ENDBLK
  8
0
  0
BLOCK
  8
0
  2
THERMALV
 70
64
 10
0.0000
 20
0.0000
 30
0.0000
  3
THERMALV
  0
POLYLINE
  8
0
 66
1
 10
0.0000
 20
0.0000
 30
0.0000
 40
0.0000
 41
0.0000
 70
1
  0
VERTEX
  8
0
 10
-0.2379
 20
0.4000
 30
0.0000
  0
VERTEX
  8
0
 10
0.2379
 20
0.4000
 30
0.0000
 42
1.0000
  0
VERTEX
  8
0
 10
0.2379
 20
0.5000
 30
0.0000
  0
VERTEX
  8
0
 10
-0.2379
 20
0.5000
 30
0.0000
 42
1.0000
  0
SEQEND
  8
0
  0
POLYLINE
  8
0
 66
1
 10
0.0000
 20
0.0000
 30
0.0000
 40
0.0000
 41
0.0000
 70
1
  0
VERTEX
  8
0
 10
0.4000
 20
0.2379
 30
0.0000
  0
VERTEX
  8
0
 10
0.4000
 20
-0.2379
 30
0.0000
 42
1.0000
  0
VERTEX
  8
0
 10
0.5000
 20
-0.2379
 30
0.0000
  0
VERTEX
  8
0
 10
0.5000
 20
0.2379
 30
0.0000
 42
1.0000
  0
SEQEND
  8
0
  0
POLYLINE
  8
0
 66
1
 10
0.0000
 20
0.0000
 30
0.0000
 40
0.0000
 41
0.0000
 70
1
  0
VERTEX
  8
0
 10
0.2379
 20
-0.4000
 30
0.0000
  0
VERTEX
  8
0
 10
-0.2379
 20
-0.4000
 30
0.0000
 42
1.0000
  0
VERTEX
  8
0
 10
-0.2379
 20
-0.5000
 30
0.0000
  0
VERTEX
  8
0
 10
0.2379
 20
-0.5000
 30
0.0000
 42
1.0000
  0
SEQEND
  8
0
  0
POLYLINE
  8
0
 66
1
 10
0.0000
 20
0.0000
 30
0.0000
 40
0.0000
 41
0.0000
 70
1
  0
VERTEX
  8
0
 10
-0.4000
 20
-0.2379
 30
0.0000
  0
VERTEX
  8
0
 10
-0.4000
 20
0.2379
 30
0.0000
 42
1.0000
  0
VERTEX
  8
0
 10
-0.5000
 20
0.2379
 30
0.0000
  0
VERTEX
  8
0
 10
-0.5000
 20
-0.2379
 30
0.0000
 42
1.0000
  0
SEQEND
  8
0
  0
ENDBLK
  8
0
  0
BLOCK
  8
0
  2
LONGP100
 70
64
 10
0.0000
 20
0.0000
 30
0.0000
  3
LONGP100
  0
POLYLINE
  8
0
 66
1
 10
0.0000
 20
0.0000
 30
0.0000
 40
0.0000
 41
0.0000
 70
1
  0
VERTEX
  8
0
 10
-0.5000
 20
-0.5000
 30
0.0000
  0
VERTEX
  8
0
 10
0.5000
 20
-0.5000
 30
0.0000
 42
1.0000
  0
VERTEX
  8
0
 10
0.5000
 20
0.5000
 30
0.0000
  0
VERTEX
  8
0
 10
-0.5000
 20
0.5000
 30
0.0000
 42
1.0000
  0
SEQEND
  8
0
  0
ENDBLK
  8
0
  0
ENDSEC
  0
SECTION
  2
ENTITIES
  0
POLYLINE
  8
20
 66
1
 10
0.0000
 20
0.0000
 30
0.0000
 40
0.0000
 41
0.0000
 70
1
  0
VERTEX
  8
20
 10
93.7275
 20
99.2280
 30
0.0000
  0
VERTEX
  8
20
 10
93.7275
 20
94.9980
 30
0.0000
 42
1.0000
  0
VERTEX
  8
20
 10
93.7285
 20
94.9980
 30
0.0000
  0
VERTEX
  8
20
 10
93.7285
 20
99.2280
 30
0.0000
 42
1.0000
  0
SEQEND
  8
0
  0
POLYLINE
  8
20
 66
1
 10
0.0000
 20
0.0000
 30
0.0000
 40
0.0000
 41
0.0000
 70
1
  0
VERTEX
  8
20
 10
11.8715
 20
99.2280
 30
0.0000
  0
VERTEX
  8
20
 10
11.8715
 20
94.9980
 30
0.0000
 42
1.0000
  0
VERTEX
  8
20
 10
11.8725
 20
94.9980
 30
0.0000
  0
VERTEX
  8
20
 10
11.8725
 20
99.2280
 30
0.0000
 42
1.0000
  0
SEQEND
  8
0
  0
POLYLINE
  8
20
 66
1
 10
0.0000
 20
0.0000
 30
0.0000
 40
0.0000
 41
0.0000
 70
1
  0
VERTEX
  8
20
 10
12.5020
 20
99.7285
 30
0.0000
  0
VERTEX
  8
20
 10
12.3720
 20
99.7285
 30
0.0000
 42
1.0000
  0
VERTEX
  8
20
 10
12.3720
 20
99.7275
 30
0.0000
  0
VERTEX
  8
20
 10
12.5020
 20
99.7275
 30
0.0000
 42
1.0000
  0
SEQEND
  8
0
  0
POLYLINE
  8
20
 66
1
 10
0.0000
 20
0.0000
 30
0.0000
 40
0.0000
 41
0.0000
 70
1
  0
VERTEX
  8
20
 10
10.6020
 20
93.7285
 30
0.0000
  0
VERTEX
  8
20
 10
3.6720
 20
93.7285
 30
0.0000
 42
1.0000
  0
VERTEX
  8
20
 10
3.6720
 20
93.7275
 30
0.0000
  0
VERTEX
  8
20
 10
10.6020
 20
93.7275
 30
0.0000
 42
1.0000
  0
SEQEND
  8
0
  0
POLYLINE
  8
20
 66
1
 10
0.0000
 20
0.0000
 30
0.0000
 40
0.0000
 41
0.0000
 70
1
  0
VERTEX
  8
20
 10
10.6020
 20
11.8725
 30
0.0000
  0
VERTEX
  8
20
 10
3.6720
 20
11.8725
 30
0.0000
 42
1.0000
  0
VERTEX
  8
20
 10
3.6720
 20
11.8715
 30
0.0000
  0
VERTEX
  8
20
 10
10.6020
 20
11.8715
 30
0.0000
 42
1.0000
  0
SEQEND
  8
0
  0
POLYLINE
  8
20
 66
1
 10
0.0000
 20
0.0000
 30
0.0000
 40
0.0000
 41
0.0000
 70
1
  0
VERTEX
  8
20
 10
12.5020
 20
5.8725
 30
0.0000
  0
VERTEX
  8
20
 10
12.3720
 20
5.8725
 30
0.0000
 42
1.0000
  0
VERTEX
  8
20
 10
12.3720
 20
5.8715
 30
0.0000
  0
VERTEX
  8
20
 10
12.5020
 20
5.8715
 30
0.0000
 42
1.0000
  0
SEQEND
  8
0
  0
POLYLINE
  8
20
 66
1
 10
0.0000
 20
0.0000
 30
0.0000
 40
0.0000
 41
0.0000
 70
1
  0
VERTEX
  8
20
 10
11.8725
 20
6.3720
 30
0.0000
  0
VERTEX
  8
20
 10
11.8725
 20
10.6020
 30
0.0000
 42
1.0000
  0
VERTEX
  8
20
 10
11.8715
 20
10.6020
 30
0.0000
  0
VERTEX
  8
20
 10
11.8715
 20
6.3720
 30
0.0000
 42
1.0000
  0
SEQEND
  8
0
  0
POLYLINE
  8
20
 66
1
 10
0.0000
 20
0.0000
 30
0.0000
 40
0.0000
 41
0.0000
 70
1
  0
VERTEX
  8
20
 10
93.7285
 20
6.3720
 30
0.0000
  0
VERTEX
  8
20
 10
93.7285
 20
10.6020
 30
0.0000
 42
1.0000
  0
VERTEX
  8
20
 10
93.7275
 20
10.6020
 30
0.0000
  0
VERTEX
  8
20
 10
93.7275
 20
6.3720
 30
0.0000
 42
1.0000
  0
SEQEND
  8
0
  0
POLYLINE
  8
20
 66
1
 10
0.0000
 20
0.0000
 30
0.0000
 40
0.0000
 41
0.0000
 70
1
  0
VERTEX
  8
20
 10
93.0980
 20
5.8715
 30
0.0000
  0
VERTEX
  8
20
 10
93.2280
 20
5.8715
 30
0.0000
 42
1.0000
  0
VERTEX
  8
20
 10
93.2280
 20
5.8725
 30
0.0000
  0
VERTEX
  8
20
 10
93.0980
 20
5.8725
 30
0.0000
 42
1.0000
  0
SEQEND
  8
0
  0
POLYLINE
  8
20
 66
1
 10
0.0000
 20
0.0000
 30
0.0000
 40
0.0000
 41
0.0000
 70
1
  0
VERTEX
  8
20
 10
94.9980
 20
11.8715
 30
0.0000
  0
VERTEX
  8
20
 10
101.9280
 20
11.8715
 30
0.0000
 42
1.0000
  0
VERTEX
  8
20
 10
101.9280
 20
11.8725
 30
0.0000
  0
VERTEX
  8
20
 10
94.9980
 20
11.8725
 30
0.0000
 42
1.0000
  0
SEQEND
  8
0
  0
POLYLINE
  8
20
 66
1
 10
0.0000
 20
0.0000
 30
0.0000
 40
0.0000
 41
0.0000
 70
1
  0
VERTEX
  8
20
 10
94.9980
 20
93.7275
 30
0.0000
  0
VERTEX
  8
20
 10
101.9280
 20
93.7275
 30
0.0000
 42
1.0000
  0
VERTEX
  8
20
 10
101.9280
 20
93.7285
 30
0.0000
  0
VERTEX
  8
20
 10
94.9980
 20
93.7285
 30
0.0000
 42
1.0000
  0
SEQEND
  8
0
  0
POLYLINE
  8
20
 66
1
 10
0.0000
 20
0.0000
 30
0.0000
 40
0.0000
 41
0.0000
 70
1
  0
VERTEX
  8
20
 10
93.0980
 20
99.7275
 30
0.0000
  0
VERTEX
  8
20
 10
93.2280
 20
99.7275
 30
0.0000
 42
1.0000
  0
VERTEX
  8
20
 10
93.2280
 20
99.7285
 30
0.0000
  0
VERTEX
  8
20
 10
93.0980
 20
99.7285
 30
0.0000
 42
1.0000
  0
SEQEND
  8
0
  0
POLYLINE
  8
20
 66
1
 10
0.0000
 20
0.0000
 30
0.0000
 40
0.0000
 41
0.0000
 70
1
  0
VERTEX
  8
20
 10
3.1725
 20
93.1980
 30
0.0000
  0
VERTEX
  8
20
 10
3.1725
 20
93.2280
 30
0.0000
 42
1.0000
  0
VERTEX
  8
20
 10
3.1715
 20
93.2280
 30
0.0000
  0
VERTEX
  8
20
 10
3.1715
 20
93.1980
 30
0.0000
 42
1.0000
  0
SEQEND
  8
0
  0
POLYLINE
  8
20
 66
1
 10
0.0000
 20
0.0000
 30
0.0000
 40
0.0000
 41
0.0000
 70
1
  0
VERTEX
  8
20
 10
3.1715
 20
12.4020
 30
0.0000
  0
VERTEX
  8
20
 10
3.1715
 20
12.3720
 30
0.0000
 42
1.0000
  0
VERTEX
  8
20
 10
3.1725
 20
12.3720
 30
0.0000
  0
VERTEX
  8
20
 10
3.1725
 20
12.4020
 30
0.0000
 42
1.0000
  0
SEQEND
  8
0
  0
POLYLINE
  8
20
 66
1
 10
0.0000
 20
0.0000
 30
0.0000
 40
0.0000
 41
0.0000
 70
1
  0
VERTEX
  8
20
 10
0.5000
 20
13.6715
 30
0.0000
  0
VERTEX
  8
20
 10
1.9020
 20
13.6715
 30
0.0000
 42
1.0000
  0
VERTEX
  8
20
 10
1.9020
 20
13.6725
 30
0.0000
  0
VERTEX
  8
20
 10
0.5000
 20
13.6725
 30
0.0000
 42
1.0000
  0
SEQEND
  8
0
  0
POLYLINE
  8
20
 66
1
 10
0.0000
 20
0.0000
 30
0.0000
 40
0.0000
 41
0.0000
 70
1
  0
VERTEX
  8
20
 10
-0.0005
 20
91.4280
 30
0.0000
  0
VERTEX
  8
20
 10
-0.0005
 20
14.1720
 30
0.0000
 42
1.0000
  0
VERTEX
  8
20
 10
0.0005
 20
14.1720
 30
0.0000
  0
VERTEX
  8
20
 10
0.0005
 20
91.4280
 30
0.0000
 42
1.0000
  0
SEQEND
  8
0
  0
POLYLINE
  8
20
 66
1
 10
0.0000
 20
0.0000
 30
0.0000
 40
0.0000
 41
0.0000
 70
1
  0
VERTEX
  8
20
 10
0.5000
 20
91.9275
 30
0.0000
  0
VERTEX
  8
20
 10
1.9020
 20
91.9275
 30
0.0000
 42
1.0000
  0
VERTEX
  8
20
 10
1.9020
 20
91.9285
 30
0.0000
  0
VERTEX
  8
20
 10
0.5000
 20
91.9285
 30
0.0000
 42
1.0000
  0
SEQEND
  8
0
  0
POLYLINE
  8
20
 66
1
 10
0.0000
 20
0.0000
 30
0.0000
 40
0.0000
 41
0.0000
 70
1
  0
VERTEX
  8
20
 10
91.8275
 20
4.6020
 30
0.0000
  0
VERTEX
  8
20
 10
91.8275
 20
0.5000
 30
0.0000
 42
1.0000
  0
VERTEX
  8
20
 10
91.8285
 20
0.5000
 30
0.0000
  0
VERTEX
  8
20
 10
91.8285
 20
4.6020
 30
0.0000
 42
1.0000
  0
SEQEND
  8
0
  0
POLYLINE
  8
20
 66
1
 10
0.0000
 20
0.0000
 30
0.0000
 40
0.0000
 41
0.0000
 70
1
  0
VERTEX
  8
20
 10
14.2720
 20
-0.0005
 30
0.0000
  0
VERTEX
  8
20
 10
91.3280
 20
-0.0005
 30
0.0000
 42
1.0000
  0
VERTEX
  8
20
 10
91.3280
 20
0.0005
 30
0.0000
  0
VERTEX
  8
20
 10
14.2720
 20
0.0005
 30
0.0000
 42
1.0000
  0
SEQEND
  8
0
  0
POLYLINE
  8
20
 66
1
 10
0.0000
 20
0.0000
 30
0.0000
 40
0.0000
 41
0.0000
 70
1
  0
VERTEX
  8
20
 10
13.7715
 20
4.6020
 30
0.0000
  0
VERTEX
  8
20
 10
13.7715
 20
0.5000
 30
0.0000
 42
1.0000
  0
VERTEX
  8
20
 10
13.7725
 20
0.5000
 30
0.0000
  0
VERTEX
  8
20
 10
13.7725
 20
4.6020
 30
0.0000
 42
1.0000
  0
SEQEND
  8
0
  0
POLYLINE
  8
20
 66
1
 10
0.0000
 20
0.0000
 30
0.0000
 40
0.0000
 41
0.0000
 70
1
  0
VERTEX
  8
20
 10
102.4275
 20
12.4020
 30
0.0000
  0
VERTEX
  8
20
 10
102.4275
 20
12.3720
 30
0.0000
 42
1.0000
  0
VERTEX
  8
20
 10
102.4285
 20
12.3720
 30
0.0000
  0
VERTEX
  8
20
 10
102.4285
 20
12.4020
 30
0.0000
 42
1.0000
  0
SEQEND
  8
0
  0
POLYLINE
  8
20
 66
1
 10
0.0000
 20
0.0000
 30
0.0000
 40
0.0000
 41
0.0000
 70
1
  0
VERTEX
  8
20
 10
102.4285
 20
93.1980
 30
0.0000
  0
VERTEX
  8
20
 10
102.4285
 20
93.2280
 30
0.0000
 42
1.0000
  0
VERTEX
  8
20
 10
102.4275
 20
93.2280
 30
0.0000
  0
VERTEX
  8
20
 10
102.4275
 20
93.1980
 30
0.0000
 42
1.0000
  0
SEQEND
  8
0
  0
POLYLINE
  8
20
 66
1
 10
0.0000
 20
0.0000
 30
0.0000
 40
0.0000
 41
0.0000
 70
1
  0
VERTEX
  8
20
 10
105.1000
 20
91.9285
 30
0.0000
  0
VERTEX
  8
20
 10
103.6980
 20
91.9285
 30
0.0000
 42
1.0000
  0
VERTEX
  8
20
 10
103.6980
 20
91.9275
 30
0.0000
  0
VERTEX
  8
20
 10
105.1000
 20
91.9275
 30
0.0000
 42
1.0000
  0
SEQEND
  8
0
  0
POLYLINE
  8
20
 66
1
 10
0.0000
 20
0.0000
 30
0.0000
 40
0.0000
 41
0.0000
 70
1
  0
VERTEX
  8
20
 10
105.6005
 20
14.1720
 30
0.0000
  0
VERTEX
  8
20
 10
105.6005
 20
91.4280
 30
0.0000
 42
1.0000
  0
VERTEX
  8
20
 10
105.5995
 20
91.4280
 30
0.0000
  0
VERTEX
  8
20
 10
105.5995
 20
14.1720
 30
0.0000
 42
1.0000
  0
SEQEND
  8
0
  0
POLYLINE
  8
20
 66
1
 10
0.0000
 20
0.0000
 30
0.0000
 40
0.0000
 41
0.0000
 70
1
  0
VERTEX
  8
20
 10
105.1000
 20
13.6725
 30
0.0000
  0
VERTEX
  8
20
 10
103.6980
 20
13.6725
 30
0.0000
 42
1.0000
  0
VERTEX
  8
20
 10
103.6980
 20
13.6715
 30
0.0000
  0
VERTEX
  8
20
 10
105.1000
 20
13.6715
 30
0.0000
 42
1.0000
  0
SEQEND
  8
0
  0
POLYLINE
  8
20
 66
1
 10
0.0000
 20
0.0000
 30
0.0000
 40
0.0000
 41
0.0000
 70
1
  0
VERTEX
  8
20
 10
91.8285
 20
100.9980
 30
0.0000
  0
VERTEX
  8
20
 10
91.8285
 20
105.1000
 30
0.0000
 42
1.0000
  0
VERTEX
  8
20
 10
91.8275
 20
105.1000
 30
0.0000
  0
VERTEX
  8
20
 10
91.8275
 20
100.9980
 30
0.0000
 42
1.0000
  0
SEQEND
  8
0
  0
POLYLINE
  8
20
 66
1
 10
0.0000
 20
0.0000
 30
0.0000
 40
0.0000
 41
0.0000
 70
1
  0
VERTEX
  8
20
 10
13.7725
 20
100.9980
 30
0.0000
  0
VERTEX
  8
20
 10
13.7725
 20
105.1000
 30
0.0000
 42
1.0000
  0
VERTEX
  8
20
 10
13.7715
 20
105.1000
 30
0.0000
  0
VERTEX
  8
20
 10
13.7715
 20
100.9980
 30
0.0000
 42
1.0000
  0
SEQEND
  8
0
  0
POLYLINE
  8
20
 66
1
 10
0.0000
 20
0.0000
 30
0.0000
 40
0.0000
 41
0.0000
 70
1
  0
VERTEX
  8
20
 10
91.3280
 20
105.6005
 30
0.0000
  0
VERTEX
  8
20
 10
14.2720
 20
105.6005
 30
0.0000
 42
1.0000
  0
VERTEX
  8
20
 10
14.2720
 20
105.5995
 30
0.0000
  0
VERTEX
  8
20
 10
91.3280
 20
105.5995
 30
0.0000
 42
1.0000
  0
SEQEND
  8
0
  0
POLYLINE
  8
20
 66
1
 10
0.0000
 20
0.0000
 30
0.0000
 40
0.0000
 41
0.0000
 70
1
  0
VERTEX
  8
20
 10
91.8285
 20
100.9980
 30
0.0000
 42
1.0000
  0
VERTEX
  8
20
 10
91.8275
 20
100.9980
 30
0.0000
 42
0.4142
  0
VERTEX
  8
20
 10
93.0980
 20
99.7275
 30
0.0000
 42
1.0000
  0
VERTEX
  8
20
 10
93.0980
 20
99.7285
 30
0.0000
 42
-0.4142
  0
SEQEND
  8
0
  0
POLYLINE
  8
20
 66
1
 10
0.0000
 20
0.0000
 30
0.0000
 40
0.0000
 41
0.0000
 70
1
  0
VERTEX
  8
20
 10
93.7285
 20
94.9980
 30
0.0000
 42
1.0000
  0
VERTEX
  8
20
 10
93.7275
 20
94.9980
 30
0.0000
 42
0.4142
  0
VERTEX
  8
20
 10
94.9980
 20
93.7275
 30
0.0000
 42
1.0000
  0
VERTEX
  8
20
 10
94.9980
 20
93.7285
 30
0.0000
 42
-0.4142
  0
SEQEND
  8
0
  0
POLYLINE
  8
20
 66
1
 10
0.0000
 20
0.0000
 30
0.0000
 40
0.0000
 41
0.0000
 70
1
  0
VERTEX
  8
20
 10
12.3720
 20
99.7275
 30
0.0000
 42
1.0000
  0
VERTEX
  8
20
 10
12.3720
 20
99.7285
 30
0.0000
 42
0.4142
  0
VERTEX
  8
20
 10
11.8715
 20
99.2280
 30
0.0000
 42
1.0000
  0
VERTEX
  8
20
 10
11.8725
 20
99.2280
 30
0.0000
 42
-0.4142
  0
SEQEND
  8
0
  0
POLYLINE
  8
20
 66
1
 10
0.0000
 20
0.0000
 30
0.0000
 40
0.0000
 41
0.0000
 70
1
  0
VERTEX
  8
20
 10
93.7275
 20
99.2280
 30
0.0000
 42
1.0000
  0
VERTEX
  8
20
 10
93.7285
 20
99.2280
 30
0.0000
 42
0.4142
  0
VERTEX
  8
20
 10
93.2280
 20
99.7285
 30
0.0000
 42
1.0000
  0
VERTEX
  8
20
 10
93.2280
 20
99.7275
 30
0.0000
 42
-0.4142
  0
SEQEND
  8
0
  0
POLYLINE
  8
20
 66
1
 10
0.0000
 20
0.0000
 30
0.0000
 40
0.0000
 41
0.0000
 70
1
  0
VERTEX
  8
20
 10
93.2280
 20
5.8725
 30
0.0000
 42
1.0000
  0
VERTEX
  8
20
 10
93.2280
 20
5.8715
 30
0.0000
 42
0.4142
  0
VERTEX
  8
20
 10
93.7285
 20
6.3720
 30
0.0000
 42
1.0000
  0
VERTEX
  8
20
 10
93.7275
 20
6.3720
 30
0.0000
 42
-0.4142
  0
SEQEND
  8
0
  0
POLYLINE
  8
20
 66
1
 10
0.0000
 20
0.0000
 30
0.0000
 40
0.0000
 41
0.0000
 70
1
  0
VERTEX
  8
20
 10
11.8725
 20
6.3720
 30
0.0000
 42
1.0000
  0
VERTEX
  8
20
 10
11.8715
 20
6.3720
 30
0.0000
 42
0.4142
  0
VERTEX
  8
20
 10
12.3720
 20
5.8715
 30
0.0000
 42
1.0000
  0
VERTEX
  8
20
 10
12.3720
 20
5.8725
 30
0.0000
 42
-0.4142
  0
SEQEND
  8
0
  0
POLYLINE
  8
20
 66
1
 10
0.0000
 20
0.0000
 30
0.0000
 40
0.0000
 41
0.0000
 70
1
  0
VERTEX
  8
20
 10
12.5020
 20
99.7285
 30
0.0000
 42
1.0000
  0
VERTEX
  8
20
 10
12.5020
 20
99.7275
 30
0.0000
 42
0.4142
  0
VERTEX
  8
20
 10
13.7725
 20
100.9980
 30
0.0000
 42
1.0000
  0
VERTEX
  8
20
 10
13.7715
 20
100.9980
 30
0.0000
 42
-0.4142
  0
SEQEND
  8
0
  0
POLYLINE
  8
20
 66
1
 10
0.0000
 20
0.0000
 30
0.0000
 40
0.0000
 41
0.0000
 70
1
  0
VERTEX
  8
20
 10
10.6020
 20
93.7285
 30
0.0000
 42
1.0000
  0
VERTEX
  8
20
 10
10.6020
 20
93.7275
 30
0.0000
 42
0.4142
  0
VERTEX
  8
20
 10
11.8725
 20
94.9980
 30
0.0000
 42
1.0000
  0
VERTEX
  8
20
 10
11.8715
 20
94.9980
 30
0.0000
 42
-0.4142
  0
SEQEND
  8
0
  0
POLYLINE
  8
20
 66
1
 10
0.0000
 20
0.0000
 30
0.0000
 40
0.0000
 41
0.0000
 70
1
  0
VERTEX
  8
20
 10
13.7715
 20
4.6020
 30
0.0000
 42
1.0000
  0
VERTEX
  8
20
 10
13.7725
 20
4.6020
 30
0.0000
 42
0.4142
  0
VERTEX
  8
20
 10
12.5020
 20
5.8725
 30
0.0000
 42
1.0000
  0
VERTEX
  8
20
 10
12.5020
 20
5.8715
 30
0.0000
 42
-0.4142
  0
SEQEND
  8
0
  0
POLYLINE
  8
20
 66
1
 10
0.0000
 20
0.0000
 30
0.0000
 40
0.0000
 41
0.0000
 70
1
  0
VERTEX
  8
20
 10
11.8715
 20
10.6020
 30
0.0000
 42
1.0000
  0
VERTEX
  8
20
 10
11.8725
 20
10.6020
 30
0.0000
 42
0.4142
  0
VERTEX
  8
20
 10
10.6020
 20
11.8725
 30
0.0000
 42
1.0000
  0
VERTEX
  8
20
 10
10.6020
 20
11.8715
 30
0.0000
 42
-0.4142
  0
SEQEND
  8
0
  0
POLYLINE
  8
20
 66
1
 10
0.0000
 20
0.0000
 30
0.0000
 40
0.0000
 41
0.0000
 70
1
  0
VERTEX
  8
20
 10
93.0980
 20
5.8715
 30
0.0000
 42
1.0000
  0
VERTEX
  8
20
 10
93.0980
 20
5.8725
 30
0.0000
 42
0.4142
  0
VERTEX
  8
20
 10
91.8275
 20
4.6020
 30
0.0000
 42
1.0000
  0
VERTEX
  8
20
 10
91.8285
 20
4.6020
 30
0.0000
 42
-0.4142
  0
SEQEND
  8
0
  0
POLYLINE
  8
20
 66
1
 10
0.0000
 20
0.0000
 30
0.0000
 40
0.0000
 41
0.0000
 70
1
  0
VERTEX
  8
20
 10
94.9980
 20
11.8715
 30
0.0000
 42
1.0000
  0
VERTEX
  8
20
 10
94.9980
 20
11.8725
 30
0.0000
 42
0.4142
  0
VERTEX
  8
20
 10
93.7275
 20
10.6020
 30
0.0000
 42
1.0000
  0
VERTEX
  8
20
 10
93.7285
 20
10.6020
 30
0.0000
 42
-0.4142
  0
SEQEND
  8
0
  0
POLYLINE
  8
20
 66
1
 10
0.0000
 20
0.0000
 30
0.0000
 40
0.0000
 41
0.0000
 70
1
  0
VERTEX
  8
20
 10
1.9020
 20
91.9285
 30
0.0000
 42
1.0000
  0
VERTEX
  8
20
 10
1.9020
 20
91.9275
 30
0.0000
 42
0.4142
  0
VERTEX
  8
20
 10
3.1725
 20
93.1980
 30
0.0000
 42
1.0000
  0
VERTEX
  8
20
 10
3.1715
 20
93.1980
 30
0.0000
 42
-0.4142
  0
SEQEND
  8
0
  0
POLYLINE
  8
20
 66
1
 10
0.0000
 20
0.0000
 30
0.0000
 40
0.0000
 41
0.0000
 70
1
  0
VERTEX
  8
20
 10
3.6720
 20
93.7275
 30
0.0000
 42
1.0000
  0
VERTEX
  8
20
 10
3.6720
 20
93.7285
 30
0.0000
 42
0.4142
  0
VERTEX
  8
20
 10
3.1715
 20
93.2280
 30
0.0000
 42
1.0000
  0
VERTEX
  8
20
 10
3.1725
 20
93.2280
 30
0.0000
 42
-0.4142
  0
SEQEND
  8
0
  0
POLYLINE
  8
20
 66
1
 10
0.0000
 20
0.0000
 30
0.0000
 40
0.0000
 41
0.0000
 70
1
  0
VERTEX
  8
20
 10
3.1725
 20
12.3720
 30
0.0000
 42
1.0000
  0
VERTEX
  8
20
 10
3.1715
 20
12.3720
 30
0.0000
 42
0.4142
  0
VERTEX
  8
20
 10
3.6720
 20
11.8715
 30
0.0000
 42
1.0000
  0
VERTEX
  8
20
 10
3.6720
 20
11.8725
 30
0.0000
 42
-0.4142
  0
SEQEND
  8
0
  0
POLYLINE
  8
20
 66
1
 10
0.0000
 20
0.0000
 30
0.0000
 40
0.0000
 41
0.0000
 70
1
  0
VERTEX
  8
20
 10
3.1715
 20
12.4020
 30
0.0000
 42
1.0000
  0
VERTEX
  8
20
 10
3.1725
 20
12.4020
 30
0.0000
 42
0.4142
  0
VERTEX
  8
20
 10
1.9020
 20
13.6725
 30
0.0000
 42
1.0000
  0
VERTEX
  8
20
 10
1.9020
 20
13.6715
 30
0.0000
 42
-0.4142
  0
SEQEND
  8
0
  0
POLYLINE
  8
20
 66
1
 10
0.0000
 20
0.0000
 30
0.0000
 40
0.0000
 41
0.0000
 70
1
  0
VERTEX
  8
20
 10
0.0005
 20
14.1720
 30
0.0000
 42
1.0000
  0
VERTEX
  8
20
 10
-0.0005
 20
14.1720
 30
0.0000
 42
0.4142
  0
VERTEX
  8
20
 10
0.5000
 20
13.6715
 30
0.0000
 42
1.0000
  0
VERTEX
  8
20
 10
0.5000
 20
13.6725
 30
0.0000
 42
-0.4142
  0
SEQEND
  8
0
  0
POLYLINE
  8
20
 66
1
 10
0.0000
 20
0.0000
 30
0.0000
 40
0.0000
 41
0.0000
 70
1
  0
VERTEX
  8
20
 10
0.5000
 20
91.9275
 30
0.0000
 42
1.0000
  0
VERTEX
  8
20
 10
0.5000
 20
91.9285
 30
0.0000
 42
0.4142
  0
VERTEX
  8
20
 10
-0.0005
 20
91.4280
 30
0.0000
 42
1.0000
  0
VERTEX
  8
20
 10
0.0005
 20
91.4280
 30
0.0000
 42
-0.4142
  0
SEQEND
  8
0
  0
POLYLINE
  8
20
 66
1
 10
0.0000
 20
0.0000
 30
0.0000
 40
0.0000
 41
0.0000
 70
1
  0
VERTEX
  8
20
 10
91.3280
 20
0.0005
 30
0.0000
 42
1.0000
  0
VERTEX
  8
20
 10
91.3280
 20
-0.0005
 30
0.0000
 42
0.4142
  0
VERTEX
  8
20
 10
91.8285
 20
0.5000
 30
0.0000
 42
1.0000
  0
VERTEX
  8
20
 10
91.8275
 20
0.5000
 30
0.0000
 42
-0.4142
  0
SEQEND
  8
0
  0
POLYLINE
  8
20
 66
1
 10
0.0000
 20
0.0000
 30
0.0000
 40
0.0000
 41
0.0000
 70
1
  0
VERTEX
  8
20
 10
13.7725
 20
0.5000
 30
0.0000
 42
1.0000
  0
VERTEX
  8
20
 10
13.7715
 20
0.5000
 30
0.0000
 42
0.4142
  0
VERTEX
  8
20
 10
14.2720
 20
-0.0005
 30
0.0000
 42
1.0000
  0
VERTEX
  8
20
 10
14.2720
 20
0.0005
 30
0.0000
 42
-0.4142
  0
SEQEND
  8
0
  0
POLYLINE
  8
20
 66
1
 10
0.0000
 20
0.0000
 30
0.0000
 40
0.0000
 41
0.0000
 70
1
  0
VERTEX
  8
20
 10
103.6980
 20
13.6715
 30
0.0000
 42
1.0000
  0
VERTEX
  8
20
 10
103.6980
 20
13.6725
 30
0.0000
 42
0.4142
  0
VERTEX
  8
20
 10
102.4275
 20
12.4020
 30
0.0000
 42
1.0000
  0
VERTEX
  8
20
 10
102.4285
 20
12.4020
 30
0.0000
 42
-0.4142
  0
SEQEND
  8
0
  0
POLYLINE
  8
20
 66
1
 10
0.0000
 20
0.0000
 30
0.0000
 40
0.0000
 41
0.0000
 70
1
  0
VERTEX
  8
20
 10
101.9280
 20
11.8725
 30
0.0000
 42
1.0000
  0
VERTEX
  8
20
 10
101.9280
 20
11.8715
 30
0.0000
 42
0.4142
  0
VERTEX
  8
20
 10
102.4285
 20
12.3720
 30
0.0000
 42
1.0000
  0
VERTEX
  8
20
 10
102.4275
 20
12.3720
 30
0.0000
 42
-0.4142
  0
SEQEND
  8
0
  0
POLYLINE
  8
20
 66
1
 10
0.0000
 20
0.0000
 30
0.0000
 40
0.0000
 41
0.0000
 70
1
  0
VERTEX
  8
20
 10
102.4275
 20
93.2280
 30
0.0000
 42
1.0000
  0
VERTEX
  8
20
 10
102.4285
 20
93.2280
 30
0.0000
 42
0.4142
  0
VERTEX
  8
20
 10
101.9280
 20
93.7285
 30
0.0000
 42
1.0000
  0
VERTEX
  8
20
 10
101.9280
 20
93.7275
 30
0.0000
 42
-0.4142
  0
SEQEND
  8
0
  0
POLYLINE
  8
20
 66
1
 10
0.0000
 20
0.0000
 30
0.0000
 40
0.0000
 41
0.0000
 70
1
  0
VERTEX
  8
20
 10
102.4285
 20
93.1980
 30
0.0000
 42
1.0000
  0
VERTEX
  8
20
 10
102.4275
 20
93.1980
 30
0.0000
 42
0.4142
  0
VERTEX
  8
20
 10
103.6980
 20
91.9275
 30
0.0000
 42
1.0000
  0
VERTEX
  8
20
 10
103.6980
 20
91.9285
 30
0.0000
 42
-0.4142
  0
SEQEND
  8
0
  0
POLYLINE
  8
20
 66
1
 10
0.0000
 20
0.0000
 30
0.0000
 40
0.0000
 41
0.0000
 70
1
  0
VERTEX
  8
20
 10
105.5995
 20
91.4280
 30
0.0000
 42
1.0000
  0
VERTEX
  8
20
 10
105.6005
 20
91.4280
 30
0.0000
 42
0.4142
  0
VERTEX
  8
20
 10
105.1000
 20
91.9285
 30
0.0000
 42
1.0000
  0
VERTEX
  8
20
 10
105.1000
 20
91.9275
 30
0.0000
 42
-0.4142
  0
SEQEND
  8
0
  0
POLYLINE
  8
20
 66
1
 10
0.0000
 20
0.0000
 30
0.0000
 40
0.0000
 41
0.0000
 70
1
  0
VERTEX
  8
20
 10
105.1000
 20
13.6725
 30
0.0000
 42
1.0000
  0
VERTEX
  8
20
 10
105.1000
 20
13.6715
 30
0.0000
 42
0.4142
  0
VERTEX
  8
20
 10
105.6005
 20
14.1720
 30
0.0000
 42
1.0000
  0
VERTEX
  8
20
 10
105.5995
 20
14.1720
 30
0.0000
 42
-0.4142
  0
SEQEND
  8
0
  0
POLYLINE
  8
20
 66
1
 10
0.0000
 20
0.0000
 30
0.0000
 40
0.0000
 41
0.0000
 70
1
  0
VERTEX
  8
20
 10
14.2720
 20
105.5995
 30
0.0000
 42
1.0000
  0
VERTEX
  8
20
 10
14.2720
 20
105.6005
 30
0.0000
 42
0.4142
  0
VERTEX
  8
20
 10
13.7715
 20
105.1000
 30
0.0000
 42
1.0000
  0
VERTEX
  8
20
 10
13.7725
 20
105.1000
 30
0.0000
 42
-0.4142
  0
SEQEND
  8
0
  0
POLYLINE
  8
20
 66
1
 10
0.0000
 20
0.0000
 30
0.0000
 40
0.0000
 41
0.0000
 70
1
  0
VERTEX
  8
20
 10
91.8275
 20
105.1000
 30
0.0000
 42
1.0000
  0
VERTEX
  8
20
 10
91.8285
 20
105.1000
 30
0.0000
 42
0.4142
  0
VERTEX
  8
20
 10
91.3280
 20
105.6005
 30
0.0000
 42
1.0000
  0
VERTEX
  8
20
 10
91.3280
 20
105.5995
 30
0.0000
 42
-0.4142
  0
SEQEND
  8
0
  0
CIRCLE
  8
20
 10
102.3000
 20
25.3000
 30
0.0000
 40
1.0500
  0
CIRCLE
  8
20
 10
80.3000
 20
3.3000
 30
0.0000
 40
1.0500
  0
CIRCLE
  8
20
 10
25.3000
 20
3.3000
 30
0.0000
 40
1.0500
  0
CIRCLE
  8
20
 10
3.3000
 20
25.3000
 30
0.0000
 40
1.0500
  0
CIRCLE
  8
20
 10
3.3000
 20
80.3000
 30
0.0000
 40
1.0500
  0
CIRCLE
  8
20
 10
25.3000
 20
102.3000
 30
0.0000
 40
1.0500
  0
CIRCLE
  8
20
 10
80.3000
 20
102.3000
 30
0.0000
 40
1.0500
  0
CIRCLE
  8
20
 10
102.3000
 20
80.3000
 30
0.0000
 40
1.0500
  0
POLYLINE
  8
52
 66
1
 10
0.0000
 20
0.0000
 30
0.0000
 40
0.0000
 41
0.0000
 70
1
  0
VERTEX
  8
52
 10
22.2238
 20
89.4778
 30
0.0000
  0
VERTEX
  8
52
 10
22.7000
 20
89.4778
 30
0.0000
 42
1.0000
  0
VERTEX
  8
52
 10
22.7000
 20
89.6048
 30
0.0000
  0
VERTEX
  8
52
 10
22.2238
 20
89.6048
 30
0.0000
 42
1.0000
  0
SEQEND
  8
0
  0
POLYLINE
  8
52
 66
1
 10
0.0000
 20
0.0000
 30
0.0000
 40
0.0000
 41
0.0000
 70
1
  0
VERTEX
  8
52
 10
22.7000
 20
89.4778
 30
0.0000
  0
VERTEX
  8
52
 10
23.1762
 20
89.4778
 30
0.0000
 42
1.0000
  0
VERTEX
  8
52
 10
23.1762
 20
89.6048
 30
0.0000
  0
VERTEX
  8
52
 10
22.7000
 20
89.6048
 30
0.0000
 42
1.0000
  0
SEQEND
  8
0
  0
POLYLINE
  8
52
 66
1
 10
0.0000
 20
0.0000
 30
0.0000
 40
0.0000
 41
0.0000
 70
1
  0
VERTEX
  8
52
 10
22.7449
 20
89.5862
 30
0.0000
  0
VERTEX
  8
52
 10
22.4274
 20
89.9037
 30
0.0000
 42
1.0000
  0
VERTEX
  8
52
 10
22.3376
 20
89.8138
 30
0.0000
  0
VERTEX
  8
52
 10
22.6551
 20
89.4963
 30
0.0000
 42
1.0000
  0
SEQEND
  8
0
  0
POLYLINE
  8
52
 66
1
 10
0.0000
 20
0.0000
 30
0.0000
 40
0.0000
 41
0.0000
 70
1
  0
VERTEX
  8
52
 10
22.7449
 20
89.4963
 30
0.0000
  0
VERTEX
  8
52
 10
23.0624
 20
89.8138
 30
0.0000
 42
1.0000
  0
VERTEX
  8
52
 10
22.9726
 20
89.9037
 30
0.0000
  0
VERTEX
  8
52
 10
22.6551
 20
89.5862
 30
0.0000
 42
1.0000
  0
SEQEND
  8
0
  0
POLYLINE
  8
52
 66
1
 10
0.0000
 20
0.0000
 30
0.0000
 40
0.0000
 41
0.0000
 70
1
  0
VERTEX
  8
52
 10
44.8000
 20
41.1365
 30
0.0000
  0
VERTEX
  8
52
 10
60.8000
 20
41.1365
 30
0.0000
 42
1.0000
  0
VERTEX
  8
52
 10
60.8000
 20
41.2635
 30
0.0000
  0
VERTEX
  8
52
 10
44.8000
 20
41.2635
 30
0.0000
 42
1.0000
  0
SEQEND
  8
0
  0
POLYLINE
  8
52
 66
1
 10
0.0000
 20
0.0000
 30
0.0000
 40
0.0000
 41
0.0000
 70
1
  0
VERTEX
  8
52
 10
60.8449
 20
41.1551
 30
0.0000
  0
VERTEX
  8
52
 10
62.8449
 20
43.1551
 30
0.0000
 42
1.0000
  0
VERTEX
  8
52
 10
62.7551
 20
43.2449
 30
0.0000
  0
VERTEX
  8
52
 10
60.7551
 20
41.2449
 30
0.0000
 42
1.0000
  0
SEQEND
  8
0
  0
POLYLINE
  8
52
 66
1
 10
0.0000
 20
0.0000
 30
0.0000
 40
0.0000
 41
0.0000
 70
1
  0
VERTEX
  8
52
 10
62.8635
 20
43.2000
 30
0.0000
  0
VERTEX
  8
52
 10
62.8635
 20
59.2000
 30
0.0000
 42
1.0000
  0
VERTEX
  8
52
 10
62.7365
 20
59.2000
 30
0.0000
  0
VERTEX
  8
52
 10
62.7365
 20
43.2000
 30
0.0000
 42
1.0000
  0
SEQEND
  8
0
  0
POLYLINE
  8
52
 66
1
 10
0.0000
 20
0.0000
 30
0.0000
 40
0.0000
 41
0.0000
 70
1
  0
VERTEX
  8
52
 10
62.7365
 20
59.2000
 30
0.0000
 42
1.0000
  0
VERTEX
  8
52
 10
62.8635
 20
59.2000
 30
0.0000
 42
0.4142
  0
VERTEX
  8
52
 10
60.8000
 20
61.2635
 30
0.0000
 42
1.0000
  0
VERTEX
  8
52
 10
60.8000
 20
61.1365
 30
0.0000
 42
-0.4142
  0
SEQEND
  8
0
  0
POLYLINE
  8
52
 66
1
 10
0.0000
 20
0.0000
 30
0.0000
 40
0.0000
 41
0.0000
 70
1
  0
VERTEX
  8
52
 10
60.8000
 20
61.2635
 30
0.0000
  0
VERTEX
  8
52
 10
44.8000
 20
61.2635
 30
0.0000
 42
1.0000
  0
VERTEX
  8
52
 10
44.8000
 20
61.1365
 30
0.0000
  0
VERTEX
  8
52
 10
60.8000
 20
61.1365
 30
0.0000
 42
1.0000
  0
SEQEND
  8
0
  0
POLYLINE
  8
52
 66
1
 10
0.0000
 20
0.0000
 30
0.0000
 40
0.0000
 41
0.0000
 70
1
  0
VERTEX
  8
52
 10
44.8000
 20
61.1365
 30
0.0000
 42
1.0000
  0
VERTEX
  8
52
 10
44.8000
 20
61.2635
 30
0.0000
 42
0.4142
  0
VERTEX
  8
52
 10
42.7365
 20
59.2000
 30
0.0000
 42
1.0000
  0
VERTEX
  8
52
 10
42.8635
 20
59.2000
 30
0.0000
 42
-0.4142
  0
SEQEND
  8
0
  0
POLYLINE
  8
52
 66
1
 10
0.0000
 20
0.0000
 30
0.0000
 40
0.0000
 41
0.0000
 70
1
  0
VERTEX
  8
52
 10
42.7365
 20
59.2000
 30
0.0000
  0
VERTEX
  8
52
 10
42.7365
 20
43.2000
 30
0.0000
 42
1.0000
  0
VERTEX
  8
52
 10
42.8635
 20
43.2000
 30
0.0000
  0
VERTEX
  8
52
 10
42.8635
 20
59.2000
 30
0.0000
 42
1.0000
  0
SEQEND
  8
0
  0
POLYLINE
  8
52
 66
1
 10
0.0000
 20
0.0000
 30
0.0000
 40
0.0000
 41
0.0000
 70
1
  0
VERTEX
  8
52
 10
42.8635
 20
43.2000
 30
0.0000
 42
1.0000
  0
VERTEX
  8
52
 10
42.7365
 20
43.2000
 30
0.0000
 42
0.4142
  0
VERTEX
  8
52
 10
44.8000
 20
41.1365
 30
0.0000
 42
1.0000
  0
VERTEX
  8
52
 10
44.8000
 20
41.2635
 30
0.0000
 42
-0.4142
  0
SEQEND
  8
0
  0
POLYLINE
  8
52
 66
1
 10
0.0000
 20
0.0000
 30
0.0000
 40
0.0000
 41
0.0000
 70
1
  0
VERTEX
  8
52
 10
44.8000
 20
41.1365
 30
0.0000
  0
VERTEX
  8
52
 10
60.8000
 20
41.1365
 30
0.0000
 42
1.0000
  0
VERTEX
  8
52
 10
60.8000
 20
41.2635
 30
0.0000
  0
VERTEX
  8
52
 10
44.8000
 20
41.2635
 30
0.0000
 42
1.0000
  0
SEQEND
  8
0
  0
POLYLINE
  8
52
 66
1
 10
0.0000
 20
0.0000
 30
0.0000
 40
0.0000
 41
0.0000
 70
1
  0
VERTEX
  8
52
 10
60.8449
 20
41.1551
 30
0.0000
  0
VERTEX
  8
52
 10
62.8449
 20
43.1551
 30
0.0000
 42
1.0000
  0
VERTEX
  8
52
 10
62.7551
 20
43.2449
 30
0.0000
  0
VERTEX
  8
52
 10
60.7551
 20
41.2449
 30
0.0000
 42
1.0000
  0
SEQEND
  8
0
  0
POLYLINE
  8
52
 66
1
 10
0.0000
 20
0.0000
 30
0.0000
 40
0.0000
 41
0.0000
 70
1
  0
VERTEX
  8
52
 10
62.8635
 20
43.2000
 30
0.0000
  0
VERTEX
  8
52
 10
62.8635
 20
59.2000
 30
0.0000
 42
1.0000
  0
VERTEX
  8
52
 10
62.7365
 20
59.2000
 30
0.0000
  0
VERTEX
  8
52
 10
62.7365
 20
43.2000
 30
0.0000
 42
1.0000
  0
SEQEND
  8
0
  0
POLYLINE
  8
52
 66
1
 10
0.0000
 20
0.0000
 30
0.0000
 40
0.0000
 41
0.0000
 70
1
  0
VERTEX
  8
52
 10
62.7365
 20
59.2000
 30
0.0000
 42
1.0000
  0
VERTEX
  8
52
 10
62.8635
 20
59.2000
 30
0.0000
 42
0.4142
  0
VERTEX
  8
52
 10
60.8000
 20
61.2635
 30
0.0000
 42
1.0000
  0
VERTEX
  8
52
 10
60.8000
 20
61.1365
 30
0.0000
 42
-0.4142
  0
SEQEND
  8
0
  0
POLYLINE
  8
52
 66
1
 10
0.0000
 20
0.0000
 30
0.0000
 40
0.0000
 41
0.0000
 70
1
  0
VERTEX
  8
52
 10
60.8000
 20
61.2635
 30
0.0000
  0
VERTEX
  8
52
 10
44.8000
 20
61.2635
 30
0.0000
 42
1.0000
  0
VERTEX
  8
52
 10
44.8000
 20
61.1365
 30
0.0000
  0
VERTEX
  8
52
 10
60.8000
 20
61.1365
 30
0.0000
 42
1.0000
  0
SEQEND
  8
0
  0
POLYLINE
  8
52
 66
1
 10
0.0000
 20
0.0000
 30
0.0000
 40
0.0000
 41
0.0000
 70
1
  0
VERTEX
  8
52
 10
44.8000
 20
61.1365
 30
0.0000
 42
1.0000
  0
VERTEX
  8
52
 10
44.8000
 20
61.2635
 30
0.0000
 42
0.4142
  0
VERTEX
  8
52
 10
42.7365
 20
59.2000
 30
0.0000
 42
1.0000
  0
VERTEX
  8
52
 10
42.8635
 20
59.2000
 30
0.0000
 42
-0.4142
  0
SEQEND
  8
0
  0
POLYLINE
  8
52
 66
1
 10
0.0000
 20
0.0000
 30
0.0000
 40
0.0000
 41
0.0000
 70
1
  0
VERTEX
  8
52
 10
42.7365
 20
59.2000
 30
0.0000
  0
VERTEX
  8
52
 10
42.7365
 20
43.2000
 30
0.0000
 42
1.0000
  0
VERTEX
  8
52
 10
42.8635
 20
43.2000
 30
0.0000
  0
VERTEX
  8
52
 10
42.8635
 20
59.2000
 30
0.0000
 42
1.0000
  0
SEQEND
  8
0
  0
POLYLINE
  8
52
 66
1
 10
0.0000
 20
0.0000
 30
0.0000
 40
0.0000
 41
0.0000
 70
1
  0
VERTEX
  8
52
 10
42.8635
 20
43.2000
 30
0.0000
 42
1.0000
  0
VERTEX
  8
52
 10
42.7365
 20
43.2000
 30
0.0000
 42
0.4142
  0
VERTEX
  8
52
 10
44.8000
 20
41.1365
 30
0.0000
 42
1.0000
  0
VERTEX
  8
52
 10
44.8000
 20
41.2635
 30
0.0000
 42
-0.4142
  0
SEQEND
  8
0
  0
INSERT
  8
17
  2
ROUNDP
 10
52.8000
 20
52.8000
 30
0.0000
 41
1.5750
 42
1.5750
 43
1.0000
 50
180.0000
  0
INSERT
  8
17
  2
ROUNDP
 10
52.8000
 20
52.8000
 30
0.0000
 41
1.5750
 42
1.5750
 43
1.0000
 50
180.0000
  0
INSERT
  8
17
  2
LONGP100
 10
17.4850
 20
96.9000
 30
0.0000
 41
0.9156
 42
0.9156
 43
1.0000
 50
90.0000
  0
INSERT
  8
17
  2
LONGP100
 10
17.4850
 20
96.9000
 30
0.0000
 41
0.9156
 42
0.9156
 43
1.0000
 50
90.0000
  0
INSERT
  8
17
  2
LONGP100
 10
18.7550
 20
96.9000
 30
0.0000
 41
0.9156
 42
0.9156
 43
1.0000
 50
90.0000
  0
INSERT
  8
17
  2
LONGP100
 10
18.7550
 20
96.9000
 30
0.0000
 41
0.9156
 42
0.9156
 43
1.0000
 50
90.0000
  0
INSERT
  8
17
  2
LONGP100
 10
20.0250
 20
96.9000
 30
0.0000
 41
0.9156
 42
0.9156
 43
1.0000
 50
90.0000
  0
INSERT
  8
17
  2
LONGP100
 10
20.0250
 20
96.9000
 30
0.0000
 41
0.9156
 42
0.9156
 43
1.0000
 50
90.0000
  0
INSERT
  8
17
  2
LONGP100
 10
21.2950
 20
96.9000
 30
0.0000
 41
0.9156
 42
0.9156
 43
1.0000
 50
90.0000
  0
INSERT
  8
17
  2
LONGP100
 10
21.2950
 20
96.9000
 30
0.0000
 41
0.9156
 42
0.9156
 43
1.0000
 50
90.0000
  0
INSERT
  8
17
  2
LONGP100
 10
22.5650
 20
96.9000
 30
0.0000
 41
0.9156
 42
0.9156
 43
1.0000
 50
90.0000
  0
INSERT
  8
17
  2
LONGP100
 10
22.5650
 20
96.9000
 30
0.0000
 41
0.9156
 42
0.9156
 43
1.0000
 50
90.0000
  0
INSERT
  8
17
  2
LONGP100
 10
23.8350
 20
96.9000
 30
0.0000
 41
0.9156
 42
0.9156
 43
1.0000
 50
90.0000
  0
INSERT
  8
17
  2
LONGP100
 10
23.8350
 20
96.9000
 30
0.0000
 41
0.9156
 42
0.9156
 43
1.0000
 50
90.0000
  0
INSERT
  8
17
  2
LONGP100
 10
25.1050
 20
96.9000
 30
0.0000
 41
0.9156
 42
0.9156
 43
1.0000
 50
90.0000
  0
INSERT
  8
17
  2
LONGP100
 10
25.1050
 20
96.9000
 30
0.0000
 41
0.9156
 42
0.9156
 43
1.0000
 50
90.0000
  0
INSERT
  8
17
  2
LONGP100
 10
26.3750
 20
96.9000
 30
0.0000
 41
0.9156
 42
0.9156
 43
1.0000
 50
90.0000
  0
INSERT
  8
17
  2
LONGP100
 10
26.3750
 20
96.9000
 30
0.0000
 41
0.9156
 42
0.9156
 43
1.0000
 50
90.0000
  0
INSERT
  8
17
  2
LONGP100
 10
27.6450
 20
96.9000
 30
0.0000
 41
0.9156
 42
0.9156
 43
1.0000
 50
90.0000
  0
INSERT
  8
17
  2
LONGP100
 10
27.6450
 20
96.9000
 30
0.0000
 41
0.9156
 42
0.9156
 43
1.0000
 50
90.0000
  0
INSERT
  8
17
  2
LONGP100
 10
28.9150
 20
96.9000
 30
0.0000
 41
0.9156
 42
0.9156
 43
1.0000
 50
90.0000
  0
INSERT
  8
17
  2
LONGP100
 10
28.9150
 20
96.9000
 30
0.0000
 41
0.9156
 42
0.9156
 43
1.0000
 50
90.0000
  0
INSERT
  8
17
  2
LONGP100
 10
30.1850
 20
96.9000
 30
0.0000
 41
0.9156
 42
0.9156
 43
1.0000
 50
90.0000
  0
INSERT
  8
17
  2
LONGP100
 10
30.1850
 20
96.9000
 30
0.0000
 41
0.9156
 42
0.9156
 43
1.0000
 50
90.0000
  0
INSERT
  8
17
  2
LONGP100
 10
31.4550
 20
96.9000
 30
0.0000
 41
0.9156
 42
0.9156
 43
1.0000
 50
90.0000
  0
INSERT
  8
17
  2
LONGP100
 10
31.4550
 20
96.9000
 30
0.0000
 41
0.9156
 42
0.9156
 43
1.0000
 50
90.0000
  0
INSERT
  8
17
  2
LONGP100
 10
32.7250
 20
96.9000
 30
0.0000
 41
0.9156
 42
0.9156
 43
1.0000
 50
90.0000
  0
INSERT
  8
17
  2
LONGP100
 10
32.7250
 20
96.9000
 30
0.0000
 41
0.9156
 42
0.9156
 43
1.0000
 50
90.0000
  0
INSERT
  8
17
  2
LONGP100
 10
33.9950
 20
96.9000
 30
0.0000
 41
0.9156
 42
0.9156
 43
1.0000
 50
90.0000
  0
INSERT
  8
17
  2
LONGP100
 10
33.9950
 20
96.9000
 30
0.0000
 41
0.9156
 42
0.9156
 43
1.0000
 50
90.0000
  0
INSERT
  8
17
  2
LONGP100
 10
35.2650
 20
96.9000
 30
0.0000
 41
0.9156
 42
0.9156
 43
1.0000
 50
90.0000
  0
INSERT
  8
17
  2
LONGP100
 10
35.2650
 20
96.9000
 30
0.0000
 41
0.9156
 42
0.9156
 43
1.0000
 50
90.0000
  0
INSERT
  8
17
  2
LONGP100
 10
36.5350
 20
96.9000
 30
0.0000
 41
0.9156
 42
0.9156
 43
1.0000
 50
90.0000
  0
INSERT
  8
17
  2
LONGP100
 10
36.5350
 20
96.9000
 30
0.0000
 41
0.9156
 42
0.9156
 43
1.0000
 50
90.0000
  0
INSERT
  8
17
  2
LONGP100
 10
37.8050
 20
96.9000
 30
0.0000
 41
0.9156
 42
0.9156
 43
1.0000
 50
90.0000
  0
INSERT
  8
17
  2
LONGP100
 10
37.8050
 20
96.9000
 30
0.0000
 41
0.9156
 42
0.9156
 43
1.0000
 50
90.0000
  0
INSERT
  8
17
  2
LONGP100
 10
39.0750
 20
96.9000
 30
0.0000
 41
0.9156
 42
0.9156
 43
1.0000
 50
90.0000
  0
INSERT
  8
17
  2
LONGP100
 10
39.0750
 20
96.9000
 30
0.0000
 41
0.9156
 42
0.9156
 43
1.0000
 50
90.0000
  0
INSERT
  8
17
  2
LONGP100
 10
40.3450
 20
96.9000
 30
0.0000
 41
0.9156
 42
0.9156
 43
1.0000
 50
90.0000
  0
INSERT
  8
17
  2
LONGP100
 10
40.3450
 20
96.9000
 30
0.0000
 41
0.9156
 42
0.9156
 43
1.0000
 50
90.0000
  0
INSERT
  8
17
  2
LONGP100
 10
41.6150
 20
96.9000
 30
0.0000
 41
0.9156
 42
0.9156
 43
1.0000
 50
90.0000
  0
INSERT
  8
17
  2
LONGP100
 10
41.6150
 20
96.9000
 30
0.0000
 41
0.9156
 42
0.9156
 43
1.0000
 50
90.0000
  0
INSERT
  8
17
  2
ROUNDP
 10
11.5000
 20
91.1000
 30
0.0000
 41
1.1049
 42
1.1049
 43
1.0000
 50
270.0000
  0
INSERT
  8
17
  2
ROUNDP
 10
11.5000
 20
91.1000
 30
0.0000
 41
1.1049
 42
1.1049
 43
1.0000
 50
270.0000
  0
INSERT
  8
17
  2
ROUNDP
 10
7.6800
 20
25.4800
 30
0.0000
 41
1.1049
 42
1.1049
 43
1.0000
 50
0.0000
  0
INSERT
  8
17
  2
ROUNDP
 10
7.6800
 20
25.4800
 30
0.0000
 41
1.1049
 42
1.1049
 43
1.0000
 50
0.0000
  0
INSERT
  8
52
  2
RECT
 10
37.0000
 20
99.5000
 30
0.0000
 41
0.5080
 42
0.5080
 43
1.0000
 50
270.0000
  0
INSERT
  8
17
  2
ROUNDP
 10
37.0000
 20
99.5000
 30
0.0000
 41
1.1049
 42
1.1049
 43
1.0000
 50
270.0000
  0
INSERT
  8
17
  2
ROUNDP
 10
37.0000
 20
99.5000
 30
0.0000
 41
1.1049
 42
1.1049
 43
1.0000
 50
270.0000
  0
INSERT
  8
17
  2
ROUNDP
 10
18.8000
 20
89.9000
 30
0.0000
 41
1.1049
 42
1.1049
 43
1.0000
 50
270.0000
  0
INSERT
  8
17
  2
ROUNDP
 10
18.8000
 20
89.9000
 30
0.0000
 41
1.1049
 42
1.1049
 43
1.0000
 50
270.0000
  0
INSERT
  8
17
  2
ROUNDP
 10
8.8000
 20
26.9000
 30
0.0000
 41
1.1049
 42
1.1049
 43
1.0000
 50
0.0000
  0
INSERT
  8
17
  2
ROUNDP
 10
8.8000
 20
26.9000
 30
0.0000
 41
1.1049
 42
1.1049
 43
1.0000
 50
0.0000
  0
INSERT
  8
17
  2
ROUNDP
 10
13.0000
 20
89.8000
 30
0.0000
 41
1.1049
 42
1.1049
 43
1.0000
 50
180.0000
  0
INSERT
  8
17
  2
ROUNDP
 10
13.0000
 20
89.8000
 30
0.0000
 41
1.1049
 42
1.1049
 43
1.0000
 50
180.0000
  0
INSERT
  8
17
  2
ROUNDP
 10
27.4000
 20
88.1000
 30
0.0000
 41
1.1049
 42
1.1049
 43
1.0000
 50
0.0000
  0
INSERT
  8
17
  2
ROUNDP
 10
27.4000
 20
88.1000
 30
0.0000
 41
1.1049
 42
1.1049
 43
1.0000
 50
0.0000
  0
INSERT
  8
17
  2
ROUNDP
 10
25.6000
 20
88.1000
 30
0.0000
 41
1.1049
 42
1.1049
 43
1.0000
 50
0.0000
  0
INSERT
  8
17
  2
ROUNDP
 10
25.6000
 20
88.1000
 30
0.0000
 41
1.1049
 42
1.1049
 43
1.0000
 50
0.0000
  0
ENDSEC
  0
EOF
